<svg xmlns="http://www.w3.org/2000/svg" xmlns:xlink="http://www.w3.org/1999/xlink" width="500" zoomAndPan="magnify" viewBox="0 0 375 374.999991" height="500" preserveAspectRatio="xMidYMid meet" version="1.0"><defs><g/></defs><g fill="#cc001e" fill-opacity="1"><g transform="translate(25.566496, 260.112508)"><g><path d="M 96.625 -105.59375 L 96.625 -196.125 L 159.96875 -196.125 L 159.96875 -61.03125 C 159.96875 -48.695312 157.796875 -38.429688 153.453125 -30.234375 C 149.117188 -22.035156 143.476562 -15.570312 136.53125 -10.84375 C 129.59375 -6.125 122.171875 -2.796875 114.265625 -0.859375 C 106.359375 1.066406 98.835938 2.03125 91.703125 2.03125 C 84.566406 2.03125 78.007812 0.875 72.03125 -1.4375 C 66.050781 -3.757812 60.550781 -6.414062 55.53125 -9.40625 C 50.519531 -12.394531 45.894531 -15.046875 41.65625 -17.359375 C 37.414062 -19.671875 33.554688 -20.828125 30.078125 -20.828125 C 22.941406 -20.828125 18.265625 -18.945312 16.046875 -15.1875 C 13.835938 -11.425781 12.734375 -6.363281 12.734375 0 L 6.078125 0 C 5.109375 -7.90625 5.007812 -16.050781 5.78125 -24.4375 C 6.550781 -32.832031 8.671875 -40.597656 12.140625 -47.734375 C 15.617188 -54.867188 20.734375 -60.648438 27.484375 -65.078125 C 34.234375 -69.515625 43.007812 -71.734375 53.8125 -71.734375 C 64.601562 -71.734375 74.097656 -69.945312 82.296875 -66.375 C 90.492188 -62.8125 97.820312 -58.765625 104.28125 -54.234375 C 110.75 -49.703125 116.632812 -45.648438 121.9375 -42.078125 C 127.238281 -38.515625 132.394531 -36.734375 137.40625 -36.734375 C 144.351562 -36.734375 148.546875 -38.421875 149.984375 -41.796875 C 151.429688 -45.171875 151.867188 -48.789062 151.296875 -52.65625 C 150.710938 -56.3125 148.492188 -59.34375 144.640625 -61.75 C 140.785156 -64.164062 136.203125 -66.429688 130.890625 -68.546875 C 125.585938 -70.671875 120.285156 -73.179688 114.984375 -76.078125 C 109.679688 -78.972656 105.296875 -82.734375 101.828125 -87.359375 C 98.359375 -91.992188 96.625 -98.070312 96.625 -105.59375 Z M 96.625 -105.59375 "/></g></g></g><g fill="#cc001e" fill-opacity="1"><g transform="translate(178.293695, 260.112508)"><g><path d="M 74.640625 -72.03125 L 74.640625 -77.8125 C 81.578125 -77.8125 87.597656 -79.835938 92.703125 -83.890625 C 97.816406 -87.941406 101.53125 -93.4375 103.84375 -100.375 C 106.164062 -107.320312 106.648438 -115.085938 105.296875 -123.671875 C 103.953125 -132.253906 100.289062 -141.171875 94.3125 -150.421875 C 90.445312 -156.398438 85.71875 -161.703125 80.125 -166.328125 C 74.53125 -170.960938 68.789062 -174.582031 62.90625 -177.1875 C 57.03125 -179.789062 51.488281 -181.09375 46.28125 -181.09375 C 39.726562 -181.09375 35.003906 -179.984375 32.109375 -177.765625 C 29.210938 -175.546875 27.523438 -172.988281 27.046875 -170.09375 C 26.566406 -167.207031 26.804688 -164.507812 27.765625 -162 C 29.117188 -158.53125 31.429688 -155.6875 34.703125 -153.46875 C 37.984375 -151.25 41.597656 -149.03125 45.546875 -146.8125 C 49.503906 -144.59375 53.363281 -142.035156 57.125 -139.140625 C 60.894531 -136.253906 63.984375 -132.445312 66.390625 -127.71875 C 68.796875 -122.988281 70 -116.863281 70 -109.34375 L 70 0 L 6.65625 0 L 6.65625 -135.390625 C 6.65625 -147.921875 8.820312 -158.234375 13.15625 -166.328125 C 17.5 -174.429688 23.09375 -180.796875 29.9375 -185.421875 C 36.78125 -190.054688 44.15625 -193.335938 52.0625 -195.265625 C 59.976562 -197.191406 67.503906 -198.15625 74.640625 -198.15625 C 92.765625 -198.15625 108.910156 -195.695312 123.078125 -190.78125 C 137.253906 -185.863281 148.441406 -179.066406 156.640625 -170.390625 C 164.835938 -161.710938 168.9375 -151.679688 168.9375 -140.296875 C 168.9375 -128.148438 165.222656 -116.914062 157.796875 -106.59375 C 150.378906 -96.28125 139.628906 -87.941406 125.546875 -81.578125 C 111.472656 -75.210938 94.503906 -72.03125 74.640625 -72.03125 Z M 74.640625 -72.03125 "/></g></g></g></svg>