<svg xmlns="http://www.w3.org/2000/svg" xmlns:xlink="http://www.w3.org/1999/xlink" width="1080" zoomAndPan="magnify" viewBox="0 0 810 809.999993" height="1080" preserveAspectRatio="xMidYMid meet" version="1.0"><defs><g/><clipPath id="de998d0383"><path d="M 513 199 L 643 199 L 643 337 L 513 337 Z M 513 199 " clip-rule="nonzero"/></clipPath><clipPath id="4f492970a1"><path d="M 542.859375 179.363281 L 667.816406 236.140625 L 612.902344 357 L 487.945312 300.222656 Z M 542.859375 179.363281 " clip-rule="nonzero"/></clipPath><clipPath id="b2beb0bbb2"><path d="M 542.859375 179.363281 L 667.816406 236.140625 L 612.902344 357 L 487.945312 300.222656 Z M 542.859375 179.363281 " clip-rule="nonzero"/></clipPath><clipPath id="dffbbe92f0"><path d="M 569 259 L 587 259 L 587 277 L 569 277 Z M 569 259 " clip-rule="nonzero"/></clipPath><clipPath id="36afa89f70"><path d="M 542.859375 179.363281 L 667.816406 236.140625 L 612.902344 357 L 487.945312 300.222656 Z M 542.859375 179.363281 " clip-rule="nonzero"/></clipPath><clipPath id="b3e1331453"><path d="M 542.859375 179.363281 L 667.816406 236.140625 L 612.902344 357 L 487.945312 300.222656 Z M 542.859375 179.363281 " clip-rule="nonzero"/></clipPath></defs><g clip-path="url(#de998d0383)"><g clip-path="url(#4f492970a1)"><g clip-path="url(#b2beb0bbb2)"><path fill="#000000" d="M 633.898438 228.179688 C 641.796875 239.226562 639.714844 254.515625 629.46875 263.105469 C 641.179688 269.550781 646.175781 284.152344 640.554688 296.515625 C 634.9375 308.878906 620.652344 314.722656 608.097656 310.140625 C 608.367188 323.507812 598.21875 335.132812 584.703125 336.449219 C 571.1875 337.769531 558.984375 328.320312 556.675781 315.152344 C 545.230469 322.070312 530.089844 319.09375 522.191406 308.046875 C 514.292969 297 516.375 281.707031 526.625 273.121094 C 514.914062 266.675781 509.917969 252.074219 515.535156 239.710938 C 521.152344 227.347656 535.4375 221.507812 547.996094 226.085938 C 547.726562 212.71875 557.871094 201.089844 571.386719 199.777344 C 584.90625 198.460938 597.105469 207.910156 599.417969 221.078125 C 610.859375 214.15625 626.003906 217.132812 633.898438 228.179688 Z M 633.898438 228.179688 " fill-opacity="1" fill-rule="evenodd"/></g></g></g><g clip-path="url(#dffbbe92f0)"><g clip-path="url(#36afa89f70)"><g clip-path="url(#b3e1331453)"><path fill="#000000" d="M 585.484375 271.492188 C 585.261719 271.980469 584.992188 272.445312 584.679688 272.878906 C 584.367188 273.316406 584.015625 273.714844 583.625 274.082031 C 583.230469 274.449219 582.808594 274.773438 582.351562 275.054688 C 581.894531 275.339844 581.417969 275.574219 580.914062 275.761719 C 580.410156 275.953125 579.894531 276.089844 579.367188 276.175781 C 578.835938 276.261719 578.304688 276.296875 577.769531 276.277344 C 577.230469 276.261719 576.703125 276.191406 576.179688 276.070312 C 575.65625 275.945312 575.152344 275.773438 574.664062 275.550781 C 574.175781 275.328125 573.714844 275.0625 573.277344 274.75 C 572.84375 274.4375 572.441406 274.085938 572.074219 273.691406 C 571.707031 273.300781 571.382812 272.875 571.101562 272.421875 C 570.816406 271.964844 570.582031 271.484375 570.394531 270.984375 C 570.207031 270.480469 570.066406 269.964844 569.980469 269.4375 C 569.894531 268.90625 569.859375 268.375 569.878906 267.835938 C 569.894531 267.300781 569.964844 266.773438 570.089844 266.25 C 570.210938 265.726562 570.382812 265.222656 570.605469 264.734375 C 570.828125 264.246094 571.09375 263.78125 571.40625 263.347656 C 571.71875 262.910156 572.074219 262.511719 572.464844 262.144531 C 572.855469 261.777344 573.28125 261.453125 573.738281 261.171875 C 574.191406 260.886719 574.671875 260.652344 575.175781 260.464844 C 575.675781 260.273438 576.191406 260.136719 576.722656 260.050781 C 577.25 259.964844 577.785156 259.929688 578.320312 259.945312 C 578.855469 259.964844 579.386719 260.035156 579.90625 260.15625 C 580.429688 260.28125 580.9375 260.453125 581.425781 260.675781 C 581.914062 260.894531 582.375 261.164062 582.808594 261.476562 C 583.246094 261.789062 583.648438 262.140625 584.011719 262.535156 C 584.378906 262.925781 584.703125 263.351562 584.988281 263.804688 C 585.269531 264.261719 585.503906 264.742188 585.695312 265.242188 C 585.882812 265.746094 586.019531 266.261719 586.105469 266.789062 C 586.195312 267.320312 586.226562 267.851562 586.210938 268.390625 C 586.191406 268.925781 586.121094 269.453125 586 269.976562 C 585.878906 270.5 585.703125 271.003906 585.484375 271.492188 Z M 585.484375 271.492188 " fill-opacity="1" fill-rule="nonzero"/></g></g></g><g fill="#ffffff" fill-opacity="1"><g transform="translate(538.638009, 281.523016)"><g><path d="M 8.078125 -9.96875 C 9.316406 -12.695312 11.078125 -14.863281 13.359375 -16.46875 C 15.640625 -18.070312 18.191406 -19.269531 21.015625 -20.0625 C 23.847656 -20.851562 26.65625 -21.335938 29.4375 -21.515625 L 30.171875 -21.578125 L 30.078125 -22.21875 C 29.859375 -23.5 29.648438 -24.757812 29.453125 -26 C 29.265625 -27.238281 29.144531 -28.46875 29.09375 -29.6875 C 29.03125 -30.832031 29.082031 -31.992188 29.25 -33.171875 C 29.425781 -34.347656 29.785156 -35.53125 30.328125 -36.71875 C 31.503906 -39.289062 33.097656 -41.203125 35.109375 -42.453125 C 37.128906 -43.710938 39.351562 -44.367188 41.78125 -44.421875 C 44.207031 -44.472656 46.648438 -43.941406 49.109375 -42.828125 C 51.128906 -41.910156 52.976562 -40.6875 54.65625 -39.15625 C 56.34375 -37.632812 57.53125 -35.894531 58.21875 -33.9375 C 58.90625 -31.976562 58.738281 -29.878906 57.71875 -27.640625 C 56.726562 -25.453125 55.300781 -23.828125 53.4375 -22.765625 C 51.570312 -21.703125 49.503906 -21.0625 47.234375 -20.84375 C 44.960938 -20.632812 42.710938 -20.609375 40.484375 -20.765625 L 39.59375 -20.765625 L 39.75 -20 C 40.375 -16.625 41.03125 -13.226562 41.71875 -9.8125 C 42.40625 -6.394531 43.140625 -2.992188 43.921875 0.390625 L 44.125 1.265625 L 44.8125 0.796875 C 45.988281 0.078125 47.285156 -0.847656 48.703125 -1.984375 C 50.117188 -3.128906 51.441406 -4.375 52.671875 -5.71875 C 53.910156 -7.070312 54.816406 -8.378906 55.390625 -9.640625 C 56.035156 -11.054688 56.207031 -12.304688 55.90625 -13.390625 C 55.613281 -14.484375 54.984375 -15.484375 54.015625 -16.390625 C 54.941406 -17.140625 56.117188 -17.535156 57.546875 -17.578125 C 58.984375 -17.617188 60.273438 -17.378906 61.421875 -16.859375 C 63.066406 -16.109375 64.175781 -15.023438 64.75 -13.609375 C 65.332031 -12.203125 65.238281 -10.648438 64.46875 -8.953125 C 63.945312 -7.804688 62.878906 -6.660156 61.265625 -5.515625 C 59.660156 -4.378906 57.820312 -3.304688 55.75 -2.296875 C 53.6875 -1.296875 51.664062 -0.4375 49.6875 0.28125 C 47.71875 1 46.078125 1.488281 44.765625 1.75 L 44.125 1.859375 L 44.328125 2.546875 C 44.503906 3.421875 44.800781 4.5625 45.21875 5.96875 C 45.632812 7.382812 46.132812 8.828125 46.71875 10.296875 C 47.300781 11.773438 47.972656 13.117188 48.734375 14.328125 C 49.503906 15.546875 50.40625 16.390625 51.4375 16.859375 C 52.914062 17.523438 54.414062 17.570312 55.9375 17 C 54.695312 19.15625 53.03125 20.644531 50.9375 21.46875 C 48.851562 22.300781 46.632812 22.179688 44.28125 21.109375 C 41.488281 19.847656 39.421875 17.90625 38.078125 15.28125 C 36.742188 12.65625 35.722656 9.867188 35.015625 6.921875 L 34.859375 6.171875 L 34.109375 6.515625 C 30.984375 8.191406 27.921875 9.203125 24.921875 9.546875 C 21.921875 9.898438 18.8125 9.34375 15.59375 7.875 C 11.9375 6.21875 9.335938 3.773438 7.796875 0.546875 C 6.265625 -2.679688 6.359375 -6.1875 8.078125 -9.96875 Z M 29.671875 -19.828125 C 27.316406 -18.992188 25.015625 -17.695312 22.765625 -15.9375 C 20.523438 -14.1875 18.859375 -12.113281 17.765625 -9.71875 C 16.398438 -6.707031 16.367188 -3.953125 17.671875 -1.453125 C 18.972656 1.046875 20.960938 2.90625 23.640625 4.125 C 25.273438 4.863281 26.96875 5.300781 28.71875 5.4375 C 30.46875 5.570312 32.238281 5.488281 34.03125 5.1875 L 34.625 4.953125 L 34.484375 4.390625 C 33.765625 0.453125 33.082031 -3.492188 32.4375 -7.453125 C 31.789062 -11.410156 31.148438 -15.375 30.515625 -19.34375 L 30.375 -20.109375 Z M 48.28125 -41.625 C 46.582031 -42.394531 44.90625 -42.476562 43.25 -41.875 C 41.59375 -41.28125 40.363281 -40.109375 39.5625 -38.359375 C 38.9375 -36.992188 38.59375 -35.367188 38.53125 -33.484375 C 38.46875 -31.609375 38.523438 -29.738281 38.703125 -27.875 C 38.890625 -26.019531 39.078125 -24.425781 39.265625 -23.09375 L 39.328125 -22.359375 L 40.015625 -22.546875 C 42.535156 -23.304688 44.820312 -24.390625 46.875 -25.796875 C 48.925781 -27.210938 50.523438 -29.175781 51.671875 -31.6875 C 52.535156 -33.601562 52.675781 -35.515625 52.09375 -37.421875 C 51.507812 -39.335938 50.238281 -40.738281 48.28125 -41.625 Z M 48.28125 -41.625 "/></g></g></g></svg>