<svg xmlns="http://www.w3.org/2000/svg" xmlns:xlink="http://www.w3.org/1999/xlink" width="1080" zoomAndPan="magnify" viewBox="0 0 810 809.999993" height="1080" preserveAspectRatio="xMidYMid meet" version="1.0"><defs><clipPath id="1ea59cf90b"><path d="M 527 63 L 681 63 L 681 225 L 527 225 Z M 527 63 " clip-rule="nonzero"/></clipPath><clipPath id="9f654950f6"><path d="M 562.199219 39.046875 L 710.371094 106.371094 L 645.527344 249.082031 L 497.355469 181.753906 Z M 562.199219 39.046875 " clip-rule="nonzero"/></clipPath><clipPath id="8e2dc52f46"><path d="M 562.199219 39.046875 L 710.371094 106.371094 L 645.527344 249.082031 L 497.355469 181.753906 Z M 562.199219 39.046875 " clip-rule="nonzero"/></clipPath><clipPath id="ef7907a1ca"><path d="M 594 134 L 614 134 L 614 154 L 594 154 Z M 594 134 " clip-rule="nonzero"/></clipPath><clipPath id="f5f2d3a07f"><path d="M 562.199219 39.046875 L 710.371094 106.371094 L 645.527344 249.082031 L 497.355469 181.753906 Z M 562.199219 39.046875 " clip-rule="nonzero"/></clipPath><clipPath id="4f6d91be81"><path d="M 562.199219 39.046875 L 710.371094 106.371094 L 645.527344 249.082031 L 497.355469 181.753906 Z M 562.199219 39.046875 " clip-rule="nonzero"/></clipPath></defs><g clip-path="url(#1ea59cf90b)"><g clip-path="url(#9f654950f6)"><g clip-path="url(#8e2dc52f46)"><path fill="#fbeeda" d="M 669.839844 96.765625 C 679.179688 109.832031 676.71875 127.910156 664.605469 138.0625 C 678.449219 145.683594 684.359375 162.953125 677.714844 177.574219 C 671.074219 192.191406 654.179688 199.097656 639.335938 193.683594 C 639.652344 209.488281 627.652344 223.234375 611.667969 224.792969 C 595.6875 226.351562 581.261719 215.175781 578.527344 199.609375 C 564.996094 207.789062 547.09375 204.269531 537.753906 191.207031 C 528.414062 178.144531 530.878906 160.0625 542.996094 149.910156 C 529.148438 142.285156 523.242188 125.023438 529.882812 110.402344 C 536.527344 95.78125 553.417969 88.875 568.269531 94.289062 C 567.945312 78.484375 579.945312 64.734375 595.925781 63.183594 C 611.914062 61.625 626.335938 72.796875 629.074219 88.367188 C 642.597656 80.1875 660.507812 83.707031 669.839844 96.765625 Z M 669.839844 96.765625 " fill-opacity="1" fill-rule="evenodd"/></g></g></g><g clip-path="url(#ef7907a1ca)"><g clip-path="url(#f5f2d3a07f)"><g clip-path="url(#4f6d91be81)"><path fill="#fbeeda" d="M 612.59375 147.984375 C 612.332031 148.5625 612.015625 149.109375 611.644531 149.621094 C 611.277344 150.136719 610.859375 150.613281 610.394531 151.046875 C 609.933594 151.480469 609.429688 151.863281 608.890625 152.195312 C 608.351562 152.53125 607.785156 152.808594 607.191406 153.03125 C 606.597656 153.253906 605.988281 153.417969 605.363281 153.519531 C 604.734375 153.625 604.105469 153.664062 603.472656 153.644531 C 602.835938 153.621094 602.210938 153.539062 601.59375 153.394531 C 600.976562 153.25 600.378906 153.046875 599.800781 152.78125 C 599.222656 152.519531 598.675781 152.203125 598.164062 151.835938 C 597.648438 151.464844 597.171875 151.046875 596.738281 150.582031 C 596.304688 150.121094 595.921875 149.617188 595.589844 149.078125 C 595.253906 148.539062 594.976562 147.972656 594.753906 147.378906 C 594.53125 146.785156 594.367188 146.175781 594.265625 145.550781 C 594.160156 144.925781 594.121094 144.292969 594.140625 143.660156 C 594.164062 143.027344 594.246094 142.402344 594.390625 141.78125 C 594.535156 141.164062 594.738281 140.566406 595.003906 139.988281 C 595.265625 139.414062 595.582031 138.867188 595.949219 138.351562 C 596.320312 137.835938 596.738281 137.363281 597.199219 136.929688 C 597.664062 136.496094 598.164062 136.109375 598.703125 135.777344 C 599.242188 135.441406 599.808594 135.164062 600.40625 134.941406 C 601 134.71875 601.609375 134.554688 602.234375 134.453125 C 602.859375 134.351562 603.492188 134.308594 604.125 134.332031 C 604.757812 134.351562 605.382812 134.433594 606.003906 134.578125 C 606.621094 134.726562 607.21875 134.929688 607.792969 135.191406 C 608.371094 135.453125 608.917969 135.769531 609.433594 136.140625 C 609.949219 136.507812 610.421875 136.925781 610.855469 137.390625 C 611.289062 137.851562 611.671875 138.355469 612.007812 138.894531 C 612.34375 139.433594 612.621094 140 612.84375 140.59375 C 613.066406 141.1875 613.230469 141.796875 613.332031 142.421875 C 613.433594 143.050781 613.476562 143.679688 613.453125 144.3125 C 613.433594 144.945312 613.351562 145.574219 613.203125 146.191406 C 613.058594 146.808594 612.855469 147.40625 612.59375 147.984375 Z M 612.59375 147.984375 " fill-opacity="1" fill-rule="nonzero"/></g></g></g></svg>