<svg xmlns="http://www.w3.org/2000/svg" xmlns:xlink="http://www.w3.org/1999/xlink" width="1080" zoomAndPan="magnify" viewBox="0 0 810 809.999993" height="1080" preserveAspectRatio="xMidYMid meet" version="1.0"><defs><g/><clipPath id="f66eb3cd8e"><path d="M 51 169 L 623 169 L 623 637 L 51 637 Z M 51 169 " clip-rule="nonzero"/></clipPath><clipPath id="8d6afa532a"><path d="M 218.265625 64.554688 L 728.3125 389.011719 L 560.449219 652.894531 L 50.402344 328.4375 Z M 218.265625 64.554688 " clip-rule="nonzero"/></clipPath><clipPath id="cf264ad25c"><path d="M 218.265625 64.554688 L 728.3125 389.011719 L 560.449219 652.894531 L 50.402344 328.4375 Z M 218.265625 64.554688 " clip-rule="nonzero"/></clipPath></defs><g clip-path="url(#f66eb3cd8e)"><g clip-path="url(#8d6afa532a)"><g clip-path="url(#cf264ad25c)"><path fill="#ea5814" d="M 51.164062 327.242188 C 68.398438 302.382812 88.296875 276.175781 111.234375 249.402344 C 125.089844 233.230469 138.867188 218.234375 152.367188 204.359375 C 163.40625 197.414062 176.488281 190.496094 191.667969 184.675781 C 241.34375 165.632812 286.917969 168.570312 313.757812 172.785156 C 345.863281 178.863281 377.964844 184.941406 410.070312 191.019531 C 428.503906 201.28125 446.9375 211.542969 465.375 221.804688 C 480.667969 233.191406 496.011719 244.691406 511.398438 256.308594 C 526.613281 267.789062 541.707031 279.257812 556.683594 290.707031 C 562.121094 294.746094 568.664062 300.179688 575.4375 307.257812 C 584.5625 316.792969 590.335938 325.367188 592.878906 329.34375 C 597.4375 336.457031 602.882812 346.355469 607.308594 358.917969 C 610.539062 366.445312 614.804688 377.601562 618.1875 391.511719 C 622.765625 410.363281 626.308594 442.011719 615.847656 502.570312 C 607.734375 549.523438 579.921875 590.117188 570.8125 636.015625 C 520.742188 609.136719 470.667969 582.257812 420.597656 555.382812 C 318.207031 479.828125 262.730469 445.855469 230.703125 428.929688 C 211.976562 419.03125 187.539062 406.445312 152.191406 385.652344 C 135.402344 375.777344 119.023438 364.152344 101.644531 355.535156 C 91 350.257812 79.84375 343.234375 68.992188 338.550781 C 63.253906 336.078125 56.355469 330.894531 51.164062 327.242188 Z M 51.164062 327.242188 " fill-opacity="1" fill-rule="nonzero"/></g></g></g><g fill="#f3f4f0" fill-opacity="1"><g transform="translate(235.896485, 284.474336)"><g><path d="M 32.921875 -49.6875 L 49.765625 -38.78125 L 48.96875 -37.5625 C 47.75 -38.28125 46.492188 -38.597656 45.203125 -38.515625 C 43.910156 -38.441406 42.78125 -37.660156 41.8125 -36.171875 L 13.921875 7.265625 L 20.5625 11.5625 C 22.988281 13.125 25.613281 14.347656 28.4375 15.234375 C 31.269531 16.117188 34.144531 16.476562 37.0625 16.3125 C 39.976562 16.15625 42.769531 15.257812 45.4375 13.625 L 46.625 14.5 L 36.453125 23.59375 L 0.53125 0.34375 L 1.375 -0.96875 C 2.613281 -0.25 3.878906 0.09375 5.171875 0.0625 C 6.472656 0.03125 7.609375 -0.734375 8.578125 -2.234375 L 33.875 -41.3125 C 34.84375 -42.800781 35.082031 -44.160156 34.59375 -45.390625 C 34.113281 -46.617188 33.289062 -47.644531 32.125 -48.46875 Z M 32.921875 -49.6875 "/></g></g></g><g fill="#f3f4f0" fill-opacity="1"><g transform="translate(271.186544, 307.320096)"><g><path d="M 13.375 -16.4375 C 15.539062 -19.78125 18.144531 -22.476562 21.1875 -24.53125 C 24.238281 -26.582031 27.503906 -27.703125 30.984375 -27.890625 C 34.472656 -28.078125 37.96875 -27.039062 41.46875 -24.78125 C 44.5 -22.8125 46.640625 -20.453125 47.890625 -17.703125 C 49.140625 -14.953125 49.566406 -12.023438 49.171875 -8.921875 C 48.773438 -5.828125 47.628906 -2.816406 45.734375 0.109375 L 45.578125 0.34375 L 23.5625 -13.890625 L 22.859375 -12.8125 C 21.796875 -11.15625 20.898438 -9.316406 20.171875 -7.296875 C 19.453125 -5.285156 19.039062 -3.238281 18.9375 -1.15625 C 18.84375 0.925781 19.191406 2.898438 19.984375 4.765625 C 20.773438 6.628906 22.203125 8.234375 24.265625 9.578125 C 26.171875 10.804688 28.328125 11.5625 30.734375 11.84375 C 33.148438 12.125 35.421875 11.859375 37.546875 11.046875 L 37.953125 11.96875 C 34.484375 13.945312 31.171875 15.144531 28.015625 15.5625 C 24.867188 15.976562 21.460938 15 17.796875 12.625 C 14.242188 10.320312 11.789062 7.5625 10.4375 4.34375 C 9.09375 1.132812 8.695312 -2.28125 9.25 -5.90625 C 9.800781 -9.53125 11.175781 -13.039062 13.375 -16.4375 Z M 24.875 -15.578125 L 24.515625 -15.015625 L 38.109375 -6.21875 L 38.46875 -6.78125 C 39.019531 -7.738281 39.632812 -9 40.3125 -10.5625 C 41 -12.125 41.5625 -13.785156 42 -15.546875 C 42.4375 -17.304688 42.5625 -18.941406 42.375 -20.453125 C 42.195312 -21.960938 41.515625 -23.097656 40.328125 -23.859375 C 39.085938 -24.671875 37.722656 -24.859375 36.234375 -24.421875 C 34.753906 -23.992188 33.269531 -23.253906 31.78125 -22.203125 C 30.300781 -21.160156 28.957031 -20.007812 27.75 -18.75 C 26.539062 -17.488281 25.582031 -16.429688 24.875 -15.578125 Z M 24.875 -15.578125 "/></g></g></g><g fill="#f3f4f0" fill-opacity="1"><g transform="translate(300.993772, 326.616431)"><g><path d="M 22.84375 -36.28125 C 24.59375 -35.507812 26.59375 -35.164062 28.84375 -35.25 C 31.09375 -35.332031 33.320312 -35.695312 35.53125 -36.34375 C 37.738281 -36.988281 39.738281 -37.796875 41.53125 -38.765625 L 34.828125 -28.40625 L 42.015625 -23.75 L 41.21875 -22.515625 L 34.03125 -27.171875 L 16.234375 0.3125 C 15.597656 1.289062 15.222656 2.398438 15.109375 3.640625 C 15.003906 4.890625 15.597656 5.929688 16.890625 6.765625 C 17.554688 7.191406 18.273438 7.453125 19.046875 7.546875 C 19.828125 7.648438 20.5625 7.675781 21.25 7.625 L 21.40625 8.921875 C 19.457031 9.566406 17.578125 9.8125 15.765625 9.65625 C 13.960938 9.507812 12.1875 8.867188 10.4375 7.734375 C 8.0625 6.203125 6.675781 4.394531 6.28125 2.3125 C 5.882812 0.238281 6.453125 -1.984375 7.984375 -4.359375 L 26.09375 -32.3125 L 22 -34.96875 Z M 22.84375 -36.28125 "/></g></g></g><g fill="#f3f4f0" fill-opacity="1"><g transform="translate(316.360309, 336.564282)"><g><path d="M 29 -37.015625 L 28.21875 -38.828125 L 40.4375 -47.90625 L 48.078125 -42.953125 Z M 29 -37.015625 "/></g></g></g><g fill="#f3f4f0" fill-opacity="1"><g transform="translate(325.394564, 342.412796)"><g><path d="M 4.125 -2.8125 C 4.132812 -2.945312 4.144531 -3.046875 4.15625 -3.109375 C 4.164062 -3.179688 4.160156 -3.257812 4.140625 -3.34375 L 10.046875 -9.9375 L 10.8125 -9.4375 C 10.007812 -7.976562 9.570312 -6.320312 9.5 -4.46875 C 9.4375 -2.613281 9.679688 -0.757812 10.234375 1.09375 C 10.796875 2.945312 11.578125 4.65625 12.578125 6.21875 C 13.578125 7.789062 14.71875 8.992188 16 9.828125 C 16.820312 10.359375 17.820312 10.78125 19 11.09375 C 20.175781 11.414062 21.359375 11.453125 22.546875 11.203125 C 23.742188 10.953125 24.707031 10.257812 25.4375 9.125 C 26.207031 7.9375 26.515625 6.671875 26.359375 5.328125 C 26.203125 3.984375 25.832031 2.632812 25.25 1.28125 C 24.675781 -0.0703125 24.09375 -1.3125 23.5 -2.4375 C 23.15625 -3.15625 22.785156 -3.882812 22.390625 -4.625 C 21.992188 -5.363281 21.601562 -6.109375 21.21875 -6.859375 C 20.195312 -8.910156 19.289062 -10.957031 18.5 -13 C 17.707031 -15.050781 17.304688 -17.085938 17.296875 -19.109375 C 17.285156 -21.128906 17.878906 -23.066406 19.078125 -24.921875 C 20.679688 -27.390625 22.613281 -28.929688 24.875 -29.546875 C 27.132812 -30.160156 29.523438 -30.125 32.046875 -29.4375 C 34.566406 -28.757812 36.929688 -27.707031 39.140625 -26.28125 C 41.203125 -24.945312 42.984375 -23.296875 44.484375 -21.328125 C 45.992188 -19.367188 47.003906 -17.203125 47.515625 -14.828125 C 47.515625 -14.828125 47.566406 -14.535156 47.671875 -13.953125 C 47.773438 -13.378906 47.820312 -13.023438 47.8125 -12.890625 L 44.109375 -7.171875 L 43.015625 -7.875 C 43.296875 -9.65625 43.351562 -11.71875 43.1875 -14.0625 C 43.03125 -16.40625 42.515625 -18.625 41.640625 -20.71875 C 40.765625 -22.8125 39.476562 -24.410156 37.78125 -25.515625 C 36.332031 -26.453125 34.828125 -26.785156 33.265625 -26.515625 C 31.710938 -26.242188 30.453125 -25.359375 29.484375 -23.859375 C 28.179688 -21.847656 27.78125 -19.734375 28.28125 -17.515625 C 28.78125 -15.304688 29.5 -13.238281 30.4375 -11.3125 C 30.769531 -10.582031 31.144531 -9.863281 31.5625 -9.15625 C 31.976562 -8.445312 32.378906 -7.710938 32.765625 -6.953125 C 33.859375 -5.003906 34.804688 -3.070312 35.609375 -1.15625 C 36.410156 0.75 36.847656 2.601562 36.921875 4.40625 C 37.003906 6.207031 36.476562 7.984375 35.34375 9.734375 C 34.414062 11.171875 33.101562 12.289062 31.40625 13.09375 C 28.6875 14.488281 25.816406 14.8125 22.796875 14.0625 C 19.773438 13.3125 17.003906 12.117188 14.484375 10.484375 C 12.109375 8.941406 9.9375 7.039062 7.96875 4.78125 C 6 2.519531 4.71875 -0.0078125 4.125 -2.8125 Z M 4.125 -2.8125 "/></g></g></g><g fill="#f3f4f0" fill-opacity="1"><g transform="translate(351.031749, 359.009567)"><g/></g></g><g fill="#f3f4f0" fill-opacity="1"><g transform="translate(361.533242, 365.807929)"><g><path d="M 21.15625 -31.328125 L 35.234375 -27.5 L 33.078125 -24.171875 L 34.421875 -24.390625 C 36.535156 -24.710938 38.597656 -24.625 40.609375 -24.125 C 42.617188 -23.625 44.5 -22.804688 46.25 -21.671875 C 48.351562 -20.304688 50.144531 -18.648438 51.625 -16.703125 C 53.113281 -14.753906 53.6875 -12.507812 53.34375 -9.96875 L 53.25 -8.9375 L 54.234375 -9.28125 C 56.648438 -10.195312 59.101562 -10.429688 61.59375 -9.984375 C 64.082031 -9.546875 66.382812 -8.644531 68.5 -7.28125 C 71.84375 -5.113281 73.953125 -2.59375 74.828125 0.28125 C 75.703125 3.15625 75.007812 6.335938 72.75 9.828125 L 59.296875 30.609375 C 57.535156 33.335938 57.875 35.53125 60.3125 37.1875 L 59.46875 38.5 L 44.171875 28.59375 L 45.015625 27.28125 C 47.484375 28.800781 49.597656 28.195312 51.359375 25.46875 L 64.703125 4.859375 C 65.535156 3.566406 66.148438 2.128906 66.546875 0.546875 C 66.953125 -1.023438 66.953125 -2.539062 66.546875 -4 C 66.140625 -5.457031 65.132812 -6.703125 63.53125 -7.734375 C 62.144531 -8.640625 60.632812 -9.019531 59 -8.875 C 57.375 -8.726562 55.835938 -8.242188 54.390625 -7.421875 C 52.953125 -6.597656 51.816406 -5.546875 50.984375 -4.265625 L 37.53125 16.515625 C 35.769531 19.242188 36.101562 21.429688 38.53125 23.078125 L 37.6875 24.390625 L 22.40625 14.5 L 23.25 13.1875 C 24.625 14 25.796875 14.242188 26.765625 13.921875 C 27.734375 13.609375 28.664062 12.753906 29.5625 11.359375 L 42.90625 -9.25 C 44.375 -11.519531 45.179688 -13.773438 45.328125 -16.015625 C 45.472656 -18.265625 44.207031 -20.253906 41.53125 -21.984375 C 40.082031 -22.921875 38.546875 -23.289062 36.921875 -23.09375 C 35.304688 -22.90625 33.8125 -22.34375 32.4375 -21.40625 C 31.0625 -20.46875 29.972656 -19.378906 29.171875 -18.140625 L 15.828125 2.46875 C 14.066406 5.195312 14.375 7.367188 16.75 8.984375 L 15.90625 10.296875 L 0.609375 0.40625 L 1.453125 -0.90625 C 3.972656 0.632812 6.113281 0.0390625 7.875 -2.6875 L 21.21875 -23.296875 C 22.957031 -25.972656 22.632812 -28.1875 20.25 -29.9375 Z M 21.15625 -31.328125 "/></g></g></g><g fill="#f3f4f0" fill-opacity="1"><g transform="translate(417.055718, 401.751569)"><g><path d="M 12.828125 9.28125 C 10.660156 7.882812 8.925781 6.21875 7.625 4.28125 C 6.320312 2.34375 5.625 0.234375 5.53125 -2.046875 C 5.445312 -4.335938 6.140625 -6.617188 7.609375 -8.890625 C 9.347656 -11.566406 11.425781 -13.414062 13.84375 -14.4375 C 16.269531 -15.46875 18.84375 -15.773438 21.5625 -15.359375 C 24.289062 -14.941406 26.914062 -13.921875 29.4375 -12.296875 C 30.363281 -11.691406 31.234375 -11.03125 32.046875 -10.3125 C 32.867188 -9.601562 33.578125 -8.800781 34.171875 -7.90625 L 34.734375 -7.109375 L 38.390625 -12.75 C 38.890625 -13.519531 39.460938 -14.460938 40.109375 -15.578125 C 40.753906 -16.691406 41.171875 -17.664062 41.359375 -18.5 C 41.691406 -19.59375 41.742188 -20.671875 41.515625 -21.734375 C 41.285156 -22.796875 40.554688 -23.722656 39.328125 -24.515625 C 37.773438 -25.515625 36.328125 -25.828125 34.984375 -25.453125 C 33.648438 -25.078125 32.46875 -24.34375 31.4375 -23.25 C 30.414062 -22.164062 29.550781 -21.082031 28.84375 -20 C 28.3125 -19.175781 27.460938 -18.851562 26.296875 -19.03125 C 25.128906 -19.207031 24.082031 -19.59375 23.15625 -20.1875 C 22.28125 -20.757812 21.539062 -21.507812 20.9375 -22.4375 C 20.332031 -23.375 20.300781 -24.257812 20.84375 -25.09375 C 22.34375 -27.414062 24.21875 -28.789062 26.46875 -29.21875 C 28.726562 -29.65625 31.082031 -29.484375 33.53125 -28.703125 C 35.988281 -27.921875 38.222656 -26.878906 40.234375 -25.578125 C 43.992188 -23.140625 46.453125 -20.300781 47.609375 -17.0625 C 48.773438 -13.832031 48.101562 -10.285156 45.59375 -6.421875 L 32.953125 13.109375 C 32.847656 13.265625 32.753906 13.40625 32.671875 13.53125 C 32.585938 13.664062 32.5 13.8125 32.40625 13.96875 C 32.300781 14.125 32.203125 14.296875 32.109375 14.484375 C 32.023438 14.679688 31.953125 14.875 31.890625 15.0625 C 31.796875 15.4375 31.769531 15.835938 31.8125 16.265625 C 31.863281 16.703125 32.148438 17.085938 32.671875 17.421875 C 33.234375 17.785156 33.890625 17.957031 34.640625 17.9375 L 34.75 19.09375 C 33.3125 19.539062 31.867188 19.609375 30.421875 19.296875 C 28.972656 18.984375 27.582031 18.394531 26.25 17.53125 C 25.269531 16.894531 24.507812 16.109375 23.96875 15.171875 C 23.4375 14.242188 23.207031 13.226562 23.28125 12.125 L 23.375 11.296875 L 22.53125 11.390625 C 20.8125 11.828125 19.132812 11.828125 17.5 11.390625 C 15.875 10.953125 14.316406 10.25 12.828125 9.28125 Z M 15.75 -3.171875 C 14.988281 -1.984375 14.328125 -0.625 13.765625 0.90625 C 13.210938 2.445312 13.054688 3.953125 13.296875 5.421875 C 13.546875 6.898438 14.492188 8.171875 16.140625 9.234375 C 16.921875 9.734375 17.875 10.078125 19 10.265625 C 20.125 10.453125 21.226562 10.382812 22.3125 10.0625 C 23.394531 9.738281 24.234375 9.113281 24.828125 8.1875 L 34.03125 -6.015625 L 33.75 -6.421875 C 33.488281 -6.804688 33.15625 -7.164062 32.75 -7.5 C 32.351562 -7.84375 31.945312 -8.148438 31.53125 -8.421875 C 29.425781 -9.785156 27.382812 -10.351562 25.40625 -10.125 C 23.4375 -9.894531 21.625 -9.128906 19.96875 -7.828125 C 18.320312 -6.523438 16.914062 -4.972656 15.75 -3.171875 Z M 15.75 -3.171875 "/></g></g></g><g fill="#f3f4f0" fill-opacity="1"><g transform="translate(446.476829, 420.797943)"><g><path d="M 33.03125 -49.859375 L 47.046875 -45.9375 L 25.25 -12.265625 L 27.109375 -11.046875 L 38.875 -12.640625 C 39.53125 -12.734375 40.34375 -12.882812 41.3125 -13.09375 C 42.28125 -13.300781 43.226562 -13.613281 44.15625 -14.03125 C 45.09375 -14.457031 45.773438 -15.003906 46.203125 -15.671875 C 46.671875 -16.390625 46.816406 -17.0625 46.640625 -17.6875 C 46.460938 -18.3125 46.191406 -18.851562 45.828125 -19.3125 L 46.734375 -20.703125 L 59.15625 -12.65625 L 58.3125 -11.34375 C 57.101562 -11.976562 55.507812 -12.3125 53.53125 -12.34375 C 51.550781 -12.382812 49.539062 -12.300781 47.5 -12.09375 C 45.226562 -11.96875 43.015625 -11.738281 40.859375 -11.40625 C 38.710938 -11.082031 37.007812 -10.847656 35.75 -10.703125 L 35.125 -10.59375 L 36.3125 16.171875 C 36.414062 17.609375 36.648438 18.976562 37.015625 20.28125 C 37.378906 21.582031 38.164062 22.703125 39.375 23.640625 L 38.53125 24.953125 L 21.625 14 L 22.46875 12.6875 C 22.9375 12.988281 23.414062 13.148438 23.90625 13.171875 C 24.320312 13.222656 24.75 13.1875 25.1875 13.0625 C 25.625 12.945312 25.992188 12.660156 26.296875 12.203125 C 26.460938 11.929688 26.570312 11.648438 26.625 11.359375 C 26.675781 11.066406 26.710938 10.785156 26.734375 10.515625 C 26.765625 10.234375 26.765625 9.972656 26.734375 9.734375 C 26.703125 9.503906 26.703125 9.253906 26.734375 8.984375 L 25.765625 -10.171875 L 24.453125 -11.03125 L 15.75 2.40625 C 13.988281 5.132812 14.296875 7.3125 16.671875 8.9375 L 15.828125 10.25 L 0.53125 0.34375 L 1.375 -0.96875 C 3.894531 0.582031 6.035156 -0.00390625 7.796875 -2.734375 L 33.09375 -41.8125 C 34.832031 -44.488281 34.507812 -46.707031 32.125 -48.46875 Z M 33.03125 -49.859375 "/></g></g></g><g fill="#f3f4f0" fill-opacity="1"><g transform="translate(480.376876, 442.74385)"><g><path d="M 13.375 -16.4375 C 15.539062 -19.78125 18.144531 -22.476562 21.1875 -24.53125 C 24.238281 -26.582031 27.503906 -27.703125 30.984375 -27.890625 C 34.472656 -28.078125 37.96875 -27.039062 41.46875 -24.78125 C 44.5 -22.8125 46.640625 -20.453125 47.890625 -17.703125 C 49.140625 -14.953125 49.566406 -12.023438 49.171875 -8.921875 C 48.773438 -5.828125 47.628906 -2.816406 45.734375 0.109375 L 45.578125 0.34375 L 23.5625 -13.890625 L 22.859375 -12.8125 C 21.796875 -11.15625 20.898438 -9.316406 20.171875 -7.296875 C 19.453125 -5.285156 19.039062 -3.238281 18.9375 -1.15625 C 18.84375 0.925781 19.191406 2.898438 19.984375 4.765625 C 20.773438 6.628906 22.203125 8.234375 24.265625 9.578125 C 26.171875 10.804688 28.328125 11.5625 30.734375 11.84375 C 33.148438 12.125 35.421875 11.859375 37.546875 11.046875 L 37.953125 11.96875 C 34.484375 13.945312 31.171875 15.144531 28.015625 15.5625 C 24.867188 15.976562 21.460938 15 17.796875 12.625 C 14.242188 10.320312 11.789062 7.5625 10.4375 4.34375 C 9.09375 1.132812 8.695312 -2.28125 9.25 -5.90625 C 9.800781 -9.53125 11.175781 -13.039062 13.375 -16.4375 Z M 24.875 -15.578125 L 24.515625 -15.015625 L 38.109375 -6.21875 L 38.46875 -6.78125 C 39.019531 -7.738281 39.632812 -9 40.3125 -10.5625 C 41 -12.125 41.5625 -13.785156 42 -15.546875 C 42.4375 -17.304688 42.5625 -18.941406 42.375 -20.453125 C 42.195312 -21.960938 41.515625 -23.097656 40.328125 -23.859375 C 39.085938 -24.671875 37.722656 -24.859375 36.234375 -24.421875 C 34.753906 -23.992188 33.269531 -23.253906 31.78125 -22.203125 C 30.300781 -21.160156 28.957031 -20.007812 27.75 -18.75 C 26.539062 -17.488281 25.582031 -16.429688 24.875 -15.578125 Z M 24.875 -15.578125 "/></g></g></g><g fill="#f3f4f0" fill-opacity="1"><g transform="translate(118.514193, 308.549883)"><g><path d="M 4.125 -2.8125 C 4.132812 -2.945312 4.144531 -3.046875 4.15625 -3.109375 C 4.164062 -3.179688 4.160156 -3.257812 4.140625 -3.34375 L 10.046875 -9.9375 L 10.8125 -9.4375 C 10.007812 -7.976562 9.570312 -6.320312 9.5 -4.46875 C 9.4375 -2.613281 9.679688 -0.757812 10.234375 1.09375 C 10.796875 2.945312 11.578125 4.65625 12.578125 6.21875 C 13.578125 7.789062 14.71875 8.992188 16 9.828125 C 16.820312 10.359375 17.820312 10.78125 19 11.09375 C 20.175781 11.414062 21.359375 11.453125 22.546875 11.203125 C 23.742188 10.953125 24.707031 10.257812 25.4375 9.125 C 26.207031 7.9375 26.515625 6.671875 26.359375 5.328125 C 26.203125 3.984375 25.832031 2.632812 25.25 1.28125 C 24.675781 -0.0703125 24.09375 -1.3125 23.5 -2.4375 C 23.15625 -3.15625 22.785156 -3.882812 22.390625 -4.625 C 21.992188 -5.363281 21.601562 -6.109375 21.21875 -6.859375 C 20.195312 -8.910156 19.289062 -10.957031 18.5 -13 C 17.707031 -15.050781 17.304688 -17.085938 17.296875 -19.109375 C 17.285156 -21.128906 17.878906 -23.066406 19.078125 -24.921875 C 20.679688 -27.390625 22.613281 -28.929688 24.875 -29.546875 C 27.132812 -30.160156 29.523438 -30.125 32.046875 -29.4375 C 34.566406 -28.757812 36.929688 -27.707031 39.140625 -26.28125 C 41.203125 -24.945312 42.984375 -23.296875 44.484375 -21.328125 C 45.992188 -19.367188 47.003906 -17.203125 47.515625 -14.828125 C 47.515625 -14.828125 47.566406 -14.535156 47.671875 -13.953125 C 47.773438 -13.378906 47.820312 -13.023438 47.8125 -12.890625 L 44.109375 -7.171875 L 43.015625 -7.875 C 43.296875 -9.65625 43.351562 -11.71875 43.1875 -14.0625 C 43.03125 -16.40625 42.515625 -18.625 41.640625 -20.71875 C 40.765625 -22.8125 39.476562 -24.410156 37.78125 -25.515625 C 36.332031 -26.453125 34.828125 -26.785156 33.265625 -26.515625 C 31.710938 -26.242188 30.453125 -25.359375 29.484375 -23.859375 C 28.179688 -21.847656 27.78125 -19.734375 28.28125 -17.515625 C 28.78125 -15.304688 29.5 -13.238281 30.4375 -11.3125 C 30.769531 -10.582031 31.144531 -9.863281 31.5625 -9.15625 C 31.976562 -8.445312 32.378906 -7.710938 32.765625 -6.953125 C 33.859375 -5.003906 34.804688 -3.070312 35.609375 -1.15625 C 36.410156 0.75 36.847656 2.601562 36.921875 4.40625 C 37.003906 6.207031 36.476562 7.984375 35.34375 9.734375 C 34.414062 11.171875 33.101562 12.289062 31.40625 13.09375 C 28.6875 14.488281 25.816406 14.8125 22.796875 14.0625 C 19.773438 13.3125 17.003906 12.117188 14.484375 10.484375 C 12.109375 8.941406 9.9375 7.039062 7.96875 4.78125 C 6 2.519531 4.71875 -0.0078125 4.125 -2.8125 Z M 4.125 -2.8125 "/></g></g></g><g fill="#f3f4f0" fill-opacity="1"><g transform="translate(144.151381, 325.146655)"><g><path d="M 17.875 12.671875 C 14.164062 10.273438 11.613281 7.472656 10.21875 4.265625 C 8.832031 1.054688 8.445312 -2.351562 9.0625 -5.96875 C 9.6875 -9.582031 11.164062 -13.191406 13.5 -16.796875 C 15.820312 -20.398438 18.484375 -23.1875 21.484375 -25.15625 C 24.484375 -27.125 27.710938 -28.101562 31.171875 -28.09375 C 34.628906 -28.082031 38.210938 -26.878906 41.921875 -24.484375 C 47.535156 -20.847656 50.609375 -16.445312 51.140625 -11.28125 C 51.671875 -6.125 50.171875 -0.816406 46.640625 4.640625 C 44.304688 8.242188 41.617188 11.070312 38.578125 13.125 C 35.535156 15.175781 32.265625 16.222656 28.765625 16.265625 C 25.265625 16.304688 21.632812 15.109375 17.875 12.671875 Z M 21.921875 -11.34375 C 21.046875 -10 20.046875 -8.285156 18.921875 -6.203125 C 17.796875 -4.117188 16.859375 -1.9375 16.109375 0.34375 C 15.359375 2.632812 15.109375 4.789062 15.359375 6.8125 C 15.617188 8.84375 16.675781 10.457031 18.53125 11.65625 C 20.4375 12.894531 22.351562 13.207031 24.28125 12.59375 C 26.207031 11.976562 28.070312 10.867188 29.875 9.265625 C 31.6875 7.660156 33.3125 5.914062 34.75 4.03125 C 36.1875 2.144531 37.34375 0.53125 38.21875 -0.8125 C 39.113281 -2.195312 40.125 -3.890625 41.25 -5.890625 C 42.375 -7.898438 43.28125 -10.035156 43.96875 -12.296875 C 44.65625 -14.554688 44.867188 -16.664062 44.609375 -18.625 C 44.347656 -20.59375 43.238281 -22.210938 41.28125 -23.484375 C 39.375 -24.710938 37.472656 -25.039062 35.578125 -24.46875 C 33.679688 -23.90625 31.859375 -22.835938 30.109375 -21.265625 C 28.359375 -19.691406 26.769531 -17.976562 25.34375 -16.125 C 23.925781 -14.269531 22.785156 -12.675781 21.921875 -11.34375 Z M 21.921875 -11.34375 "/></g></g></g><g fill="#f3f4f0" fill-opacity="1"><g transform="translate(176.043629, 345.792771)"><g><path d="M 21.15625 -31.328125 L 35.234375 -27.5 L 33.078125 -24.171875 L 34.421875 -24.390625 C 36.535156 -24.710938 38.597656 -24.625 40.609375 -24.125 C 42.617188 -23.625 44.5 -22.804688 46.25 -21.671875 C 48.351562 -20.304688 50.144531 -18.648438 51.625 -16.703125 C 53.113281 -14.753906 53.6875 -12.507812 53.34375 -9.96875 L 53.25 -8.9375 L 54.234375 -9.28125 C 56.648438 -10.195312 59.101562 -10.429688 61.59375 -9.984375 C 64.082031 -9.546875 66.382812 -8.644531 68.5 -7.28125 C 71.84375 -5.113281 73.953125 -2.59375 74.828125 0.28125 C 75.703125 3.15625 75.007812 6.335938 72.75 9.828125 L 59.296875 30.609375 C 57.535156 33.335938 57.875 35.53125 60.3125 37.1875 L 59.46875 38.5 L 44.171875 28.59375 L 45.015625 27.28125 C 47.484375 28.800781 49.597656 28.195312 51.359375 25.46875 L 64.703125 4.859375 C 65.535156 3.566406 66.148438 2.128906 66.546875 0.546875 C 66.953125 -1.023438 66.953125 -2.539062 66.546875 -4 C 66.140625 -5.457031 65.132812 -6.703125 63.53125 -7.734375 C 62.144531 -8.640625 60.632812 -9.019531 59 -8.875 C 57.375 -8.726562 55.835938 -8.242188 54.390625 -7.421875 C 52.953125 -6.597656 51.816406 -5.546875 50.984375 -4.265625 L 37.53125 16.515625 C 35.769531 19.242188 36.101562 21.429688 38.53125 23.078125 L 37.6875 24.390625 L 22.40625 14.5 L 23.25 13.1875 C 24.625 14 25.796875 14.242188 26.765625 13.921875 C 27.734375 13.609375 28.664062 12.753906 29.5625 11.359375 L 42.90625 -9.25 C 44.375 -11.519531 45.179688 -13.773438 45.328125 -16.015625 C 45.472656 -18.265625 44.207031 -20.253906 41.53125 -21.984375 C 40.082031 -22.921875 38.546875 -23.289062 36.921875 -23.09375 C 35.304688 -22.90625 33.8125 -22.34375 32.4375 -21.40625 C 31.0625 -20.46875 29.972656 -19.378906 29.171875 -18.140625 L 15.828125 2.46875 C 14.066406 5.195312 14.375 7.367188 16.75 8.984375 L 15.90625 10.296875 L 0.609375 0.40625 L 1.453125 -0.90625 C 3.972656 0.632812 6.113281 0.0390625 7.875 -2.6875 L 21.21875 -23.296875 C 22.957031 -25.972656 22.632812 -28.1875 20.25 -29.9375 Z M 21.15625 -31.328125 "/></g></g></g><g fill="#f3f4f0" fill-opacity="1"><g transform="translate(231.566109, 381.736415)"><g><path d="M 13.375 -16.4375 C 15.539062 -19.78125 18.144531 -22.476562 21.1875 -24.53125 C 24.238281 -26.582031 27.503906 -27.703125 30.984375 -27.890625 C 34.472656 -28.078125 37.96875 -27.039062 41.46875 -24.78125 C 44.5 -22.8125 46.640625 -20.453125 47.890625 -17.703125 C 49.140625 -14.953125 49.566406 -12.023438 49.171875 -8.921875 C 48.773438 -5.828125 47.628906 -2.816406 45.734375 0.109375 L 45.578125 0.34375 L 23.5625 -13.890625 L 22.859375 -12.8125 C 21.796875 -11.15625 20.898438 -9.316406 20.171875 -7.296875 C 19.453125 -5.285156 19.039062 -3.238281 18.9375 -1.15625 C 18.84375 0.925781 19.191406 2.898438 19.984375 4.765625 C 20.773438 6.628906 22.203125 8.234375 24.265625 9.578125 C 26.171875 10.804688 28.328125 11.5625 30.734375 11.84375 C 33.148438 12.125 35.421875 11.859375 37.546875 11.046875 L 37.953125 11.96875 C 34.484375 13.945312 31.171875 15.144531 28.015625 15.5625 C 24.867188 15.976562 21.460938 15 17.796875 12.625 C 14.242188 10.320312 11.789062 7.5625 10.4375 4.34375 C 9.09375 1.132812 8.695312 -2.28125 9.25 -5.90625 C 9.800781 -9.53125 11.175781 -13.039062 13.375 -16.4375 Z M 24.875 -15.578125 L 24.515625 -15.015625 L 38.109375 -6.21875 L 38.46875 -6.78125 C 39.019531 -7.738281 39.632812 -9 40.3125 -10.5625 C 41 -12.125 41.5625 -13.785156 42 -15.546875 C 42.4375 -17.304688 42.5625 -18.941406 42.375 -20.453125 C 42.195312 -21.960938 41.515625 -23.097656 40.328125 -23.859375 C 39.085938 -24.671875 37.722656 -24.859375 36.234375 -24.421875 C 34.753906 -23.992188 33.269531 -23.253906 31.78125 -22.203125 C 30.300781 -21.160156 28.957031 -20.007812 27.75 -18.75 C 26.539062 -17.488281 25.582031 -16.429688 24.875 -15.578125 Z M 24.875 -15.578125 "/></g></g></g><g fill="#f3f4f0" fill-opacity="1"><g transform="translate(261.373335, 401.032748)"><g><path d="M 22.84375 -36.28125 C 24.59375 -35.507812 26.59375 -35.164062 28.84375 -35.25 C 31.09375 -35.332031 33.320312 -35.695312 35.53125 -36.34375 C 37.738281 -36.988281 39.738281 -37.796875 41.53125 -38.765625 L 34.828125 -28.40625 L 42.015625 -23.75 L 41.21875 -22.515625 L 34.03125 -27.171875 L 16.234375 0.3125 C 15.597656 1.289062 15.222656 2.398438 15.109375 3.640625 C 15.003906 4.890625 15.597656 5.929688 16.890625 6.765625 C 17.554688 7.191406 18.273438 7.453125 19.046875 7.546875 C 19.828125 7.648438 20.5625 7.675781 21.25 7.625 L 21.40625 8.921875 C 19.457031 9.566406 17.578125 9.8125 15.765625 9.65625 C 13.960938 9.507812 12.1875 8.867188 10.4375 7.734375 C 8.0625 6.203125 6.675781 4.394531 6.28125 2.3125 C 5.882812 0.238281 6.453125 -1.984375 7.984375 -4.359375 L 26.09375 -32.3125 L 22 -34.96875 Z M 22.84375 -36.28125 "/></g></g></g><g fill="#f3f4f0" fill-opacity="1"><g transform="translate(276.739869, 410.980596)"><g><path d="M 32.875 -49.953125 L 46.890625 -46.03125 L 32.640625 -24.015625 L 34.125 -24.28125 C 36.25 -24.726562 38.347656 -24.695312 40.421875 -24.1875 C 42.503906 -23.675781 44.421875 -22.859375 46.171875 -21.734375 C 49.578125 -19.523438 51.9375 -16.894531 53.25 -13.84375 C 54.5625 -10.800781 54.035156 -7.457031 51.671875 -3.8125 L 38.21875 16.96875 C 36.457031 19.695312 36.765625 21.867188 39.140625 23.484375 L 38.296875 24.796875 L 23.015625 14.90625 L 23.859375 13.59375 C 26.367188 15.132812 28.503906 14.539062 30.265625 11.8125 L 43.71875 -8.96875 C 45.25 -11.332031 45.992188 -13.660156 45.953125 -15.953125 C 45.910156 -18.242188 44.550781 -20.257812 41.875 -22 C 40.375 -22.957031 38.789062 -23.390625 37.125 -23.296875 C 35.457031 -23.210938 33.914062 -22.734375 32.5 -21.859375 C 31.09375 -20.984375 29.941406 -19.851562 29.046875 -18.46875 L 15.59375 2.3125 C 13.832031 5.039062 14.140625 7.210938 16.515625 8.828125 L 15.671875 10.140625 L 0.375 0.25 L 1.21875 -1.0625 C 3.738281 0.488281 5.878906 -0.0976562 7.640625 -2.828125 L 32.9375 -41.90625 C 34.675781 -44.582031 34.351562 -46.800781 31.96875 -48.5625 Z M 32.875 -49.953125 "/></g></g></g><g fill="#f3f4f0" fill-opacity="1"><g transform="translate(310.408259, 432.776535)"><g><path d="M 21.40625 -31.1875 L 35.46875 -27.359375 L 16.0625 2.609375 C 14.300781 5.335938 14.609375 7.515625 16.984375 9.140625 L 16.140625 10.453125 L 0.859375 0.546875 L 1.703125 -0.765625 C 4.203125 0.785156 6.332031 0.195312 8.09375 -2.53125 L 21.4375 -23.140625 C 23.175781 -25.816406 22.863281 -28.035156 20.5 -29.796875 Z M 30.921875 -43.546875 C 31.847656 -44.984375 33.160156 -45.878906 34.859375 -46.234375 C 36.566406 -46.597656 38.140625 -46.3125 39.578125 -45.375 C 41.015625 -44.445312 41.925781 -43.128906 42.3125 -41.421875 C 42.707031 -39.710938 42.441406 -38.140625 41.515625 -36.703125 C 40.578125 -35.253906 39.21875 -34.335938 37.4375 -33.953125 C 35.65625 -33.578125 34.070312 -33.835938 32.6875 -34.734375 C 31.25 -35.671875 30.359375 -37.007812 30.015625 -38.75 C 29.679688 -40.5 29.984375 -42.097656 30.921875 -43.546875 Z M 30.921875 -43.546875 "/></g></g></g><g fill="#f3f4f0" fill-opacity="1"><g transform="translate(322.454219, 440.574741)"><g><path d="M 21.15625 -31.328125 L 35.234375 -27.5 L 32.171875 -22.78125 L 34 -23.578125 C 36.257812 -24.453125 38.476562 -24.601562 40.65625 -24.03125 C 42.84375 -23.46875 44.890625 -22.566406 46.796875 -21.328125 C 50.140625 -19.160156 52.335938 -16.578125 53.390625 -13.578125 C 54.453125 -10.585938 53.851562 -7.347656 51.59375 -3.859375 L 38.140625 16.921875 C 37.242188 18.316406 36.863281 19.53125 37 20.5625 C 37.132812 21.59375 37.828125 22.550781 39.078125 23.4375 L 38.234375 24.75 L 22.9375 14.84375 L 23.78125 13.53125 C 26.289062 15.082031 28.425781 14.492188 30.1875 11.765625 L 43.53125 -8.84375 C 44.40625 -10.1875 45.003906 -11.648438 45.328125 -13.234375 C 45.660156 -14.816406 45.613281 -16.34375 45.1875 -17.8125 C 44.757812 -19.289062 43.742188 -20.550781 42.140625 -21.59375 C 40.804688 -22.457031 39.273438 -22.828125 37.546875 -22.703125 C 35.816406 -22.578125 34.1875 -22.09375 32.65625 -21.25 C 31.132812 -20.414062 29.972656 -19.378906 29.171875 -18.140625 L 15.828125 2.46875 C 14.066406 5.195312 14.375 7.367188 16.75 8.984375 L 15.90625 10.296875 L 0.609375 0.40625 L 1.453125 -0.90625 C 3.972656 0.632812 6.113281 0.0390625 7.875 -2.6875 L 21.21875 -23.296875 C 22.957031 -25.972656 22.632812 -28.1875 20.25 -29.9375 Z M 21.15625 -31.328125 "/></g></g></g><g fill="#f3f4f0" fill-opacity="1"><g transform="translate(356.277046, 462.470658)"><g><path d="M -8.265625 11.40625 C -7.359375 10.019531 -6.175781 9.066406 -4.71875 8.546875 C -3.257812 8.035156 -1.679688 7.851562 0.015625 8 C 1.710938 8.144531 3.285156 8.507812 4.734375 9.09375 L 6.921875 9.953125 L 5.515625 8.0625 C 4.222656 6.351562 3.394531 4.613281 3.03125 2.84375 C 2.675781 1.070312 3.097656 -0.738281 4.296875 -2.59375 C 5.160156 -3.925781 6.375 -4.8125 7.9375 -5.25 C 9.507812 -5.695312 11.03125 -5.703125 12.5 -5.265625 L 13.625 -4.984375 L 13.34375 -6.046875 C 12.675781 -8.523438 12.597656 -11.003906 13.109375 -13.484375 C 13.617188 -15.960938 14.570312 -18.285156 15.96875 -20.453125 C 17.90625 -23.441406 20.210938 -25.617188 22.890625 -26.984375 C 25.578125 -28.359375 28.441406 -28.914062 31.484375 -28.65625 C 34.535156 -28.40625 37.503906 -27.34375 40.390625 -25.46875 C 42.648438 -24 44.5625 -22.21875 46.125 -20.125 L 46.609375 -19.359375 L 47.109375 -20.125 C 48.304688 -21.625 49.695312 -22.953125 51.28125 -24.109375 C 52.863281 -25.273438 54.554688 -26.003906 56.359375 -26.296875 C 58.171875 -26.597656 59.90625 -26.210938 61.5625 -25.140625 C 62.738281 -24.378906 63.457031 -23.414062 63.71875 -22.25 C 63.988281 -21.09375 63.738281 -19.921875 62.96875 -18.734375 C 62.269531 -17.648438 61.359375 -16.941406 60.234375 -16.609375 C 59.117188 -16.285156 58.019531 -16.476562 56.9375 -17.1875 C 56.738281 -17.3125 56.53125 -17.460938 56.3125 -17.640625 C 56.09375 -17.816406 55.851562 -17.988281 55.59375 -18.15625 C 54.300781 -18.988281 52.984375 -19.328125 51.640625 -19.171875 C 50.304688 -19.015625 49.070312 -18.457031 47.9375 -17.5 L 47.53125 -17.234375 L 47.6875 -16.796875 C 48.738281 -14.128906 49.023438 -11.472656 48.546875 -8.828125 C 48.078125 -6.179688 47.078125 -3.675781 45.546875 -1.3125 C 42.609375 3.21875 38.953125 5.960938 34.578125 6.921875 C 30.203125 7.890625 25.773438 6.925781 21.296875 4.03125 C 19.796875 3.0625 18.425781 1.921875 17.1875 0.609375 C 15.945312 -0.703125 14.941406 -2.160156 14.171875 -3.765625 L 14.03125 -4.0625 L 13.671875 -4.1875 C 13.128906 -4.238281 12.519531 -4.171875 11.84375 -3.984375 C 11.175781 -3.804688 10.640625 -3.410156 10.234375 -2.796875 C 9.929688 -2.328125 9.800781 -1.84375 9.84375 -1.34375 C 9.894531 -0.84375 10.015625 -0.34375 10.203125 0.15625 C 10.398438 0.632812 10.671875 1.113281 11.015625 1.59375 C 11.367188 2.070312 11.726562 2.546875 12.09375 3.015625 C 12.90625 3.898438 13.742188 4.710938 14.609375 5.453125 C 15.472656 6.203125 16.101562 6.773438 16.5 7.171875 C 17.15625 7.734375 17.8125 8.300781 18.46875 8.875 C 19.125 9.457031 19.78125 10.035156 20.4375 10.609375 C 21.738281 11.734375 23.035156 12.988281 24.328125 14.375 C 25.617188 15.769531 26.703125 17.253906 27.578125 18.828125 C 28.453125 20.410156 28.929688 22.070312 29.015625 23.8125 C 29.097656 25.550781 28.554688 27.320312 27.390625 29.125 C 26.492188 30.507812 25.28125 31.625 23.75 32.46875 C 22.226562 33.3125 20.628906 33.890625 18.953125 34.203125 C 16.953125 34.578125 14.84375 34.523438 12.625 34.046875 C 10.414062 33.566406 8.273438 32.835938 6.203125 31.859375 C 4.140625 30.890625 2.234375 29.835938 0.484375 28.703125 C -0.859375 27.828125 -2.253906 26.738281 -3.703125 25.4375 C -5.160156 24.132812 -6.421875 22.695312 -7.484375 21.125 C -8.546875 19.5625 -9.195312 17.945312 -9.4375 16.28125 C -9.6875 14.625 -9.296875 13 -8.265625 11.40625 Z M 39.6875 -24.71875 C 38.132812 -25.71875 36.609375 -25.988281 35.109375 -25.53125 C 33.609375 -25.082031 32.171875 -24.222656 30.796875 -22.953125 C 29.429688 -21.679688 28.207031 -20.300781 27.125 -18.8125 C 26.050781 -17.320312 25.164062 -16.035156 24.46875 -14.953125 C 23.769531 -13.867188 22.960938 -12.507812 22.046875 -10.875 C 21.140625 -9.238281 20.382812 -7.535156 19.78125 -5.765625 C 19.1875 -3.992188 18.992188 -2.304688 19.203125 -0.703125 C 19.410156 0.890625 20.289062 2.1875 21.84375 3.1875 C 23.382812 4.175781 24.910156 4.429688 26.421875 3.953125 C 27.941406 3.472656 29.382812 2.597656 30.75 1.328125 C 32.125 0.0546875 33.359375 -1.332031 34.453125 -2.84375 C 35.546875 -4.363281 36.441406 -5.664062 37.140625 -6.75 C 37.835938 -7.832031 38.640625 -9.191406 39.546875 -10.828125 C 40.460938 -12.460938 41.210938 -14.148438 41.796875 -15.890625 C 42.378906 -17.640625 42.554688 -19.296875 42.328125 -20.859375 C 42.109375 -22.429688 41.226562 -23.71875 39.6875 -24.71875 Z M 7.9375 11.28125 C 5.976562 10.8125 4.023438 10.914062 2.078125 11.59375 C 0.140625 12.269531 -1.410156 13.507812 -2.578125 15.3125 C -3.710938 17.0625 -4.082031 18.757812 -3.6875 20.40625 C -3.289062 22.050781 -2.503906 23.546875 -1.328125 24.890625 C -0.148438 26.242188 1.078125 27.335938 2.359375 28.171875 C 3.859375 29.128906 5.519531 29.832031 7.34375 30.28125 C 9.164062 30.738281 10.945312 30.726562 12.6875 30.25 C 14.425781 29.769531 15.894531 28.601562 17.09375 26.75 C 17.832031 25.613281 18.097656 24.5 17.890625 23.40625 C 17.679688 22.320312 17.234375 21.265625 16.546875 20.234375 C 15.859375 19.203125 15.117188 18.289062 14.328125 17.5 C 13.921875 17.09375 13.546875 16.703125 13.203125 16.328125 C 12.859375 15.960938 12.523438 15.632812 12.203125 15.34375 C 11.578125 14.738281 10.925781 14.101562 10.25 13.4375 C 9.582031 12.769531 8.929688 12.09375 8.296875 11.40625 L 8.140625 11.296875 Z M 7.9375 11.28125 "/></g></g></g><g fill="#f3f4f0" fill-opacity="1"><g transform="translate(385.157605, 481.167094)"><g/></g></g><g fill="#f3f4f0" fill-opacity="1"><g transform="translate(395.659108, 487.965463)"><g><path d="M -8.265625 11.40625 C -7.359375 10.019531 -6.175781 9.066406 -4.71875 8.546875 C -3.257812 8.035156 -1.679688 7.851562 0.015625 8 C 1.710938 8.144531 3.285156 8.507812 4.734375 9.09375 L 6.921875 9.953125 L 5.515625 8.0625 C 4.222656 6.351562 3.394531 4.613281 3.03125 2.84375 C 2.675781 1.070312 3.097656 -0.738281 4.296875 -2.59375 C 5.160156 -3.925781 6.375 -4.8125 7.9375 -5.25 C 9.507812 -5.695312 11.03125 -5.703125 12.5 -5.265625 L 13.625 -4.984375 L 13.34375 -6.046875 C 12.675781 -8.523438 12.597656 -11.003906 13.109375 -13.484375 C 13.617188 -15.960938 14.570312 -18.285156 15.96875 -20.453125 C 17.90625 -23.441406 20.210938 -25.617188 22.890625 -26.984375 C 25.578125 -28.359375 28.441406 -28.914062 31.484375 -28.65625 C 34.535156 -28.40625 37.503906 -27.34375 40.390625 -25.46875 C 42.648438 -24 44.5625 -22.21875 46.125 -20.125 L 46.609375 -19.359375 L 47.109375 -20.125 C 48.304688 -21.625 49.695312 -22.953125 51.28125 -24.109375 C 52.863281 -25.273438 54.554688 -26.003906 56.359375 -26.296875 C 58.171875 -26.597656 59.90625 -26.210938 61.5625 -25.140625 C 62.738281 -24.378906 63.457031 -23.414062 63.71875 -22.25 C 63.988281 -21.09375 63.738281 -19.921875 62.96875 -18.734375 C 62.269531 -17.648438 61.359375 -16.941406 60.234375 -16.609375 C 59.117188 -16.285156 58.019531 -16.476562 56.9375 -17.1875 C 56.738281 -17.3125 56.53125 -17.460938 56.3125 -17.640625 C 56.09375 -17.816406 55.851562 -17.988281 55.59375 -18.15625 C 54.300781 -18.988281 52.984375 -19.328125 51.640625 -19.171875 C 50.304688 -19.015625 49.070312 -18.457031 47.9375 -17.5 L 47.53125 -17.234375 L 47.6875 -16.796875 C 48.738281 -14.128906 49.023438 -11.472656 48.546875 -8.828125 C 48.078125 -6.179688 47.078125 -3.675781 45.546875 -1.3125 C 42.609375 3.21875 38.953125 5.960938 34.578125 6.921875 C 30.203125 7.890625 25.773438 6.925781 21.296875 4.03125 C 19.796875 3.0625 18.425781 1.921875 17.1875 0.609375 C 15.945312 -0.703125 14.941406 -2.160156 14.171875 -3.765625 L 14.03125 -4.0625 L 13.671875 -4.1875 C 13.128906 -4.238281 12.519531 -4.171875 11.84375 -3.984375 C 11.175781 -3.804688 10.640625 -3.410156 10.234375 -2.796875 C 9.929688 -2.328125 9.800781 -1.84375 9.84375 -1.34375 C 9.894531 -0.84375 10.015625 -0.34375 10.203125 0.15625 C 10.398438 0.632812 10.671875 1.113281 11.015625 1.59375 C 11.367188 2.070312 11.726562 2.546875 12.09375 3.015625 C 12.90625 3.898438 13.742188 4.710938 14.609375 5.453125 C 15.472656 6.203125 16.101562 6.773438 16.5 7.171875 C 17.15625 7.734375 17.8125 8.300781 18.46875 8.875 C 19.125 9.457031 19.78125 10.035156 20.4375 10.609375 C 21.738281 11.734375 23.035156 12.988281 24.328125 14.375 C 25.617188 15.769531 26.703125 17.253906 27.578125 18.828125 C 28.453125 20.410156 28.929688 22.070312 29.015625 23.8125 C 29.097656 25.550781 28.554688 27.320312 27.390625 29.125 C 26.492188 30.507812 25.28125 31.625 23.75 32.46875 C 22.226562 33.3125 20.628906 33.890625 18.953125 34.203125 C 16.953125 34.578125 14.84375 34.523438 12.625 34.046875 C 10.414062 33.566406 8.273438 32.835938 6.203125 31.859375 C 4.140625 30.890625 2.234375 29.835938 0.484375 28.703125 C -0.859375 27.828125 -2.253906 26.738281 -3.703125 25.4375 C -5.160156 24.132812 -6.421875 22.695312 -7.484375 21.125 C -8.546875 19.5625 -9.195312 17.945312 -9.4375 16.28125 C -9.6875 14.625 -9.296875 13 -8.265625 11.40625 Z M 39.6875 -24.71875 C 38.132812 -25.71875 36.609375 -25.988281 35.109375 -25.53125 C 33.609375 -25.082031 32.171875 -24.222656 30.796875 -22.953125 C 29.429688 -21.679688 28.207031 -20.300781 27.125 -18.8125 C 26.050781 -17.320312 25.164062 -16.035156 24.46875 -14.953125 C 23.769531 -13.867188 22.960938 -12.507812 22.046875 -10.875 C 21.140625 -9.238281 20.382812 -7.535156 19.78125 -5.765625 C 19.1875 -3.992188 18.992188 -2.304688 19.203125 -0.703125 C 19.410156 0.890625 20.289062 2.1875 21.84375 3.1875 C 23.382812 4.175781 24.910156 4.429688 26.421875 3.953125 C 27.941406 3.472656 29.382812 2.597656 30.75 1.328125 C 32.125 0.0546875 33.359375 -1.332031 34.453125 -2.84375 C 35.546875 -4.363281 36.441406 -5.664062 37.140625 -6.75 C 37.835938 -7.832031 38.640625 -9.191406 39.546875 -10.828125 C 40.460938 -12.460938 41.210938 -14.148438 41.796875 -15.890625 C 42.378906 -17.640625 42.554688 -19.296875 42.328125 -20.859375 C 42.109375 -22.429688 41.226562 -23.71875 39.6875 -24.71875 Z M 7.9375 11.28125 C 5.976562 10.8125 4.023438 10.914062 2.078125 11.59375 C 0.140625 12.269531 -1.410156 13.507812 -2.578125 15.3125 C -3.710938 17.0625 -4.082031 18.757812 -3.6875 20.40625 C -3.289062 22.050781 -2.503906 23.546875 -1.328125 24.890625 C -0.148438 26.242188 1.078125 27.335938 2.359375 28.171875 C 3.859375 29.128906 5.519531 29.832031 7.34375 30.28125 C 9.164062 30.738281 10.945312 30.726562 12.6875 30.25 C 14.425781 29.769531 15.894531 28.601562 17.09375 26.75 C 17.832031 25.613281 18.097656 24.5 17.890625 23.40625 C 17.679688 22.320312 17.234375 21.265625 16.546875 20.234375 C 15.859375 19.203125 15.117188 18.289062 14.328125 17.5 C 13.921875 17.09375 13.546875 16.703125 13.203125 16.328125 C 12.859375 15.960938 12.523438 15.632812 12.203125 15.34375 C 11.578125 14.738281 10.925781 14.101562 10.25 13.4375 C 9.582031 12.769531 8.929688 12.09375 8.296875 11.40625 L 8.140625 11.296875 Z M 7.9375 11.28125 "/></g></g></g><g fill="#f3f4f0" fill-opacity="1"><g transform="translate(424.539666, 506.661899)"><g><path d="M 21.484375 -31.125 L 35.546875 -27.296875 L 32 -21.8125 L 34.09375 -22.859375 C 36.101562 -23.828125 38.175781 -24.1875 40.3125 -23.9375 C 42.445312 -23.6875 44.46875 -22.941406 46.375 -21.703125 C 47.875 -20.734375 49.128906 -19.535156 50.140625 -18.109375 C 51.160156 -16.691406 51.617188 -15.0625 51.515625 -13.21875 C 51.515625 -12.632812 51.441406 -12.0625 51.296875 -11.5 C 51.148438 -10.9375 50.925781 -10.421875 50.625 -9.953125 C 49.957031 -8.929688 49.019531 -8.367188 47.8125 -8.265625 C 46.613281 -8.171875 45.503906 -8.453125 44.484375 -9.109375 C 43.921875 -9.484375 43.492188 -9.875 43.203125 -10.28125 C 42.921875 -10.6875 42.71875 -11.070312 42.59375 -11.4375 C 42.445312 -11.90625 42.34375 -12.375 42.28125 -12.84375 C 42.289062 -13.0625 42.273438 -13.3125 42.234375 -13.59375 C 42.191406 -13.882812 42.164062 -14.132812 42.15625 -14.34375 C 42.125 -15.40625 41.972656 -16.492188 41.703125 -17.609375 C 41.441406 -18.722656 40.59375 -19.75 39.15625 -20.6875 C 37.394531 -21.820312 35.601562 -22.046875 33.78125 -21.359375 C 31.957031 -20.679688 30.523438 -19.539062 29.484375 -17.9375 L 16.140625 2.671875 C 14.378906 5.398438 14.6875 7.570312 17.0625 9.1875 L 16.21875 10.5 L 0.9375 0.609375 L 1.78125 -0.703125 C 4.28125 0.835938 6.410156 0.242188 8.171875 -2.484375 L 21.515625 -23.09375 C 23.253906 -25.769531 22.941406 -27.984375 20.578125 -29.734375 Z M 21.484375 -31.125 "/></g></g></g><g fill="#f3f4f0" fill-opacity="1"><g transform="translate(451.335214, 524.008559)"><g><path d="M 13.375 -16.4375 C 15.539062 -19.78125 18.144531 -22.476562 21.1875 -24.53125 C 24.238281 -26.582031 27.503906 -27.703125 30.984375 -27.890625 C 34.472656 -28.078125 37.96875 -27.039062 41.46875 -24.78125 C 44.5 -22.8125 46.640625 -20.453125 47.890625 -17.703125 C 49.140625 -14.953125 49.566406 -12.023438 49.171875 -8.921875 C 48.773438 -5.828125 47.628906 -2.816406 45.734375 0.109375 L 45.578125 0.34375 L 23.5625 -13.890625 L 22.859375 -12.8125 C 21.796875 -11.15625 20.898438 -9.316406 20.171875 -7.296875 C 19.453125 -5.285156 19.039062 -3.238281 18.9375 -1.15625 C 18.84375 0.925781 19.191406 2.898438 19.984375 4.765625 C 20.773438 6.628906 22.203125 8.234375 24.265625 9.578125 C 26.171875 10.804688 28.328125 11.5625 30.734375 11.84375 C 33.148438 12.125 35.421875 11.859375 37.546875 11.046875 L 37.953125 11.96875 C 34.484375 13.945312 31.171875 15.144531 28.015625 15.5625 C 24.867188 15.976562 21.460938 15 17.796875 12.625 C 14.242188 10.320312 11.789062 7.5625 10.4375 4.34375 C 9.09375 1.132812 8.695312 -2.28125 9.25 -5.90625 C 9.800781 -9.53125 11.175781 -13.039062 13.375 -16.4375 Z M 24.875 -15.578125 L 24.515625 -15.015625 L 38.109375 -6.21875 L 38.46875 -6.78125 C 39.019531 -7.738281 39.632812 -9 40.3125 -10.5625 C 41 -12.125 41.5625 -13.785156 42 -15.546875 C 42.4375 -17.304688 42.5625 -18.941406 42.375 -20.453125 C 42.195312 -21.960938 41.515625 -23.097656 40.328125 -23.859375 C 39.085938 -24.671875 37.722656 -24.859375 36.234375 -24.421875 C 34.753906 -23.992188 33.269531 -23.253906 31.78125 -22.203125 C 30.300781 -21.160156 28.957031 -20.007812 27.75 -18.75 C 26.539062 -17.488281 25.582031 -16.429688 24.875 -15.578125 Z M 24.875 -15.578125 "/></g></g></g><g fill="#f3f4f0" fill-opacity="1"><g transform="translate(481.142459, 543.304905)"><g><path d="M 12.828125 9.28125 C 10.660156 7.882812 8.925781 6.21875 7.625 4.28125 C 6.320312 2.34375 5.625 0.234375 5.53125 -2.046875 C 5.445312 -4.335938 6.140625 -6.617188 7.609375 -8.890625 C 9.347656 -11.566406 11.425781 -13.414062 13.84375 -14.4375 C 16.269531 -15.46875 18.84375 -15.773438 21.5625 -15.359375 C 24.289062 -14.941406 26.914062 -13.921875 29.4375 -12.296875 C 30.363281 -11.691406 31.234375 -11.03125 32.046875 -10.3125 C 32.867188 -9.601562 33.578125 -8.800781 34.171875 -7.90625 L 34.734375 -7.109375 L 38.390625 -12.75 C 38.890625 -13.519531 39.460938 -14.460938 40.109375 -15.578125 C 40.753906 -16.691406 41.171875 -17.664062 41.359375 -18.5 C 41.691406 -19.59375 41.742188 -20.671875 41.515625 -21.734375 C 41.285156 -22.796875 40.554688 -23.722656 39.328125 -24.515625 C 37.773438 -25.515625 36.328125 -25.828125 34.984375 -25.453125 C 33.648438 -25.078125 32.46875 -24.34375 31.4375 -23.25 C 30.414062 -22.164062 29.550781 -21.082031 28.84375 -20 C 28.3125 -19.175781 27.460938 -18.851562 26.296875 -19.03125 C 25.128906 -19.207031 24.082031 -19.59375 23.15625 -20.1875 C 22.28125 -20.757812 21.539062 -21.507812 20.9375 -22.4375 C 20.332031 -23.375 20.300781 -24.257812 20.84375 -25.09375 C 22.34375 -27.414062 24.21875 -28.789062 26.46875 -29.21875 C 28.726562 -29.65625 31.082031 -29.484375 33.53125 -28.703125 C 35.988281 -27.921875 38.222656 -26.878906 40.234375 -25.578125 C 43.992188 -23.140625 46.453125 -20.300781 47.609375 -17.0625 C 48.773438 -13.832031 48.101562 -10.285156 45.59375 -6.421875 L 32.953125 13.109375 C 32.847656 13.265625 32.753906 13.40625 32.671875 13.53125 C 32.585938 13.664062 32.5 13.8125 32.40625 13.96875 C 32.300781 14.125 32.203125 14.296875 32.109375 14.484375 C 32.023438 14.679688 31.953125 14.875 31.890625 15.0625 C 31.796875 15.4375 31.769531 15.835938 31.8125 16.265625 C 31.863281 16.703125 32.148438 17.085938 32.671875 17.421875 C 33.234375 17.785156 33.890625 17.957031 34.640625 17.9375 L 34.75 19.09375 C 33.3125 19.539062 31.867188 19.609375 30.421875 19.296875 C 28.972656 18.984375 27.582031 18.394531 26.25 17.53125 C 25.269531 16.894531 24.507812 16.109375 23.96875 15.171875 C 23.4375 14.242188 23.207031 13.226562 23.28125 12.125 L 23.375 11.296875 L 22.53125 11.390625 C 20.8125 11.828125 19.132812 11.828125 17.5 11.390625 C 15.875 10.953125 14.316406 10.25 12.828125 9.28125 Z M 15.75 -3.171875 C 14.988281 -1.984375 14.328125 -0.625 13.765625 0.90625 C 13.210938 2.445312 13.054688 3.953125 13.296875 5.421875 C 13.546875 6.898438 14.492188 8.171875 16.140625 9.234375 C 16.921875 9.734375 17.875 10.078125 19 10.265625 C 20.125 10.453125 21.226562 10.382812 22.3125 10.0625 C 23.394531 9.738281 24.234375 9.113281 24.828125 8.1875 L 34.03125 -6.015625 L 33.75 -6.421875 C 33.488281 -6.804688 33.15625 -7.164062 32.75 -7.5 C 32.351562 -7.84375 31.945312 -8.148438 31.53125 -8.421875 C 29.425781 -9.785156 27.382812 -10.351562 25.40625 -10.125 C 23.4375 -9.894531 21.625 -9.128906 19.96875 -7.828125 C 18.320312 -6.523438 16.914062 -4.972656 15.75 -3.171875 Z M 15.75 -3.171875 "/></g></g></g><g fill="#f3f4f0" fill-opacity="1"><g transform="translate(510.56359, 562.351292)"><g><path d="M 22.84375 -36.28125 C 24.59375 -35.507812 26.59375 -35.164062 28.84375 -35.25 C 31.09375 -35.332031 33.320312 -35.695312 35.53125 -36.34375 C 37.738281 -36.988281 39.738281 -37.796875 41.53125 -38.765625 L 34.828125 -28.40625 L 42.015625 -23.75 L 41.21875 -22.515625 L 34.03125 -27.171875 L 16.234375 0.3125 C 15.597656 1.289062 15.222656 2.398438 15.109375 3.640625 C 15.003906 4.890625 15.597656 5.929688 16.890625 6.765625 C 17.554688 7.191406 18.273438 7.453125 19.046875 7.546875 C 19.828125 7.648438 20.5625 7.675781 21.25 7.625 L 21.40625 8.921875 C 19.457031 9.566406 17.578125 9.8125 15.765625 9.65625 C 13.960938 9.507812 12.1875 8.867188 10.4375 7.734375 C 8.0625 6.203125 6.675781 4.394531 6.28125 2.3125 C 5.882812 0.238281 6.453125 -1.984375 7.984375 -4.359375 L 26.09375 -32.3125 L 22 -34.96875 Z M 22.84375 -36.28125 "/></g></g></g><g fill="#f3f4f0" fill-opacity="1"><g transform="translate(525.930123, 572.29914)"><g><path d="M 34.8125 -44.640625 C 35.675781 -45.972656 36.671875 -46.640625 37.796875 -46.640625 C 38.929688 -46.640625 40.117188 -46.238281 41.359375 -45.4375 C 42.640625 -44.601562 43.5 -43.644531 43.9375 -42.5625 C 44.375 -41.488281 44.113281 -40.382812 43.15625 -39.25 L 17.421875 -8.125 L 16.171875 -8.921875 Z M 6.75 -2.09375 C 7.550781 -3.332031 8.664062 -4.101562 10.09375 -4.40625 C 11.53125 -4.71875 12.867188 -4.476562 14.109375 -3.6875 C 15.285156 -2.914062 16.046875 -1.800781 16.390625 -0.34375 C 16.734375 1.113281 16.503906 2.460938 15.703125 3.703125 C 14.929688 4.878906 13.789062 5.640625 12.28125 5.984375 C 10.78125 6.328125 9.441406 6.113281 8.265625 5.34375 C 7.023438 4.550781 6.269531 3.40625 6 1.90625 C 5.726562 0.414062 5.976562 -0.914062 6.75 -2.09375 Z M 6.75 -2.09375 "/></g></g></g></svg>