<svg xmlns="http://www.w3.org/2000/svg" xmlns:xlink="http://www.w3.org/1999/xlink" width="1080" zoomAndPan="magnify" viewBox="0 0 810 809.999993" height="1080" preserveAspectRatio="xMidYMid meet" version="1.0"><defs><g/><clipPath id="907590827f"><path d="M 76.464844 570.996094 L 733.710938 570.996094 L 733.710938 732 L 76.464844 732 Z M 76.464844 570.996094 " clip-rule="nonzero"/></clipPath><clipPath id="772a46e014"><path d="M 732.101562 612.117188 C 727.800781 583.449219 716.335938 571.984375 690.535156 574.851562 C 668.507812 577.300781 650.40625 592.824219 650.40625 614.980469 C 650.40625 592.824219 632.433594 574.851562 610.277344 574.851562 C 588.117188 574.851562 570.144531 592.824219 570.144531 614.980469 C 570.144531 593.710938 562.21875 574.480469 540.046875 572.960938 L 540.046875 572.84375 C 540.046875 572.84375 535.503906 572.414062 535.503906 572.414062 L 282.851562 572.414062 C 280.988281 572.328125 279.082031 572.328125 277.117188 572.414062 C 254.976562 573.445312 236.988281 590.386719 236.988281 612.546875 C 236.988281 590.386719 219.015625 572.414062 196.859375 572.414062 C 174.699219 572.414062 156.726562 590.386719 156.726562 612.546875 C 156.726562 590.402344 135.230469 570.996094 123.761719 570.996094 C 101.605469 570.996094 86.5 585.328125 79.332031 606.828125 L 76.464844 632.625 L 76.464844 665.015625 L 77.898438 686.515625 C 83.632812 710.878906 95.042969 731.816406 116.597656 726.644531 C 152.425781 718.046875 156.726562 707.238281 156.726562 685.082031 C 156.726562 707.238281 174.699219 725.210938 196.859375 725.210938 C 219.015625 725.210938 236.988281 707.238281 236.988281 685.082031 C 236.988281 707.238281 241.289062 730.945312 274.25 729.511719 C 274.738281 729.496094 275.210938 729.4375 275.683594 729.394531 L 275.683594 729.566406 C 275.683594 729.566406 515.683594 729.566406 515.683594 729.566406 L 528.582031 729.941406 L 528.582031 729.898438 C 529.039062 729.914062 529.5 729.941406 530.015625 729.941406 C 558.679688 729.941406 570.144531 709.675781 570.144531 687.503906 C 570.144531 709.660156 588.117188 727.632812 610.277344 727.632812 C 632.433594 727.632812 650.40625 709.660156 650.40625 687.503906 C 650.40625 709.660156 654.707031 733.367188 687.671875 731.933594 C 709.8125 730.972656 725.40625 718.5625 729.234375 703.269531 C 733.535156 686.070312 733.535156 668.871094 733.535156 668.871094 L 733.535156 635.046875 Z M 732.101562 612.117188 " clip-rule="nonzero"/></clipPath></defs><g clip-path="url(#907590827f)"><g clip-path="url(#772a46e014)"><path fill="#ba0105" d="M 76.464844 570.996094 L 733.710938 570.996094 L 733.710938 732.003906 L 76.464844 732.003906 Z M 76.464844 570.996094 " fill-opacity="1" fill-rule="nonzero"/></g></g><g fill="#f3f4f0" fill-opacity="1"><g transform="translate(185.03585, 664.475387)"><g><path d="M 7.53125 0.359375 C 5.488281 0.359375 3.851562 -0.210938 2.625 -1.359375 C 1.394531 -2.515625 0.78125 -4.148438 0.78125 -6.265625 L 4.625 -6.265625 C 4.644531 -5.285156 4.875 -4.503906 5.3125 -3.921875 C 5.75 -3.347656 6.457031 -3.0625 7.4375 -3.0625 C 8.351562 -3.0625 9.019531 -3.332031 9.4375 -3.875 C 9.863281 -4.425781 10.078125 -5.15625 10.078125 -6.0625 L 10.078125 -21 L 13.921875 -21 L 13.921875 -6.0625 C 13.921875 -4 13.34375 -2.410156 12.1875 -1.296875 C 11.039062 -0.191406 9.488281 0.359375 7.53125 0.359375 Z M 7.53125 0.359375 "/></g></g></g><g fill="#f3f4f0" fill-opacity="1"><g transform="translate(203.989622, 664.475387)"><g><path d="M 0.6875 0 L 8.375 -21 L 12.6875 -21 L 20.375 0 L 16.296875 0 L 14.609375 -4.859375 L 6.421875 -4.859375 L 4.703125 0 Z M 7.46875 -7.859375 L 13.5625 -7.859375 L 10.5 -16.59375 Z M 7.46875 -7.859375 "/></g></g></g><g fill="#f3f4f0" fill-opacity="1"><g transform="translate(228.011433, 664.475387)"><g><path d="M 11.546875 0.359375 C 9.429688 0.359375 7.613281 -0.09375 6.09375 -1 C 4.570312 -1.914062 3.398438 -3.1875 2.578125 -4.8125 C 1.753906 -6.445312 1.34375 -8.332031 1.34375 -10.46875 C 1.34375 -12.613281 1.753906 -14.503906 2.578125 -16.140625 C 3.398438 -17.773438 4.570312 -19.050781 6.09375 -19.96875 C 7.613281 -20.894531 9.429688 -21.359375 11.546875 -21.359375 C 14.066406 -21.359375 16.128906 -20.734375 17.734375 -19.484375 C 19.347656 -18.234375 20.359375 -16.476562 20.765625 -14.21875 L 16.53125 -14.21875 C 16.269531 -15.363281 15.710938 -16.257812 14.859375 -16.90625 C 14.015625 -17.550781 12.890625 -17.875 11.484375 -17.875 C 9.546875 -17.875 8.023438 -17.210938 6.921875 -15.890625 C 5.828125 -14.578125 5.28125 -12.769531 5.28125 -10.46875 C 5.28125 -8.164062 5.828125 -6.359375 6.921875 -5.046875 C 8.023438 -3.742188 9.546875 -3.09375 11.484375 -3.09375 C 12.890625 -3.09375 14.015625 -3.394531 14.859375 -4 C 15.710938 -4.613281 16.269531 -5.460938 16.53125 -6.546875 L 20.765625 -6.546875 C 20.359375 -4.378906 19.347656 -2.6875 17.734375 -1.46875 C 16.128906 -0.25 14.066406 0.359375 11.546875 0.359375 Z M 11.546875 0.359375 "/></g></g></g><g fill="#f3f4f0" fill-opacity="1"><g transform="translate(253.112823, 664.475387)"><g><path d="M 2.046875 0 L 2.046875 -21 L 5.875 -21 L 5.875 -3 L 15.1875 -3 L 15.1875 0 Z M 2.046875 0 "/></g></g></g><g fill="#f3f4f0" fill-opacity="1"><g transform="translate(272.636374, 664.475387)"><g><path d="M 7.46875 0 L 7.46875 -7.46875 L 0.421875 -21 L 4.765625 -21 L 9.421875 -11.3125 L 14.046875 -21 L 18.328125 -21 L 11.3125 -7.46875 L 11.3125 0 Z M 7.46875 0 "/></g></g></g><g fill="#f3f4f0" fill-opacity="1"><g transform="translate(294.379072, 664.475387)"><g><path d="M 2.046875 0 L 2.046875 -21 L 5.875 -21 L 15.75 -6.203125 L 15.75 -21 L 19.59375 -21 L 19.59375 0 L 15.75 0 L 5.875 -14.765625 L 5.875 0 Z M 2.046875 0 "/></g></g></g><g fill="#f3f4f0" fill-opacity="1"><g transform="translate(319.000645, 664.475387)"><g><path d="M 2.046875 0 L 2.046875 -21 L 9.8125 -21 C 11.488281 -21 12.875 -20.71875 13.96875 -20.15625 C 15.070312 -19.59375 15.894531 -18.820312 16.4375 -17.84375 C 16.976562 -16.863281 17.25 -15.765625 17.25 -14.546875 C 17.25 -13.390625 16.988281 -12.328125 16.46875 -11.359375 C 15.945312 -10.390625 15.132812 -9.609375 14.03125 -9.015625 C 12.9375 -8.421875 11.53125 -8.125 9.8125 -8.125 L 5.875 -8.125 L 5.875 0 Z M 5.875 -11.25 L 9.5625 -11.25 C 10.90625 -11.25 11.867188 -11.539062 12.453125 -12.125 C 13.046875 -12.71875 13.34375 -13.523438 13.34375 -14.546875 C 13.34375 -15.585938 13.046875 -16.398438 12.453125 -16.984375 C 11.867188 -17.578125 10.90625 -17.875 9.5625 -17.875 L 5.875 -17.875 Z M 5.875 -11.25 "/></g></g></g><g fill="#f3f4f0" fill-opacity="1"><g transform="translate(340.203547, 664.475387)"><g><path d="M 11.875 0.359375 C 9.78125 0.359375 7.945312 -0.0976562 6.375 -1.015625 C 4.800781 -1.941406 3.566406 -3.21875 2.671875 -4.84375 C 1.785156 -6.476562 1.34375 -8.363281 1.34375 -10.5 C 1.34375 -12.632812 1.785156 -14.515625 2.671875 -16.140625 C 3.566406 -17.773438 4.800781 -19.050781 6.375 -19.96875 C 7.945312 -20.894531 9.78125 -21.359375 11.875 -21.359375 C 13.957031 -21.359375 15.785156 -20.894531 17.359375 -19.96875 C 18.941406 -19.050781 20.171875 -17.773438 21.046875 -16.140625 C 21.929688 -14.515625 22.375 -12.632812 22.375 -10.5 C 22.375 -8.5 21.984375 -6.710938 21.203125 -5.140625 C 20.429688 -3.578125 19.351562 -2.332031 17.96875 -1.40625 L 22.828125 3.8125 L 18.0625 3.8125 L 14.765625 0.03125 C 13.835938 0.25 12.875 0.359375 11.875 0.359375 Z M 11.875 -3.09375 C 13.875 -3.09375 15.46875 -3.75 16.65625 -5.0625 C 17.851562 -6.382812 18.453125 -8.195312 18.453125 -10.5 C 18.453125 -12.800781 17.851562 -14.609375 16.65625 -15.921875 C 15.46875 -17.242188 13.875 -17.90625 11.875 -17.90625 C 9.875 -17.90625 8.273438 -17.242188 7.078125 -15.921875 C 5.878906 -14.609375 5.28125 -12.800781 5.28125 -10.5 C 5.28125 -8.195312 5.878906 -6.382812 7.078125 -5.0625 C 8.273438 -3.75 9.875 -3.09375 11.875 -3.09375 Z M 11.875 -3.09375 "/></g></g></g><g fill="#f3f4f0" fill-opacity="1"><g transform="translate(366.834337, 664.475387)"><g><path d="M 11.546875 0.359375 C 9.429688 0.359375 7.613281 -0.09375 6.09375 -1 C 4.570312 -1.914062 3.398438 -3.1875 2.578125 -4.8125 C 1.753906 -6.445312 1.34375 -8.332031 1.34375 -10.46875 C 1.34375 -12.613281 1.753906 -14.503906 2.578125 -16.140625 C 3.398438 -17.773438 4.570312 -19.050781 6.09375 -19.96875 C 7.613281 -20.894531 9.429688 -21.359375 11.546875 -21.359375 C 14.066406 -21.359375 16.128906 -20.734375 17.734375 -19.484375 C 19.347656 -18.234375 20.359375 -16.476562 20.765625 -14.21875 L 16.53125 -14.21875 C 16.269531 -15.363281 15.710938 -16.257812 14.859375 -16.90625 C 14.015625 -17.550781 12.890625 -17.875 11.484375 -17.875 C 9.546875 -17.875 8.023438 -17.210938 6.921875 -15.890625 C 5.828125 -14.578125 5.28125 -12.769531 5.28125 -10.46875 C 5.28125 -8.164062 5.828125 -6.359375 6.921875 -5.046875 C 8.023438 -3.742188 9.546875 -3.09375 11.484375 -3.09375 C 12.890625 -3.09375 14.015625 -3.394531 14.859375 -4 C 15.710938 -4.613281 16.269531 -5.460938 16.53125 -6.546875 L 20.765625 -6.546875 C 20.359375 -4.378906 19.347656 -2.6875 17.734375 -1.46875 C 16.128906 -0.25 14.066406 0.359375 11.546875 0.359375 Z M 11.546875 0.359375 "/></g></g></g><g fill="#f3f4f0" fill-opacity="1"><g transform="translate(391.935726, 664.475387)"><g><path d="M 13.296875 6.359375 C 11.066406 6.359375 9.125 5.929688 7.46875 5.078125 C 5.8125 4.234375 4.519531 3.035156 3.59375 1.484375 C 2.675781 -0.0664062 2.21875 -1.898438 2.21875 -4.015625 C 2.21875 -6.234375 2.609375 -8.289062 3.390625 -10.1875 C 4.171875 -12.09375 5.265625 -13.75 6.671875 -15.15625 C 8.085938 -16.570312 9.742188 -17.671875 11.640625 -18.453125 C 13.535156 -19.234375 15.613281 -19.625 17.875 -19.625 C 20.195312 -19.625 22.203125 -19.1875 23.890625 -18.3125 C 25.585938 -17.445312 26.894531 -16.234375 27.8125 -14.671875 C 28.726562 -13.109375 29.1875 -11.304688 29.1875 -9.265625 C 29.1875 -8.066406 29.03125 -6.898438 28.71875 -5.765625 C 28.414062 -4.640625 27.96875 -3.628906 27.375 -2.734375 C 26.78125 -1.847656 26.046875 -1.144531 25.171875 -0.625 C 24.304688 -0.101562 23.316406 0.15625 22.203125 0.15625 C 21.160156 0.15625 20.328125 -0.0703125 19.703125 -0.53125 C 19.085938 -1 18.703125 -1.632812 18.546875 -2.4375 C 17.960938 -1.613281 17.210938 -0.96875 16.296875 -0.5 C 15.390625 -0.03125 14.414062 0.203125 13.375 0.203125 C 11.851562 0.203125 10.671875 -0.25 9.828125 -1.15625 C 8.992188 -2.0625 8.578125 -3.296875 8.578125 -4.859375 C 8.578125 -5.941406 8.742188 -6.988281 9.078125 -8 C 9.421875 -9.007812 9.90625 -9.90625 10.53125 -10.6875 C 11.164062 -11.476562 11.914062 -12.101562 12.78125 -12.5625 C 13.65625 -13.03125 14.613281 -13.265625 15.65625 -13.265625 C 17.519531 -13.265625 18.738281 -12.550781 19.3125 -11.125 L 19.65625 -12.984375 L 22.796875 -12.984375 L 21.390625 -4.953125 C 21.265625 -4.171875 21.285156 -3.546875 21.453125 -3.078125 C 21.628906 -2.609375 22.054688 -2.375 22.734375 -2.375 C 23.316406 -2.375 23.820312 -2.578125 24.25 -2.984375 C 24.6875 -3.390625 25.046875 -3.925781 25.328125 -4.59375 C 25.617188 -5.269531 25.835938 -6.003906 25.984375 -6.796875 C 26.140625 -7.585938 26.21875 -8.363281 26.21875 -9.125 C 26.21875 -11.5625 25.445312 -13.484375 23.90625 -14.890625 C 22.363281 -16.304688 20.222656 -17.015625 17.484375 -17.015625 C 15.703125 -17.015625 14.066406 -16.6875 12.578125 -16.03125 C 11.085938 -15.382812 9.785156 -14.476562 8.671875 -13.3125 C 7.566406 -12.15625 6.707031 -10.8125 6.09375 -9.28125 C 5.488281 -7.75 5.1875 -6.101562 5.1875 -4.34375 C 5.1875 -1.789062 5.945312 0.1875 7.46875 1.59375 C 8.988281 3.007812 11.085938 3.71875 13.765625 3.71875 C 14.671875 3.71875 15.566406 3.628906 16.453125 3.453125 C 17.347656 3.273438 18.164062 3.015625 18.90625 2.671875 L 19.53125 5.15625 C 17.644531 5.957031 15.566406 6.359375 13.296875 6.359375 Z M 14.578125 -2.609375 C 15.296875 -2.609375 15.953125 -2.804688 16.546875 -3.203125 C 17.148438 -3.609375 17.640625 -4.15625 18.015625 -4.84375 C 18.398438 -5.53125 18.613281 -6.304688 18.65625 -7.171875 C 18.71875 -8.085938 18.523438 -8.863281 18.078125 -9.5 C 17.628906 -10.144531 16.921875 -10.46875 15.953125 -10.46875 C 15.160156 -10.46875 14.460938 -10.226562 13.859375 -9.75 C 13.253906 -9.269531 12.78125 -8.65625 12.4375 -7.90625 C 12.101562 -7.15625 11.9375 -6.347656 11.9375 -5.484375 C 11.9375 -4.628906 12.160156 -3.9375 12.609375 -3.40625 C 13.066406 -2.875 13.722656 -2.609375 14.578125 -2.609375 Z M 14.578125 -2.609375 "/></g></g></g><g fill="#f3f4f0" fill-opacity="1"><g transform="translate(426.333506, 664.475387)"><g><path d="M 11.21875 0.359375 C 9.238281 0.359375 7.507812 -0.0859375 6.03125 -0.984375 C 4.550781 -1.890625 3.398438 -3.144531 2.578125 -4.75 C 1.753906 -6.363281 1.34375 -8.238281 1.34375 -10.375 C 1.34375 -12.539062 1.769531 -14.445312 2.625 -16.09375 C 3.476562 -17.738281 4.6875 -19.023438 6.25 -19.953125 C 7.820312 -20.890625 9.6875 -21.359375 11.84375 -21.359375 C 14.3125 -21.359375 16.351562 -20.765625 17.96875 -19.578125 C 19.59375 -18.398438 20.644531 -16.773438 21.125 -14.703125 L 16.828125 -14.703125 C 16.503906 -15.679688 15.921875 -16.441406 15.078125 -16.984375 C 14.242188 -17.535156 13.164062 -17.8125 11.84375 -17.8125 C 9.75 -17.8125 8.128906 -17.144531 6.984375 -15.8125 C 5.847656 -14.488281 5.28125 -12.664062 5.28125 -10.34375 C 5.28125 -8.03125 5.84375 -6.238281 6.96875 -4.96875 C 8.101562 -3.695312 9.640625 -3.0625 11.578125 -3.0625 C 13.484375 -3.0625 14.921875 -3.578125 15.890625 -4.609375 C 16.859375 -5.640625 17.441406 -6.992188 17.640625 -8.671875 L 12.328125 -8.671875 L 12.328125 -11.546875 L 21.515625 -11.546875 L 21.515625 0 L 17.96875 0 L 17.671875 -2.765625 C 16.992188 -1.765625 16.144531 -0.992188 15.125 -0.453125 C 14.101562 0.0859375 12.800781 0.359375 11.21875 0.359375 Z M 11.21875 0.359375 "/></g></g></g><g fill="#f3f4f0" fill-opacity="1"><g transform="translate(452.514473, 664.475387)"><g><path d="M 2.046875 0 L 2.046875 -21 L 6.59375 -21 L 13.296875 -7.6875 L 19.890625 -21 L 24.453125 -21 L 24.453125 0 L 20.609375 0 L 20.609375 -14.484375 L 14.765625 -3 L 11.734375 -3 L 5.875 -14.484375 L 5.875 0 Z M 2.046875 0 "/></g></g></g><g fill="#f3f4f0" fill-opacity="1"><g transform="translate(481.994178, 664.475387)"><g><path d="M 0.6875 0 L 8.375 -21 L 12.6875 -21 L 20.375 0 L 16.296875 0 L 14.609375 -4.859375 L 6.421875 -4.859375 L 4.703125 0 Z M 7.46875 -7.859375 L 13.5625 -7.859375 L 10.5 -16.59375 Z M 7.46875 -7.859375 "/></g></g></g><g fill="#f3f4f0" fill-opacity="1"><g transform="translate(506.015989, 664.475387)"><g><path d="M 2.046875 0 L 2.046875 -21 L 5.875 -21 L 5.875 0 Z M 2.046875 0 "/></g></g></g><g fill="#f3f4f0" fill-opacity="1"><g transform="translate(516.932896, 664.475387)"><g><path d="M 2.046875 0 L 2.046875 -21 L 5.875 -21 L 5.875 -3 L 15.1875 -3 L 15.1875 0 Z M 2.046875 0 "/></g></g></g><g fill="#f3f4f0" fill-opacity="1"><g transform="translate(536.456448, 664.475387)"><g><path d="M 3.59375 0.203125 C 2.894531 0.203125 2.320312 -0.015625 1.875 -0.453125 C 1.425781 -0.890625 1.203125 -1.421875 1.203125 -2.046875 C 1.203125 -2.679688 1.425781 -3.21875 1.875 -3.65625 C 2.320312 -4.09375 2.894531 -4.3125 3.59375 -4.3125 C 4.300781 -4.3125 4.878906 -4.09375 5.328125 -3.65625 C 5.773438 -3.21875 6 -2.679688 6 -2.046875 C 6 -1.421875 5.773438 -0.890625 5.328125 -0.453125 C 4.878906 -0.015625 4.300781 0.203125 3.59375 0.203125 Z M 3.59375 0.203125 "/></g></g></g><g fill="#f3f4f0" fill-opacity="1"><g transform="translate(546.653613, 664.475387)"><g><path d="M 11.546875 0.359375 C 9.429688 0.359375 7.613281 -0.09375 6.09375 -1 C 4.570312 -1.914062 3.398438 -3.1875 2.578125 -4.8125 C 1.753906 -6.445312 1.34375 -8.332031 1.34375 -10.46875 C 1.34375 -12.613281 1.753906 -14.503906 2.578125 -16.140625 C 3.398438 -17.773438 4.570312 -19.050781 6.09375 -19.96875 C 7.613281 -20.894531 9.429688 -21.359375 11.546875 -21.359375 C 14.066406 -21.359375 16.128906 -20.734375 17.734375 -19.484375 C 19.347656 -18.234375 20.359375 -16.476562 20.765625 -14.21875 L 16.53125 -14.21875 C 16.269531 -15.363281 15.710938 -16.257812 14.859375 -16.90625 C 14.015625 -17.550781 12.890625 -17.875 11.484375 -17.875 C 9.546875 -17.875 8.023438 -17.210938 6.921875 -15.890625 C 5.828125 -14.578125 5.28125 -12.769531 5.28125 -10.46875 C 5.28125 -8.164062 5.828125 -6.359375 6.921875 -5.046875 C 8.023438 -3.742188 9.546875 -3.09375 11.484375 -3.09375 C 12.890625 -3.09375 14.015625 -3.394531 14.859375 -4 C 15.710938 -4.613281 16.269531 -5.460938 16.53125 -6.546875 L 20.765625 -6.546875 C 20.359375 -4.378906 19.347656 -2.6875 17.734375 -1.46875 C 16.128906 -0.25 14.066406 0.359375 11.546875 0.359375 Z M 11.546875 0.359375 "/></g></g></g><g fill="#f3f4f0" fill-opacity="1"><g transform="translate(571.754992, 664.475387)"><g><path d="M 11.875 0.359375 C 9.78125 0.359375 7.945312 -0.0976562 6.375 -1.015625 C 4.800781 -1.941406 3.566406 -3.21875 2.671875 -4.84375 C 1.785156 -6.476562 1.34375 -8.363281 1.34375 -10.5 C 1.34375 -12.632812 1.785156 -14.515625 2.671875 -16.140625 C 3.566406 -17.773438 4.800781 -19.050781 6.375 -19.96875 C 7.945312 -20.894531 9.78125 -21.359375 11.875 -21.359375 C 13.957031 -21.359375 15.785156 -20.894531 17.359375 -19.96875 C 18.941406 -19.050781 20.171875 -17.773438 21.046875 -16.140625 C 21.929688 -14.515625 22.375 -12.632812 22.375 -10.5 C 22.375 -8.363281 21.929688 -6.476562 21.046875 -4.84375 C 20.171875 -3.21875 18.941406 -1.941406 17.359375 -1.015625 C 15.785156 -0.0976562 13.957031 0.359375 11.875 0.359375 Z M 11.875 -3.09375 C 13.875 -3.09375 15.46875 -3.75 16.65625 -5.0625 C 17.851562 -6.382812 18.453125 -8.195312 18.453125 -10.5 C 18.453125 -12.800781 17.851562 -14.609375 16.65625 -15.921875 C 15.46875 -17.242188 13.875 -17.90625 11.875 -17.90625 C 9.875 -17.90625 8.273438 -17.242188 7.078125 -15.921875 C 5.878906 -14.609375 5.28125 -12.800781 5.28125 -10.5 C 5.28125 -8.195312 5.878906 -6.382812 7.078125 -5.0625 C 8.273438 -3.75 9.875 -3.09375 11.875 -3.09375 Z M 11.875 -3.09375 "/></g></g></g><g fill="#f3f4f0" fill-opacity="1"><g transform="translate(598.475755, 664.475387)"><g><path d="M 2.046875 0 L 2.046875 -21 L 6.59375 -21 L 13.296875 -7.6875 L 19.890625 -21 L 24.453125 -21 L 24.453125 0 L 20.609375 0 L 20.609375 -14.484375 L 14.765625 -3 L 11.734375 -3 L 5.875 -14.484375 L 5.875 0 Z M 2.046875 0 "/></g></g></g></svg>