<svg xmlns="http://www.w3.org/2000/svg" xmlns:xlink="http://www.w3.org/1999/xlink" width="1080" zoomAndPan="magnify" viewBox="0 0 810 809.999993" height="1080" preserveAspectRatio="xMidYMid meet" version="1.0"><defs><g/><clipPath id="857bf80222"><path d="M 260 302 L 744 302 L 744 552 L 260 552 Z M 260 302 " clip-rule="nonzero"/></clipPath><clipPath id="29ea7f21fd"><path d="M 754.859375 540.117188 L 272.398438 562.949219 L 260.589844 313.480469 L 743.050781 290.644531 Z M 754.859375 540.117188 " clip-rule="nonzero"/></clipPath><clipPath id="3ed2acd7ca"><path d="M 272.597656 562.941406 L 755.054688 540.105469 L 743.25 290.636719 L 260.789062 313.46875 Z M 272.597656 562.941406 " clip-rule="nonzero"/></clipPath></defs><g clip-path="url(#857bf80222)"><g clip-path="url(#29ea7f21fd)"><g clip-path="url(#3ed2acd7ca)"><path fill="#fb5718" d="M 260.835938 314.429688 C 262.933594 338.507812 266.347656 364.582031 271.644531 392.253906 C 274.84375 408.96875 278.453125 424.835938 282.320312 439.816406 C 287.222656 449.011719 293.554688 459 301.777344 469.054688 C 328.691406 501.96875 361.472656 518 381.765625 525.722656 C 406.449219 534.234375 431.132812 542.75 455.8125 551.265625 C 472.671875 551.457031 489.53125 551.648438 506.390625 551.839844 C 521.519531 550.003906 536.722656 548.109375 552.003906 546.152344 C 567.113281 544.21875 582.132812 542.25 597.066406 540.246094 C 602.4375 539.597656 609.132812 538.421875 616.636719 536.199219 C 626.75 533.203125 634.15625 529.542969 637.496094 527.796875 C 643.480469 524.664062 651.183594 519.957031 659.234375 513 C 664.464844 509.058594 671.84375 503.007812 679.707031 494.699219 C 690.359375 483.4375 705.371094 462.886719 722.125 416.722656 C 735.117188 380.929688 731.917969 341.738281 743.800781 306.285156 C 698.402344 305.074219 653.007812 303.863281 607.609375 302.65625 C 506.613281 314.46875 454.652344 316.039062 425.722656 315.082031 C 408.804688 314.519531 386.859375 313.5625 354.089844 313.96875 C 338.523438 314.164062 322.550781 315.730469 307.078125 314.816406 C 297.601562 314.257812 287.074219 314.707031 277.691406 313.652344 C 272.726562 313.09375 265.886719 313.953125 260.835938 314.429688 Z M 260.835938 314.429688 " fill-opacity="1" fill-rule="nonzero"/></g></g></g><g fill="#ffffff" fill-opacity="1"><g transform="translate(336.189501, 431.125124)"><g><path d="M 46.015625 12.84375 C 32.109375 9.570312 22.179688 3.160156 16.234375 -6.390625 C 10.285156 -15.941406 8.960938 -27.710938 12.265625 -41.703125 C 14.484375 -51.140625 18.179688 -59.015625 23.359375 -65.328125 C 28.535156 -71.640625 34.925781 -75.984375 42.53125 -78.359375 C 50.144531 -80.742188 58.722656 -80.816406 68.265625 -78.578125 C 72.890625 -77.484375 77.492188 -75.769531 82.078125 -73.4375 C 86.671875 -71.113281 90.203125 -67.882812 92.671875 -63.75 C 92.671875 -63.75 92.738281 -63.632812 92.875 -63.40625 C 93.007812 -63.1875 93.101562 -62.976562 93.15625 -62.78125 C 93.320312 -62.644531 93.414062 -62.523438 93.4375 -62.421875 C 93.457031 -62.328125 93.503906 -62.226562 93.578125 -62.125 L 91.703125 -45 L 89.515625 -45.515625 C 89.429688 -46.785156 89.207031 -48.0625 88.84375 -49.34375 C 88.488281 -50.632812 88.09375 -51.804688 87.65625 -52.859375 C 86.644531 -56.253906 85.226562 -59.582031 83.40625 -62.84375 C 81.582031 -66.101562 79.304688 -68.960938 76.578125 -71.421875 C 73.847656 -73.890625 70.570312 -75.570312 66.75 -76.46875 C 62.570312 -77.457031 58.671875 -77.367188 55.046875 -76.203125 C 51.421875 -75.046875 48.070312 -73.148438 45 -70.515625 C 41.9375 -67.890625 39.25 -64.832031 36.9375 -61.34375 C 34.632812 -57.863281 32.6875 -54.269531 31.09375 -50.5625 C 29.507812 -46.863281 28.332031 -43.378906 27.5625 -40.109375 C 26.363281 -35.015625 25.6875 -29.800781 25.53125 -24.46875 C 25.375 -19.144531 26.050781 -14.097656 27.5625 -9.328125 C 29.082031 -4.554688 31.609375 -0.414062 35.140625 3.09375 C 38.679688 6.613281 43.5 9.085938 49.59375 10.515625 C 51.675781 11.015625 54.007812 11.375 56.59375 11.59375 C 59.175781 11.820312 61.597656 11.816406 63.859375 11.578125 L 64.59375 11.46875 L 70.6875 -14.421875 C 71.332031 -17.140625 70.914062 -19.222656 69.4375 -20.671875 C 67.957031 -22.128906 66.1875 -23.148438 64.125 -23.734375 L 64.671875 -26.0625 L 94.78125 -18.984375 L 94.234375 -16.65625 C 92.148438 -17.144531 90.195312 -16.976562 88.375 -16.15625 C 86.550781 -15.34375 85.328125 -13.617188 84.703125 -10.984375 L 79.890625 9.453125 C 74.660156 12.546875 69.179688 14.234375 63.453125 14.515625 C 57.734375 14.796875 51.921875 14.238281 46.015625 12.84375 Z M 46.015625 12.84375 "/></g></g></g><g fill="#ffffff" fill-opacity="1"><g transform="translate(415.632841, 449.826966)"><g><path d="M 14.6875 -55.65625 L 36.796875 -57.359375 L 24.359375 -4.46875 C 23.222656 0.34375 24.78125 3.296875 29.03125 4.390625 L 28.484375 6.703125 L 1.5 0.359375 L 2.046875 -1.953125 C 6.429688 -1.023438 9.191406 -2.96875 10.328125 -7.78125 L 18.890625 -44.15625 C 20.003906 -48.882812 18.410156 -51.894531 14.109375 -53.1875 Z M 22.015625 -78.25 C 22.609375 -80.789062 24.023438 -82.753906 26.265625 -84.140625 C 28.515625 -85.523438 30.910156 -85.914062 33.453125 -85.3125 C 35.992188 -84.71875 37.984375 -83.289062 39.421875 -81.03125 C 40.859375 -78.78125 41.28125 -76.382812 40.6875 -73.84375 C 40.082031 -71.289062 38.597656 -69.285156 36.234375 -67.828125 C 33.878906 -66.378906 31.476562 -65.941406 29.03125 -66.515625 C 26.488281 -67.117188 24.53125 -68.585938 23.15625 -70.921875 C 21.789062 -73.253906 21.410156 -75.695312 22.015625 -78.25 Z M 22.015625 -78.25 "/></g></g></g><g fill="#ffffff" fill-opacity="1"><g transform="translate(436.890065, 454.831151)"><g><path d="M 14.125 -63.6875 C 17.050781 -63.488281 20.101562 -64.019531 23.28125 -65.28125 C 26.457031 -66.539062 29.460938 -68.203125 32.296875 -70.265625 C 35.128906 -72.335938 37.582031 -74.519531 39.65625 -76.8125 L 35.359375 -58.546875 L 48.03125 -55.5625 L 47.515625 -53.390625 L 34.84375 -56.375 L 23.421875 -7.859375 C 23.015625 -6.128906 23.050781 -4.34375 23.53125 -2.5 C 24.007812 -0.664062 25.382812 0.515625 27.65625 1.046875 C 28.84375 1.328125 30.015625 1.335938 31.171875 1.078125 C 32.335938 0.828125 33.398438 0.476562 34.359375 0.03125 L 35.234375 1.828125 C 32.773438 3.742188 30.210938 5.054688 27.546875 5.765625 C 24.878906 6.484375 22 6.476562 18.90625 5.75 C 14.726562 4.769531 11.816406 2.882812 10.171875 0.09375 C 8.535156 -2.6875 8.210938 -6.171875 9.203125 -10.359375 L 20.8125 -59.6875 L 13.578125 -61.375 Z M 14.125 -63.6875 "/></g></g></g><g fill="#ffffff" fill-opacity="1"><g transform="translate(464.006789, 461.214728)"><g><path d="M 21.546875 -88.421875 L 43.625 -89.984375 L 34.484375 -51.15625 L 36.453125 -52.25 C 39.265625 -53.988281 42.289062 -55.023438 45.53125 -55.359375 C 48.78125 -55.703125 51.945312 -55.515625 55.03125 -54.796875 C 61.03125 -53.378906 65.753906 -50.828125 69.203125 -47.140625 C 72.648438 -43.453125 73.613281 -38.378906 72.09375 -31.921875 L 63.46875 4.734375 C 62.332031 9.546875 63.890625 12.5 68.140625 13.59375 L 67.59375 15.90625 L 40.609375 9.5625 L 41.15625 7.25 C 45.539062 8.175781 48.300781 6.234375 49.4375 1.421875 L 58.0625 -35.234375 C 59.050781 -39.421875 58.921875 -43.144531 57.671875 -46.40625 C 56.429688 -49.664062 53.445312 -51.851562 48.71875 -52.96875 C 46.082031 -53.582031 43.59375 -53.394531 41.25 -52.40625 C 38.90625 -51.425781 36.945312 -49.945312 35.375 -47.96875 C 33.8125 -46 32.742188 -43.785156 32.171875 -41.328125 L 23.546875 -4.671875 C 22.410156 0.140625 23.96875 3.097656 28.21875 4.203125 L 27.671875 6.515625 L 0.6875 0.15625 L 1.234375 -2.15625 C 5.609375 -1.21875 8.363281 -3.15625 9.5 -7.96875 L 25.734375 -76.921875 C 26.835938 -81.648438 25.25 -84.664062 20.96875 -85.96875 Z M 21.546875 -88.421875 "/></g></g></g><g fill="#ffffff" fill-opacity="1"><g transform="translate(523.418828, 475.20098)"><g><path d="M 20 -51.953125 C 21.113281 -56.679688 19.523438 -59.695312 15.234375 -61 L 15.75 -63.171875 L 36.328125 -58.328125 L 25.703125 -13.234375 C 24.804688 -9.410156 24.929688 -6.066406 26.078125 -3.203125 C 27.222656 -0.347656 29.882812 1.570312 34.0625 2.5625 C 37.695312 3.414062 40.984375 2.796875 43.921875 0.703125 C 46.859375 -1.378906 48.734375 -4.148438 49.546875 -7.609375 L 57.890625 -43.03125 C 58.460938 -45.488281 58.414062 -47.441406 57.75 -48.890625 C 57.09375 -50.335938 55.59375 -51.390625 53.25 -52.046875 L 53.765625 -54.21875 L 74.203125 -49.40625 L 63.578125 -4.3125 C 63.066406 -2.132812 63.054688 -0.0507812 63.546875 1.9375 C 64.046875 3.925781 65.546875 5.3125 68.046875 6.09375 L 67.4375 8.6875 L 45.34375 10.25 L 47.53125 0.984375 L 45.40625 2.625 C 42.6875 4.769531 39.59375 6.082031 36.125 6.5625 C 32.664062 7.039062 29.253906 6.882812 25.890625 6.09375 C 19.984375 4.707031 15.765625 2.160156 13.234375 -1.546875 C 10.703125 -5.265625 10.15625 -10.171875 11.59375 -16.265625 Z M 20 -51.953125 "/></g></g></g><g fill="#ffffff" fill-opacity="1"><g transform="translate(581.468206, 488.866446)"><g><path d="M 20.453125 -88.671875 L 42.53125 -90.234375 L 32.71875 -48.53125 L 35.234375 -51.234375 C 37.421875 -53.609375 40.175781 -55.050781 43.5 -55.5625 C 46.832031 -56.070312 50.039062 -55.960938 53.125 -55.234375 C 59.125 -53.828125 63.472656 -51.222656 66.171875 -47.421875 C 68.878906 -43.617188 70.394531 -39.160156 70.71875 -34.046875 C 71.050781 -28.929688 70.578125 -23.648438 69.296875 -18.203125 C 67.835938 -12.023438 65.617188 -6.671875 62.640625 -2.140625 C 59.660156 2.378906 55.859375 5.601562 51.234375 7.53125 C 46.609375 9.457031 40.976562 9.640625 34.34375 8.078125 C 30.976562 7.285156 27.992188 6.101562 25.390625 4.53125 C 22.796875 2.96875 20.242188 0.976562 17.734375 -1.4375 L 17.25 -1.828125 L 6.0625 1.71875 L 24.640625 -77.1875 C 25.742188 -81.914062 24.15625 -84.925781 19.875 -86.21875 Z M 31.96875 -45.390625 L 22.703125 -6.015625 C 22.597656 -5.554688 22.59375 -5.125 22.6875 -4.71875 C 23.226562 -2.488281 24.15625 -0.523438 25.46875 1.171875 C 26.789062 2.878906 28.632812 4.015625 31 4.578125 C 34.363281 5.367188 37.394531 4.804688 40.09375 2.890625 C 42.800781 0.984375 45.160156 -1.597656 47.171875 -4.859375 C 49.191406 -8.117188 50.859375 -11.535156 52.171875 -15.109375 C 53.484375 -18.691406 54.429688 -21.707031 55.015625 -24.15625 C 55.503906 -26.25 55.921875 -28.738281 56.265625 -31.625 C 56.617188 -34.507812 56.609375 -37.410156 56.234375 -40.328125 C 55.859375 -43.242188 54.953125 -45.832031 53.515625 -48.09375 C 52.085938 -50.351562 49.828125 -51.84375 46.734375 -52.5625 C 44.367188 -53.125 42.09375 -52.921875 39.90625 -51.953125 C 37.71875 -50.984375 35.820312 -49.722656 34.21875 -48.171875 C 34.21875 -48.171875 34.09375 -48.054688 33.84375 -47.828125 C 33.601562 -47.609375 33.359375 -47.382812 33.109375 -47.15625 C 32.953125 -46.90625 32.738281 -46.617188 32.46875 -46.296875 C 32.351562 -46.222656 32.289062 -46.160156 32.28125 -46.109375 C 32.269531 -46.066406 32.265625 -46.046875 32.265625 -46.046875 C 32.140625 -45.890625 32.039062 -45.671875 31.96875 -45.390625 Z M 31.96875 -45.390625 "/></g></g></g></svg>