<svg xmlns="http://www.w3.org/2000/svg" xmlns:xlink="http://www.w3.org/1999/xlink" width="1080" zoomAndPan="magnify" viewBox="0 0 810 809.999993" height="1080" preserveAspectRatio="xMidYMid meet" version="1.0"><defs><g/><clipPath id="bc46857358"><path d="M 215 339 L 571 339 L 571 706 L 215 706 Z M 215 339 " clip-rule="nonzero"/></clipPath><clipPath id="2981c9deef"><path d="M 157.292969 420.523438 L 504.183594 290.382812 L 629.582031 624.632812 L 282.691406 754.773438 Z M 157.292969 420.523438 " clip-rule="nonzero"/></clipPath><clipPath id="c5900b1b08"><path d="M 157.292969 420.523438 L 504.183594 290.382812 L 629.582031 624.632812 L 282.691406 754.773438 Z M 157.292969 420.523438 " clip-rule="nonzero"/></clipPath><clipPath id="8c6ed09271"><path d="M 371 500 L 416 500 L 416 545 L 371 545 Z M 371 500 " clip-rule="nonzero"/></clipPath><clipPath id="296bf8ff22"><path d="M 157.292969 420.523438 L 504.183594 290.382812 L 629.582031 624.632812 L 282.691406 754.773438 Z M 157.292969 420.523438 " clip-rule="nonzero"/></clipPath><clipPath id="2660c49959"><path d="M 157.292969 420.523438 L 504.183594 290.382812 L 629.582031 624.632812 L 282.691406 754.773438 Z M 157.292969 420.523438 " clip-rule="nonzero"/></clipPath></defs><g clip-path="url(#bc46857358)"><g clip-path="url(#2981c9deef)"><g clip-path="url(#c5900b1b08)"><path fill="#ba0105" d="M 423.507812 340.15625 C 459.574219 346.152344 484.714844 379.214844 481.5625 415.0625 C 516.117188 405.046875 553.429688 423.335938 566.269531 457.566406 C 579.109375 491.789062 563.035156 530.105469 530.417969 545.289062 C 556.371094 570.214844 559.1875 611.667969 535.960938 639.902344 C 512.742188 668.136719 471.53125 673.378906 442.066406 652.714844 C 433.453125 687.664062 398.96875 710.820312 362.902344 704.828125 C 326.835938 698.835938 301.691406 665.761719 304.859375 629.910156 C 270.296875 639.929688 232.988281 621.648438 220.148438 587.417969 C 207.304688 553.1875 223.382812 514.878906 256.003906 499.683594 C 230.042969 474.761719 227.222656 433.3125 250.449219 405.082031 C 273.679688 376.84375 314.886719 371.605469 344.359375 392.265625 C 352.960938 357.320312 387.457031 334.160156 423.507812 340.15625 Z M 423.507812 340.15625 " fill-opacity="1" fill-rule="evenodd"/></g></g></g><g clip-path="url(#8c6ed09271)"><g clip-path="url(#296bf8ff22)"><g clip-path="url(#2660c49959)"><path fill="#ba0105" d="M 413.800781 514.765625 C 414.054688 515.441406 414.273438 516.125 414.457031 516.824219 C 414.644531 517.519531 414.796875 518.222656 414.910156 518.933594 C 415.027344 519.644531 415.109375 520.359375 415.15625 521.078125 C 415.203125 521.796875 415.214844 522.515625 415.1875 523.234375 C 415.164062 523.957031 415.105469 524.671875 415.011719 525.386719 C 414.914062 526.101562 414.785156 526.808594 414.621094 527.511719 C 414.457031 528.210938 414.257812 528.902344 414.027344 529.585938 C 413.792969 530.265625 413.527344 530.9375 413.230469 531.59375 C 412.933594 532.246094 412.605469 532.886719 412.242188 533.511719 C 411.882812 534.132812 411.492188 534.738281 411.070312 535.324219 C 410.652344 535.910156 410.203125 536.472656 409.726562 537.011719 C 409.253906 537.554688 408.75 538.070312 408.226562 538.5625 C 407.699219 539.054688 407.148438 539.519531 406.578125 539.957031 C 406.003906 540.394531 405.414062 540.804688 404.800781 541.183594 C 404.1875 541.5625 403.558594 541.914062 402.914062 542.230469 C 402.265625 542.546875 401.605469 542.835938 400.933594 543.085938 C 400.257812 543.339844 399.570312 543.558594 398.875 543.746094 C 398.179688 543.929688 397.476562 544.082031 396.765625 544.199219 C 396.054688 544.316406 395.339844 544.398438 394.621094 544.441406 C 393.902344 544.488281 393.183594 544.5 392.460938 544.476562 C 391.742188 544.453125 391.027344 544.390625 390.3125 544.296875 C 389.597656 544.203125 388.890625 544.074219 388.1875 543.910156 C 387.488281 543.746094 386.792969 543.546875 386.113281 543.3125 C 385.429688 543.082031 384.761719 542.816406 384.105469 542.519531 C 383.449219 542.21875 382.8125 541.890625 382.1875 541.53125 C 381.5625 541.167969 380.960938 540.777344 380.375 540.359375 C 379.789062 539.9375 379.226562 539.492188 378.683594 539.015625 C 378.144531 538.539062 377.628906 538.039062 377.136719 537.511719 C 376.644531 536.984375 376.179688 536.4375 375.742188 535.863281 C 375.300781 535.292969 374.894531 534.699219 374.515625 534.089844 C 374.132812 533.476562 373.785156 532.847656 373.46875 532.199219 C 373.148438 531.554688 372.863281 530.894531 372.609375 530.21875 C 372.359375 529.542969 372.136719 528.859375 371.953125 528.164062 C 371.765625 527.46875 371.617188 526.765625 371.5 526.054688 C 371.382812 525.34375 371.300781 524.628906 371.253906 523.90625 C 371.207031 523.1875 371.199219 522.46875 371.222656 521.75 C 371.246094 521.03125 371.304688 520.3125 371.402344 519.597656 C 371.496094 518.882812 371.625 518.175781 371.789062 517.476562 C 371.953125 516.773438 372.152344 516.082031 372.382812 515.398438 C 372.617188 514.71875 372.882812 514.050781 373.179688 513.394531 C 373.476562 512.738281 373.808594 512.097656 374.167969 511.472656 C 374.527344 510.851562 374.917969 510.246094 375.339844 509.660156 C 375.761719 509.078125 376.207031 508.511719 376.683594 507.972656 C 377.160156 507.429688 377.660156 506.914062 378.1875 506.421875 C 378.710938 505.929688 379.261719 505.464844 379.832031 505.027344 C 380.40625 504.589844 380.996094 504.179688 381.609375 503.800781 C 382.222656 503.421875 382.851562 503.074219 383.496094 502.753906 C 384.144531 502.4375 384.804688 502.152344 385.480469 501.898438 C 386.152344 501.644531 386.839844 501.425781 387.535156 501.242188 C 388.230469 501.054688 388.933594 500.902344 389.644531 500.785156 C 390.355469 500.671875 391.070312 500.589844 391.789062 500.542969 C 392.507812 500.496094 393.230469 500.484375 393.949219 500.507812 C 394.667969 500.535156 395.386719 500.59375 396.101562 500.6875 C 396.8125 500.78125 397.523438 500.914062 398.222656 501.078125 C 398.925781 501.242188 399.617188 501.4375 400.296875 501.671875 C 400.980469 501.902344 401.648438 502.167969 402.304688 502.46875 C 402.960938 502.765625 403.601562 503.09375 404.222656 503.457031 C 404.847656 503.816406 405.453125 504.207031 406.035156 504.628906 C 406.621094 505.046875 407.183594 505.496094 407.726562 505.972656 C 408.265625 506.445312 408.785156 506.945312 409.277344 507.472656 C 409.765625 508 410.234375 508.550781 410.671875 509.121094 C 411.109375 509.691406 411.515625 510.285156 411.898438 510.898438 C 412.277344 511.507812 412.625 512.140625 412.945312 512.785156 C 413.261719 513.429688 413.546875 514.09375 413.800781 514.765625 Z M 413.800781 514.765625 " fill-opacity="1" fill-rule="nonzero"/></g></g></g><g fill="#f7e0ba" fill-opacity="1"><g transform="translate(286.326795, 543.388251)"><g><path d="M -12.359375 -39.046875 C -15.296875 -46.898438 -16.40625 -54.398438 -15.6875 -61.546875 C -14.976562 -68.691406 -12.46875 -75.019531 -8.15625 -80.53125 C -3.84375 -86.039062 2.234375 -90.265625 10.078125 -93.203125 C 14.367188 -94.816406 18.835938 -95.8125 23.484375 -96.1875 C 28.128906 -96.570312 32.601562 -95.988281 36.90625 -94.4375 C 37 -94.394531 37.238281 -94.285156 37.625 -94.109375 C 38.007812 -93.929688 38.421875 -93.738281 38.859375 -93.53125 C 39.085938 -93.4375 39.328125 -93.347656 39.578125 -93.265625 C 39.828125 -93.179688 40.023438 -93.078125 40.171875 -92.953125 C 40.285156 -92.898438 40.347656 -92.851562 40.359375 -92.8125 C 40.367188 -92.78125 40.425781 -92.738281 40.53125 -92.6875 C 41.757812 -90.613281 42.898438 -88.53125 43.953125 -86.4375 C 45.015625 -84.34375 46.140625 -82.207031 47.328125 -80.03125 L 45.171875 -79.21875 C 42.015625 -82.113281 38.601562 -84.769531 34.9375 -87.1875 C 31.269531 -89.601562 27.367188 -91.257812 23.234375 -92.15625 C 19.097656 -93.050781 14.734375 -92.632812 10.140625 -90.90625 C 6.566406 -89.570312 3.789062 -87.492188 1.8125 -84.671875 C -0.15625 -81.847656 -1.5 -78.628906 -2.21875 -75.015625 C -2.945312 -71.398438 -3.21875 -67.660156 -3.03125 -63.796875 C -2.851562 -59.929688 -2.378906 -56.195312 -1.609375 -52.59375 C -0.847656 -48.988281 0.0234375 -45.875 1.015625 -43.25 C 2.023438 -40.5625 3.394531 -37.6875 5.125 -34.625 C 6.851562 -31.5625 8.875 -28.632812 11.1875 -25.84375 C 13.507812 -23.050781 16.085938 -20.648438 18.921875 -18.640625 C 21.753906 -16.628906 24.785156 -15.300781 28.015625 -14.65625 C 31.253906 -14.007812 34.613281 -14.335938 38.09375 -15.640625 C 41.90625 -17.078125 44.984375 -19.117188 47.328125 -21.765625 C 49.679688 -24.410156 51.492188 -27.414062 52.765625 -30.78125 C 54.035156 -34.15625 54.925781 -37.679688 55.4375 -41.359375 C 55.957031 -45.046875 56.25 -48.613281 56.3125 -52.0625 L 58.46875 -52.875 C 59.15625 -50.050781 59.894531 -47.273438 60.6875 -44.546875 C 61.488281 -41.816406 62.1875 -39.066406 62.78125 -36.296875 C 62.726562 -35.921875 62.703125 -35.734375 62.703125 -35.734375 C 62.691406 -35.546875 62.660156 -35.332031 62.609375 -35.09375 C 62.566406 -34.851562 62.5 -34.625 62.40625 -34.40625 C 60.613281 -29.289062 57.503906 -24.910156 53.078125 -21.265625 C 48.660156 -17.617188 43.988281 -14.867188 39.0625 -13.015625 C 30.894531 -9.953125 23.492188 -9.078125 16.859375 -10.390625 C 10.222656 -11.703125 4.441406 -14.820312 -0.484375 -19.75 C -5.421875 -24.6875 -9.378906 -31.117188 -12.359375 -39.046875 Z M -12.359375 -39.046875 "/></g></g></g><g fill="#f7e0ba" fill-opacity="1"><g transform="translate(348.417673, 520.094179)"><g><path d="M -28.171875 -77.625 L -12.296875 -89.953125 L 15.625 -15.484375 C 17.207031 -11.285156 19.878906 -9.847656 23.640625 -11.171875 L 24.390625 -9.15625 L 0.828125 -0.3125 L 0.078125 -2.328125 C 3.859375 -3.835938 4.957031 -6.691406 3.375 -10.890625 L -19.203125 -71.09375 C -20.742188 -75.207031 -23.46875 -76.675781 -27.375 -75.5 Z M -28.171875 -77.625 "/></g></g></g><g fill="#f7e0ba" fill-opacity="1"><g transform="translate(366.735665, 513.221984)"><g><path d="M -17.046875 -49.375 L -1.21875 -61.828125 L 16.09375 -15.671875 C 17.675781 -11.472656 20.347656 -10.03125 24.109375 -11.34375 L 24.859375 -9.328125 L 1.296875 -0.484375 L 0.546875 -2.5 C 4.328125 -4.019531 5.425781 -6.878906 3.84375 -11.078125 L -8.0625 -42.84375 C -9.613281 -46.96875 -12.335938 -48.425781 -16.234375 -47.21875 Z M -22.90625 -70.09375 C -23.75 -72.320312 -23.671875 -74.523438 -22.671875 -76.703125 C -21.679688 -78.890625 -20.078125 -80.398438 -17.859375 -81.234375 C -15.640625 -82.066406 -13.421875 -81.992188 -11.203125 -81.015625 C -8.984375 -80.046875 -7.453125 -78.445312 -6.609375 -76.21875 C -5.773438 -74 -5.878906 -71.742188 -6.921875 -69.453125 C -7.960938 -67.171875 -9.554688 -65.628906 -11.703125 -64.828125 C -13.921875 -63.992188 -16.132812 -64.109375 -18.34375 -65.171875 C -20.550781 -66.234375 -22.070312 -67.875 -22.90625 -70.09375 Z M -22.90625 -70.09375 "/></g></g></g><g fill="#f7e0ba" fill-opacity="1"><g transform="translate(385.291558, 506.260538)"><g><path d="M 27.328125 -8.90625 C 21.765625 -6.8125 16.6875 -6.347656 12.09375 -7.515625 C 7.5 -8.691406 3.476562 -11.097656 0.03125 -14.734375 C -3.40625 -18.367188 -6.125 -22.84375 -8.125 -28.15625 C -11.394531 -36.882812 -11.800781 -44.671875 -9.34375 -51.515625 C -6.894531 -58.359375 -1.226562 -63.445312 7.65625 -66.78125 C 10.425781 -67.820312 13.425781 -68.378906 16.65625 -68.453125 C 19.882812 -68.535156 22.847656 -67.929688 25.546875 -66.640625 C 28.242188 -65.347656 30.15625 -63.195312 31.28125 -60.1875 C 31.882812 -58.59375 31.773438 -57.078125 30.953125 -55.640625 C 30.140625 -54.203125 28.898438 -53.171875 27.234375 -52.546875 C 23.984375 -51.328125 21.285156 -52.265625 19.140625 -55.359375 C 18.765625 -55.835938 18.382812 -56.347656 18 -56.890625 C 17.625 -57.429688 17.195312 -57.972656 16.71875 -58.515625 C 15.414062 -60.296875 13.832031 -61.851562 11.96875 -63.1875 C 10.113281 -64.519531 8 -64.742188 5.625 -63.859375 C 3.25 -62.960938 1.660156 -61.347656 0.859375 -59.015625 C 0.0664062 -56.679688 -0.210938 -54.0625 0.015625 -51.15625 C 0.242188 -48.257812 0.710938 -45.429688 1.421875 -42.671875 C 2.140625 -39.910156 2.828125 -37.65625 3.484375 -35.90625 C 4.460938 -33.289062 5.816406 -30.703125 7.546875 -28.140625 C 9.285156 -25.585938 11.320312 -23.363281 13.65625 -21.46875 C 15.988281 -19.582031 18.585938 -18.316406 21.453125 -17.671875 C 24.316406 -17.035156 27.375 -17.328125 30.625 -18.546875 C 33.238281 -19.523438 35.570312 -21.078125 37.625 -23.203125 C 39.6875 -25.328125 41.050781 -27.78125 41.71875 -30.5625 L 43.34375 -30.234375 C 42.757812 -25.035156 41.226562 -20.660156 38.75 -17.109375 C 36.28125 -13.566406 32.472656 -10.832031 27.328125 -8.90625 Z M 27.328125 -8.90625 "/></g></g></g><g fill="#f7e0ba" fill-opacity="1"><g transform="translate(428.350746, 490.106412)"><g><path d="M -28.171875 -77.625 L -12.296875 -89.953125 L 7.15625 -38.09375 L 10.015625 -39.171875 L 17.921875 -53.53125 C 18.347656 -54.332031 18.84375 -55.359375 19.40625 -56.609375 C 19.976562 -57.859375 20.410156 -59.171875 20.703125 -60.546875 C 21.003906 -61.929688 20.960938 -63.132812 20.578125 -64.15625 C 20.160156 -65.269531 19.53125 -65.984375 18.6875 -66.296875 C 17.84375 -66.617188 17.015625 -66.765625 16.203125 -66.734375 L 15.40625 -68.875 L 34.5625 -76.0625 L 35.3125 -74.046875 C 33.625 -73.222656 31.941406 -71.726562 30.265625 -69.5625 C 28.597656 -67.40625 27.039062 -65.101562 25.59375 -62.65625 C 23.875 -60.019531 22.3125 -57.375 20.90625 -54.71875 C 19.507812 -52.070312 18.375 -49.992188 17.5 -48.484375 L 17.125 -47.671875 L 47.8125 -27.03125 C 49.476562 -25.9375 51.179688 -25.054688 52.921875 -24.390625 C 54.660156 -23.734375 56.550781 -23.695312 58.59375 -24.28125 L 59.34375 -22.265625 L 33.3125 -12.5 L 32.5625 -14.515625 C 33.269531 -14.773438 33.84375 -15.171875 34.28125 -15.703125 C 34.675781 -16.128906 34.984375 -16.632812 35.203125 -17.21875 C 35.429688 -17.800781 35.410156 -18.445312 35.140625 -19.15625 C 34.992188 -19.550781 34.769531 -19.898438 34.46875 -20.203125 C 34.175781 -20.503906 33.894531 -20.78125 33.625 -21.03125 C 33.34375 -21.289062 33.0625 -21.5 32.78125 -21.65625 C 32.5 -21.820312 32.21875 -22.035156 31.9375 -22.296875 L 9.875 -36.953125 L 7.859375 -36.1875 L 15.625 -15.484375 C 17.207031 -11.285156 19.878906 -9.847656 23.640625 -11.171875 L 24.390625 -9.15625 L 0.828125 -0.3125 L 0.078125 -2.328125 C 3.859375 -3.835938 4.957031 -6.691406 3.375 -10.890625 L -19.203125 -71.09375 C -20.742188 -75.207031 -23.46875 -76.675781 -27.375 -75.5 Z M -28.171875 -77.625 "/></g></g></g><g fill="#f7e0ba" fill-opacity="1"><g transform="translate(356.319323, 641.511941)"><g><path d="M 1.421875 -2.703125 C 4.222656 -3.929688 6.332031 -5.535156 7.75 -7.515625 C 9.175781 -9.503906 9.222656 -12.28125 7.890625 -15.84375 L -14.609375 -75.796875 L -14.9375 -75.96875 C -16.59375 -76.78125 -18.21875 -77.203125 -19.8125 -77.234375 C -21.40625 -77.273438 -23.015625 -77.039062 -24.640625 -76.53125 L -25.359375 -78.421875 L -5.25 -85.953125 L 46.703125 -35.71875 L 47.671875 -105.8125 L 66.953125 -113.046875 L 67.671875 -111.15625 C 65.878906 -110.382812 64.472656 -109.238281 63.453125 -107.71875 C 62.429688 -106.207031 62.351562 -104.304688 63.21875 -102.015625 L 85.796875 -41.8125 C 86.660156 -39.519531 87.96875 -38.15625 89.71875 -37.71875 C 91.46875 -37.289062 93.269531 -37.378906 95.125 -37.984375 L 95.875 -35.96875 L 69.9375 -26.234375 L 69.1875 -28.25 C 70.976562 -29.019531 72.367188 -30.132812 73.359375 -31.59375 C 74.347656 -33.050781 74.410156 -34.925781 73.546875 -37.21875 L 49.5 -101.34375 L 48.453125 -19.53125 L 45.953125 -18.59375 L -11.625 -73.65625 L 9.796875 -16.5625 C 10.859375 -13.707031 12.269531 -11.863281 14.03125 -11.03125 C 15.800781 -10.207031 17.703125 -9.96875 19.734375 -10.3125 C 21.773438 -10.664062 23.796875 -11.179688 25.796875 -11.859375 L 26.515625 -9.953125 L 2.140625 -0.796875 Z M 1.421875 -2.703125 "/></g></g></g><g fill="#f7e0ba" fill-opacity="1"><g transform="translate(446.481947, 607.686446)"><g><path d="M -7.25 -28.34375 C -9.1875 -33.507812 -10.039062 -38.617188 -9.8125 -43.671875 C -9.582031 -48.734375 -8.140625 -53.273438 -5.484375 -57.296875 C -2.835938 -61.328125 1.179688 -64.351562 6.578125 -66.375 C 11.253906 -68.132812 15.628906 -68.578125 19.703125 -67.703125 C 23.785156 -66.835938 27.382812 -64.910156 30.5 -61.921875 C 33.613281 -58.929688 36.019531 -55.175781 37.71875 -50.65625 L 37.84375 -50.296875 L 3.9375 -37.578125 L 4.5625 -35.90625 C 5.519531 -33.375 6.820312 -30.878906 8.46875 -28.421875 C 10.125 -25.960938 12.0625 -23.816406 14.28125 -21.984375 C 16.5 -20.148438 18.972656 -18.90625 21.703125 -18.25 C 24.441406 -17.601562 27.394531 -17.875 30.5625 -19.0625 C 33.5 -20.164062 36.113281 -21.941406 38.40625 -24.390625 C 40.707031 -26.835938 42.28125 -29.570312 43.125 -32.59375 L 44.484375 -32.28125 C 43.816406 -26.78125 42.410156 -22.117188 40.265625 -18.296875 C 38.128906 -14.472656 34.25 -11.503906 28.625 -9.390625 C 23.15625 -7.335938 18.082031 -6.878906 13.40625 -8.015625 C 8.738281 -9.148438 4.617188 -11.515625 1.046875 -15.109375 C -2.515625 -18.703125 -5.28125 -23.113281 -7.25 -28.34375 Z M 3.171875 -40.40625 L 3.484375 -39.578125 L 24.421875 -47.421875 L 24.109375 -48.25 C 23.484375 -49.644531 22.582031 -51.363281 21.40625 -53.40625 C 20.226562 -55.445312 18.847656 -57.4375 17.265625 -59.375 C 15.679688 -61.320312 13.972656 -62.8125 12.140625 -63.84375 C 10.304688 -64.882812 8.476562 -65.0625 6.65625 -64.375 C 4.757812 -63.664062 3.4375 -62.304688 2.6875 -60.296875 C 1.9375 -58.296875 1.53125 -56.046875 1.46875 -53.546875 C 1.414062 -51.046875 1.585938 -48.597656 1.984375 -46.203125 C 2.390625 -43.816406 2.785156 -41.882812 3.171875 -40.40625 Z M 3.171875 -40.40625 "/></g></g></g></svg>