<svg xmlns="http://www.w3.org/2000/svg" xmlns:xlink="http://www.w3.org/1999/xlink" width="1080" zoomAndPan="magnify" viewBox="0 0 810 809.999993" height="1080" preserveAspectRatio="xMidYMid meet" version="1.0"><defs><clipPath id="3c2519c6dc"><path d="M 162 441 L 316 441 L 316 604 L 162 604 Z M 162 441 " clip-rule="nonzero"/></clipPath><clipPath id="6be0e7b631"><path d="M 197.34375 417.203125 L 345.515625 484.53125 L 280.671875 627.238281 L 132.5 559.914062 Z M 197.34375 417.203125 " clip-rule="nonzero"/></clipPath><clipPath id="9a5e1440cd"><path d="M 197.34375 417.203125 L 345.515625 484.53125 L 280.671875 627.238281 L 132.5 559.914062 Z M 197.34375 417.203125 " clip-rule="nonzero"/></clipPath><clipPath id="a89583fcd2"><path d="M 229 512 L 249 512 L 249 532 L 229 532 Z M 229 512 " clip-rule="nonzero"/></clipPath><clipPath id="f0436d53a2"><path d="M 197.34375 417.203125 L 345.515625 484.53125 L 280.671875 627.238281 L 132.5 559.914062 Z M 197.34375 417.203125 " clip-rule="nonzero"/></clipPath><clipPath id="6e73d597b8"><path d="M 197.34375 417.203125 L 345.515625 484.53125 L 280.671875 627.238281 L 132.5 559.914062 Z M 197.34375 417.203125 " clip-rule="nonzero"/></clipPath></defs><g clip-path="url(#3c2519c6dc)"><g clip-path="url(#6be0e7b631)"><g clip-path="url(#9a5e1440cd)"><path fill="#e44c10" d="M 304.984375 474.925781 C 314.324219 487.988281 311.863281 506.066406 299.75 516.222656 C 313.59375 523.84375 319.503906 541.109375 312.859375 555.730469 C 306.21875 570.347656 289.324219 577.257812 274.480469 571.84375 C 274.796875 587.644531 262.796875 601.394531 246.8125 602.949219 C 230.832031 604.507812 216.40625 593.335938 213.671875 577.765625 C 200.140625 585.945312 182.238281 582.429688 172.898438 569.363281 C 163.558594 556.300781 166.019531 538.21875 178.140625 528.066406 C 164.292969 520.445312 158.382812 503.179688 165.027344 488.558594 C 171.671875 473.941406 188.5625 467.035156 203.414062 472.449219 C 203.089844 456.644531 215.089844 442.894531 231.070312 441.339844 C 247.054688 439.785156 261.480469 450.957031 264.21875 466.527344 C 277.742188 458.34375 295.652344 461.863281 304.984375 474.925781 Z M 304.984375 474.925781 " fill-opacity="1" fill-rule="evenodd"/></g></g></g><g clip-path="url(#a89583fcd2)"><g clip-path="url(#f0436d53a2)"><g clip-path="url(#6e73d597b8)"><path fill="#e44c10" d="M 247.738281 526.140625 C 247.476562 526.71875 247.160156 527.265625 246.789062 527.78125 C 246.417969 528.296875 246.003906 528.769531 245.539062 529.203125 C 245.074219 529.636719 244.574219 530.019531 244.035156 530.355469 C 243.496094 530.691406 242.929688 530.96875 242.335938 531.191406 C 241.742188 531.414062 241.132812 531.578125 240.503906 531.679688 C 239.878906 531.78125 239.25 531.824219 238.617188 531.800781 C 237.980469 531.78125 237.355469 531.695312 236.738281 531.550781 C 236.121094 531.40625 235.523438 531.203125 234.945312 530.941406 C 234.367188 530.679688 233.820312 530.363281 233.304688 529.992188 C 232.789062 529.621094 232.316406 529.207031 231.882812 528.742188 C 231.449219 528.277344 231.066406 527.777344 230.730469 527.238281 C 230.398438 526.699219 230.117188 526.132812 229.894531 525.539062 C 229.671875 524.945312 229.511719 524.335938 229.40625 523.707031 C 229.304688 523.082031 229.265625 522.453125 229.285156 521.820312 C 229.308594 521.183594 229.390625 520.558594 229.535156 519.941406 C 229.679688 519.324219 229.882812 518.726562 230.144531 518.148438 C 230.40625 517.570312 230.722656 517.023438 231.09375 516.507812 C 231.464844 515.992188 231.882812 515.519531 232.34375 515.085938 C 232.808594 514.652344 233.308594 514.269531 233.847656 513.933594 C 234.386719 513.601562 234.953125 513.320312 235.546875 513.097656 C 236.140625 512.875 236.753906 512.714844 237.378906 512.609375 C 238.003906 512.507812 238.632812 512.46875 239.269531 512.488281 C 239.902344 512.511719 240.527344 512.59375 241.144531 512.738281 C 241.761719 512.882812 242.359375 513.085938 242.9375 513.347656 C 243.515625 513.613281 244.0625 513.929688 244.578125 514.296875 C 245.09375 514.667969 245.566406 515.085938 246 515.546875 C 246.433594 516.011719 246.816406 516.511719 247.152344 517.050781 C 247.484375 517.589844 247.765625 518.15625 247.988281 518.75 C 248.210938 519.34375 248.375 519.957031 248.476562 520.582031 C 248.578125 521.207031 248.621094 521.835938 248.597656 522.472656 C 248.578125 523.105469 248.492188 523.730469 248.347656 524.347656 C 248.203125 524.964844 248 525.5625 247.738281 526.140625 Z M 247.738281 526.140625 " fill-opacity="1" fill-rule="nonzero"/></g></g></g></svg>