<svg xmlns="http://www.w3.org/2000/svg" xmlns:xlink="http://www.w3.org/1999/xlink" width="1080" zoomAndPan="magnify" viewBox="0 0 810 809.999993" height="1080" preserveAspectRatio="xMidYMid meet" version="1.0"><defs><clipPath id="3447477cdc"><path d="M 289 324 L 443 324 L 443 486 L 289 486 Z M 289 324 " clip-rule="nonzero"/></clipPath><clipPath id="c80e37f43b"><path d="M 324.664062 300.046875 L 472.835938 367.371094 L 407.992188 510.082031 L 259.820312 442.757812 Z M 324.664062 300.046875 " clip-rule="nonzero"/></clipPath><clipPath id="c6c11f5418"><path d="M 324.664062 300.046875 L 472.835938 367.371094 L 407.992188 510.082031 L 259.820312 442.757812 Z M 324.664062 300.046875 " clip-rule="nonzero"/></clipPath><clipPath id="42916b3d61"><path d="M 356 395 L 376 395 L 376 415 L 356 415 Z M 356 395 " clip-rule="nonzero"/></clipPath><clipPath id="848cc2cc35"><path d="M 324.664062 300.046875 L 472.835938 367.371094 L 407.992188 510.082031 L 259.820312 442.757812 Z M 324.664062 300.046875 " clip-rule="nonzero"/></clipPath><clipPath id="5b7759341e"><path d="M 324.664062 300.046875 L 472.835938 367.371094 L 407.992188 510.082031 L 259.820312 442.757812 Z M 324.664062 300.046875 " clip-rule="nonzero"/></clipPath></defs><g clip-path="url(#3447477cdc)"><g clip-path="url(#c80e37f43b)"><g clip-path="url(#c6c11f5418)"><path fill="#f7e0ba" d="M 432.304688 357.769531 C 441.644531 370.832031 439.183594 388.910156 427.070312 399.066406 C 440.914062 406.6875 446.824219 423.953125 440.179688 438.574219 C 433.539062 453.191406 416.644531 460.101562 401.796875 454.683594 C 402.117188 470.488281 390.117188 484.238281 374.132812 485.792969 C 358.152344 487.351562 343.726562 476.179688 340.992188 460.609375 C 327.460938 468.789062 309.558594 465.273438 300.21875 452.207031 C 290.878906 439.144531 293.339844 421.0625 305.460938 410.910156 C 291.613281 403.289062 285.703125 386.023438 292.347656 371.402344 C 298.988281 356.785156 315.882812 349.878906 330.730469 355.292969 C 330.410156 339.488281 342.40625 325.738281 358.390625 324.183594 C 374.375 322.628906 388.800781 333.800781 391.535156 349.371094 C 405.0625 341.1875 422.96875 344.707031 432.304688 357.769531 Z M 432.304688 357.769531 " fill-opacity="1" fill-rule="evenodd"/></g></g></g><g clip-path="url(#42916b3d61)"><g clip-path="url(#848cc2cc35)"><g clip-path="url(#5b7759341e)"><path fill="#f7e0ba" d="M 375.058594 408.984375 C 374.796875 409.5625 374.480469 410.109375 374.109375 410.625 C 373.738281 411.140625 373.320312 411.613281 372.859375 412.046875 C 372.394531 412.480469 371.894531 412.863281 371.355469 413.199219 C 370.816406 413.53125 370.25 413.8125 369.65625 414.035156 C 369.0625 414.257812 368.453125 414.421875 367.824219 414.523438 C 367.199219 414.625 366.570312 414.664062 365.933594 414.644531 C 365.300781 414.625 364.675781 414.539062 364.058594 414.394531 C 363.441406 414.25 362.84375 414.046875 362.265625 413.785156 C 361.6875 413.523438 361.140625 413.207031 360.625 412.835938 C 360.109375 412.464844 359.636719 412.050781 359.203125 411.585938 C 358.769531 411.121094 358.386719 410.621094 358.050781 410.082031 C 357.71875 409.542969 357.4375 408.976562 357.214844 408.382812 C 356.992188 407.789062 356.828125 407.179688 356.726562 406.550781 C 356.625 405.925781 356.585938 405.296875 356.605469 404.664062 C 356.625 404.027344 356.710938 403.402344 356.855469 402.785156 C 357 402.167969 357.203125 401.570312 357.464844 400.992188 C 357.726562 400.414062 358.042969 399.867188 358.414062 399.351562 C 358.785156 398.835938 359.199219 398.363281 359.664062 397.929688 C 360.128906 397.496094 360.628906 397.113281 361.167969 396.777344 C 361.707031 396.445312 362.273438 396.164062 362.867188 395.941406 C 363.460938 395.71875 364.070312 395.558594 364.699219 395.453125 C 365.324219 395.351562 365.953125 395.3125 366.589844 395.332031 C 367.222656 395.355469 367.847656 395.4375 368.464844 395.582031 C 369.082031 395.726562 369.679688 395.929688 370.257812 396.191406 C 370.835938 396.453125 371.382812 396.769531 371.898438 397.140625 C 372.414062 397.511719 372.886719 397.929688 373.320312 398.390625 C 373.753906 398.855469 374.136719 399.355469 374.472656 399.894531 C 374.804688 400.433594 375.085938 401 375.308594 401.59375 C 375.53125 402.1875 375.691406 402.796875 375.796875 403.425781 C 375.898438 404.050781 375.9375 404.679688 375.917969 405.316406 C 375.894531 405.949219 375.8125 406.574219 375.667969 407.191406 C 375.523438 407.808594 375.320312 408.40625 375.058594 408.984375 Z M 375.058594 408.984375 " fill-opacity="1" fill-rule="nonzero"/></g></g></g></svg>