<svg xmlns="http://www.w3.org/2000/svg" xmlns:xlink="http://www.w3.org/1999/xlink" width="1080" zoomAndPan="magnify" viewBox="0 0 810 809.999993" height="1080" preserveAspectRatio="xMidYMid meet" version="1.0"><defs><g/><clipPath id="b6ee36a6c0"><path d="M 65 38 L 575 38 L 575 357 L 65 357 Z M 65 38 " clip-rule="nonzero"/></clipPath><clipPath id="b0a9e946c7"><path d="M 25.46875 96.886719 L 528.605469 0.699219 L 578.320312 260.742188 L 75.179688 356.925781 Z M 25.46875 96.886719 " clip-rule="nonzero"/></clipPath><clipPath id="ab3e6019d2"><path d="M 25.46875 96.886719 L 528.605469 0.699219 L 578.320312 260.742188 L 75.179688 356.925781 Z M 25.46875 96.886719 " clip-rule="nonzero"/></clipPath></defs><g clip-path="url(#b6ee36a6c0)"><g clip-path="url(#b0a9e946c7)"><g clip-path="url(#ab3e6019d2)"><path fill="#fbeeda" d="M 75.007812 356.015625 C 71.195312 330.667969 68.246094 302.9375 66.839844 273.097656 C 65.988281 255.074219 65.777344 237.816406 66.042969 221.414062 C 68.816406 210.714844 72.867188 198.84375 78.847656 186.4375 C 98.429688 145.828125 128.25 121.160156 147.257812 108.167969 C 170.59375 93.265625 193.925781 78.359375 217.261719 63.457031 C 234.59375 59.078125 251.929688 54.695312 269.265625 50.316406 C 285.316406 48.457031 301.460938 46.636719 317.703125 44.859375 C 333.757812 43.101562 349.734375 41.40625 365.625 39.769531 C 371.324219 39.101562 378.519531 38.652344 386.808594 39.082031 C 397.976562 39.664062 406.519531 41.601562 410.402344 42.574219 C 417.347656 44.3125 426.457031 47.257812 436.484375 52.433594 C 442.851562 55.199219 451.960938 59.605469 462.132812 66.222656 C 475.910156 75.1875 496.484375 92.652344 525.214844 136.089844 C 547.488281 169.769531 553.917969 210.96875 574.964844 244.574219 C 528.460938 257.085938 481.957031 269.597656 435.453125 282.109375 C 328.394531 294.988281 274.433594 306.261719 244.84375 314.429688 C 227.539062 319.207031 205.152344 325.640625 171.265625 333.351562 C 155.171875 337.011719 138.3125 339.359375 122.585938 344.140625 C 112.953125 347.070312 101.992188 349.21875 92.578125 352.632812 C 87.597656 354.441406 80.332031 355.253906 75.007812 356.015625 Z M 75.007812 356.015625 " fill-opacity="1" fill-rule="nonzero"/></g></g></g><g fill="#ba0105" fill-opacity="1"><g transform="translate(110.265206, 275.012751)"><g><path d="M -21.671875 -88.09375 L 7.875 -95.703125 L 8.421875 -93.546875 C 6.367188 -92.921875 4.71875 -91.84375 3.46875 -90.3125 C 2.21875 -88.78125 1.929688 -86.703125 2.609375 -84.078125 L 22.484375 -8.09375 L 34.140625 -11.09375 C 38.390625 -12.1875 42.460938 -13.863281 46.359375 -16.125 C 50.265625 -18.382812 53.628906 -21.226562 56.453125 -24.65625 C 59.285156 -28.082031 61.160156 -32.128906 62.078125 -36.796875 L 64.28125 -37.21875 L 63.984375 -16.484375 L 0.953125 -0.25 L 0.359375 -2.546875 C 2.410156 -3.171875 4.085938 -4.226562 5.390625 -5.71875 C 6.691406 -7.207031 7.003906 -9.265625 6.328125 -11.890625 L -11.34375 -80.484375 C -12.019531 -83.109375 -13.296875 -84.78125 -15.171875 -85.5 C -17.046875 -86.226562 -19.03125 -86.375 -21.125 -85.9375 Z M -21.671875 -88.09375 "/></g></g></g><g fill="#ba0105" fill-opacity="1"><g transform="translate(172.218229, 259.051316)"><g><path d="M -12.859375 -56.125 L 5.9375 -67.890625 L 19.484375 -15.28125 C 20.722656 -10.488281 23.476562 -8.59375 27.75 -9.59375 L 28.34375 -7.296875 L 1.5 -0.390625 L 0.90625 -2.6875 C 5.21875 -3.894531 6.753906 -6.894531 5.515625 -11.6875 L -3.796875 -47.875 C -5.015625 -52.570312 -7.820312 -54.503906 -12.21875 -53.671875 Z M -16.875 -79.515625 C -17.519531 -82.046875 -17.171875 -84.441406 -15.828125 -86.703125 C -14.484375 -88.972656 -12.546875 -90.4375 -10.015625 -91.09375 C -7.484375 -91.738281 -5.054688 -91.398438 -2.734375 -90.078125 C -0.421875 -88.753906 1.054688 -86.828125 1.703125 -84.296875 C 2.359375 -81.765625 1.976562 -79.300781 0.5625 -76.90625 C -0.84375 -74.519531 -2.765625 -73.015625 -5.203125 -72.390625 C -7.734375 -71.734375 -10.144531 -72.125 -12.4375 -73.5625 C -14.738281 -75 -16.21875 -76.984375 -16.875 -79.515625 Z M -16.875 -79.515625 "/></g></g></g><g fill="#ba0105" fill-opacity="1"><g transform="translate(193.366114, 253.602823)"><g><path d="M -13.265625 -56.015625 L 5.53125 -67.796875 L 7.65625 -59.515625 L 8.65625 -62.359375 C 9.988281 -65.796875 12.097656 -68.441406 14.984375 -70.296875 C 17.878906 -72.148438 21.003906 -73.507812 24.359375 -74.375 C 30.222656 -75.882812 35.375 -75.691406 39.8125 -73.796875 C 44.257812 -71.898438 47.273438 -67.878906 48.859375 -61.734375 L 58.25 -25.265625 C 58.882812 -22.828125 59.847656 -21.148438 61.140625 -20.234375 C 62.441406 -19.316406 64.234375 -19.097656 66.515625 -19.578125 L 67.109375 -17.28125 L 40.265625 -10.375 L 39.671875 -12.671875 C 43.984375 -13.878906 45.519531 -16.878906 44.28125 -21.671875 L 34.96875 -57.859375 C 34.351562 -60.210938 33.332031 -62.382812 31.90625 -64.375 C 30.488281 -66.375 28.722656 -67.898438 26.609375 -68.953125 C 24.503906 -70.003906 22.054688 -70.171875 19.265625 -69.453125 C 16.921875 -68.835938 14.925781 -67.5 13.28125 -65.4375 C 11.644531 -63.382812 10.507812 -61.070312 9.875 -58.5 C 9.238281 -55.925781 9.203125 -53.550781 9.765625 -51.375 L 19.078125 -15.1875 C 20.316406 -10.394531 23.070312 -8.5 27.34375 -9.5 L 27.9375 -7.203125 L 1.09375 -0.28125 L 0.5 -2.578125 C 4.8125 -3.785156 6.347656 -6.785156 5.109375 -11.578125 L -4.203125 -47.765625 C -5.421875 -52.460938 -8.226562 -54.394531 -12.625 -53.5625 Z M -13.265625 -56.015625 "/></g></g></g><g fill="#ba0105" fill-opacity="1"><g transform="translate(252.743408, 238.304993)"><g><path d="M -21.75 -88.375 L -2.921875 -100 L 12.296875 -40.90625 L 15.546875 -41.75 L 25.921875 -56.546875 C 26.460938 -57.367188 27.125 -58.429688 27.90625 -59.734375 C 28.6875 -61.046875 29.316406 -62.4375 29.796875 -63.90625 C 30.285156 -65.382812 30.378906 -66.707031 30.078125 -67.875 C 29.753906 -69.144531 29.144531 -70.003906 28.25 -70.453125 C 27.363281 -70.898438 26.484375 -71.15625 25.609375 -71.21875 L 24.984375 -73.65625 L 46.796875 -79.265625 L 47.390625 -76.96875 C 45.441406 -76.28125 43.421875 -74.847656 41.328125 -72.671875 C 39.242188 -70.492188 37.273438 -68.148438 35.421875 -65.640625 C 33.222656 -62.953125 31.195312 -60.238281 29.34375 -57.5 C 27.5 -54.769531 26 -52.628906 24.84375 -51.078125 L 24.359375 -50.234375 L 55.546875 -24 C 57.253906 -22.601562 59.023438 -21.441406 60.859375 -20.515625 C 62.691406 -19.597656 64.757812 -19.332031 67.0625 -19.71875 L 67.65625 -17.421875 L 37.96875 -9.78125 L 37.375 -12.078125 C 38.175781 -12.285156 38.847656 -12.65625 39.390625 -13.1875 C 39.859375 -13.59375 40.257812 -14.101562 40.59375 -14.71875 C 40.925781 -15.34375 40.988281 -16.0625 40.78125 -16.875 C 40.65625 -17.320312 40.445312 -17.726562 40.15625 -18.09375 C 39.875 -18.457031 39.59375 -18.789062 39.3125 -19.09375 C 39.050781 -19.40625 38.769531 -19.664062 38.46875 -19.875 C 38.164062 -20.09375 37.878906 -20.359375 37.609375 -20.671875 L 15.15625 -39.328125 L 12.859375 -38.734375 L 18.9375 -15.140625 C 20.175781 -10.347656 22.929688 -8.453125 27.203125 -9.453125 L 27.796875 -7.15625 L 0.953125 -0.25 L 0.359375 -2.546875 C 4.671875 -3.753906 6.207031 -6.753906 4.96875 -11.546875 L -12.703125 -80.140625 C -13.910156 -84.847656 -16.71875 -86.78125 -21.125 -85.9375 Z M -21.75 -88.375 "/></g></g></g><g fill="#ba0105" fill-opacity="1"><g transform="translate(312.256248, 222.972241)"><g><path d="M -4.609375 -31.921875 C -6.117188 -37.796875 -6.453125 -43.488281 -5.609375 -49 C -4.765625 -54.519531 -2.65625 -59.328125 0.71875 -63.421875 C 4.09375 -67.523438 8.851562 -70.375 15 -71.96875 C 20.332031 -73.332031 25.179688 -73.300781 29.546875 -71.875 C 33.921875 -70.445312 37.632812 -67.910156 40.6875 -64.265625 C 43.75 -60.617188 45.945312 -56.21875 47.28125 -51.0625 L 47.375 -50.65625 L 8.734375 -40.703125 L 9.234375 -38.8125 C 9.972656 -35.914062 11.097656 -33.023438 12.609375 -30.140625 C 14.128906 -27.253906 16 -24.675781 18.21875 -22.40625 C 20.445312 -20.132812 23.019531 -18.484375 25.9375 -17.453125 C 28.851562 -16.421875 32.117188 -16.367188 35.734375 -17.296875 C 39.078125 -18.160156 42.148438 -19.796875 44.953125 -22.203125 C 47.765625 -24.609375 49.8125 -27.425781 51.09375 -30.65625 L 52.515625 -30.140625 C 51.160156 -24.210938 49.085938 -19.273438 46.296875 -15.328125 C 43.503906 -11.378906 38.898438 -8.578125 32.484375 -6.921875 C 26.234375 -5.304688 20.613281 -5.398438 15.625 -7.203125 C 10.632812 -9.003906 6.398438 -12.082031 2.921875 -16.4375 C -0.554688 -20.789062 -3.066406 -25.953125 -4.609375 -31.921875 Z M 8.21875 -43.890625 L 8.46875 -42.953125 L 32.328125 -49.09375 L 32.078125 -50.03125 C 31.566406 -51.644531 30.785156 -53.640625 29.734375 -56.015625 C 28.691406 -58.398438 27.414062 -60.742188 25.90625 -63.046875 C 24.394531 -65.359375 22.691406 -67.1875 20.796875 -68.53125 C 18.910156 -69.882812 16.929688 -70.289062 14.859375 -69.75 C 12.679688 -69.195312 11.066406 -67.867188 10.015625 -65.765625 C 8.972656 -63.660156 8.273438 -61.234375 7.921875 -58.484375 C 7.566406 -55.742188 7.46875 -53.046875 7.625 -50.390625 C 7.78125 -47.734375 7.976562 -45.566406 8.21875 -43.890625 Z M 8.21875 -43.890625 "/></g></g></g><g fill="#ba0105" fill-opacity="1"><g transform="translate(364.584144, 209.490602)"><g><path d="M 26.53125 -6.984375 C 20.664062 -5.472656 15.648438 -5.769531 11.484375 -7.875 C 7.328125 -9.976562 3.898438 -13.265625 1.203125 -17.734375 C -1.484375 -22.203125 -3.515625 -27.101562 -4.890625 -32.4375 C -6.492188 -38.664062 -7.019531 -44.453125 -6.46875 -49.796875 C -5.925781 -55.148438 -4.023438 -59.738281 -0.765625 -63.5625 C 2.492188 -67.382812 7.378906 -70.132812 13.890625 -71.8125 C 15.960938 -72.34375 18.148438 -72.710938 20.453125 -72.921875 C 22.765625 -73.140625 24.8125 -72.800781 26.59375 -71.90625 L 28.421875 -70.921875 L 23.625 -89.5 C 22.414062 -94.207031 19.65625 -96.148438 15.34375 -95.328125 L 14.71875 -97.765625 L 33.40625 -109.359375 L 53.421875 -31.6875 C 54.679688 -26.800781 57.492188 -24.875 61.859375 -25.90625 L 62.515625 -23.34375 L 43.671875 -11.6875 L 41.375 -20.625 L 40.25 -17.75 C 39.132812 -14.945312 37.289062 -12.640625 34.71875 -10.828125 C 32.15625 -9.015625 29.425781 -7.734375 26.53125 -6.984375 Z M 18.40625 -70.53125 C 15.15625 -69.6875 12.78125 -67.769531 11.28125 -64.78125 C 9.789062 -61.789062 8.914062 -58.359375 8.65625 -54.484375 C 8.394531 -50.617188 8.488281 -46.789062 8.9375 -43 C 9.382812 -39.207031 9.925781 -36.085938 10.5625 -33.640625 C 11.070312 -31.660156 11.84375 -29.3125 12.875 -26.59375 C 13.90625 -23.875 15.265625 -21.304688 16.953125 -18.890625 C 18.640625 -16.484375 20.640625 -14.613281 22.953125 -13.28125 C 25.273438 -11.957031 27.976562 -11.691406 31.0625 -12.484375 C 33.394531 -13.085938 35.304688 -14.328125 36.796875 -16.203125 C 38.296875 -18.085938 39.410156 -20.039062 40.140625 -22.0625 C 40.179688 -22.257812 40.269531 -22.472656 40.40625 -22.703125 C 40.445312 -22.910156 40.488281 -23.113281 40.53125 -23.3125 C 40.582031 -23.507812 40.570312 -23.742188 40.5 -24.015625 L 29.59375 -66.328125 C 29.457031 -66.867188 29.207031 -67.28125 28.84375 -67.5625 C 28.570312 -67.5 28.390625 -67.648438 28.296875 -68.015625 C 26.929688 -69.203125 25.394531 -70.03125 23.6875 -70.5 C 21.976562 -70.976562 20.21875 -70.988281 18.40625 -70.53125 Z M 18.40625 -70.53125 "/></g></g></g><g fill="#ba0105" fill-opacity="1"><g transform="translate(421.114565, 194.926234)"><g><path d="M -19.09375 -88.75 L 10.453125 -96.359375 L 11 -94.203125 C 8.9375 -93.578125 7.285156 -92.5 6.046875 -90.96875 C 4.804688 -89.445312 4.523438 -87.375 5.203125 -84.75 L 22.875 -16.15625 C 23.550781 -13.53125 24.796875 -11.875 26.609375 -11.1875 C 28.421875 -10.5 30.378906 -10.375 32.484375 -10.8125 L 33.078125 -8.515625 L 3.53125 -0.90625 L 2.9375 -3.203125 C 4.988281 -3.835938 6.664062 -4.898438 7.96875 -6.390625 C 9.269531 -7.878906 9.582031 -9.9375 8.90625 -12.5625 L -8.765625 -81.15625 C -9.441406 -83.78125 -10.71875 -85.453125 -12.59375 -86.171875 C -14.46875 -86.898438 -16.453125 -87.039062 -18.546875 -86.59375 Z M -19.09375 -88.75 "/></g></g></g><g fill="#ba0105" fill-opacity="1"><g transform="translate(448.634033, 187.836181)"><g><path d="M -13.265625 -56.015625 L 5.53125 -67.796875 L 7.65625 -59.515625 L 8.65625 -62.359375 C 9.988281 -65.796875 12.097656 -68.441406 14.984375 -70.296875 C 17.878906 -72.148438 21.003906 -73.507812 24.359375 -74.375 C 30.222656 -75.882812 35.375 -75.691406 39.8125 -73.796875 C 44.257812 -71.898438 47.273438 -67.878906 48.859375 -61.734375 L 58.25 -25.265625 C 58.882812 -22.828125 59.847656 -21.148438 61.140625 -20.234375 C 62.441406 -19.316406 64.234375 -19.097656 66.515625 -19.578125 L 67.109375 -17.28125 L 40.265625 -10.375 L 39.671875 -12.671875 C 43.984375 -13.878906 45.519531 -16.878906 44.28125 -21.671875 L 34.96875 -57.859375 C 34.351562 -60.210938 33.332031 -62.382812 31.90625 -64.375 C 30.488281 -66.375 28.722656 -67.898438 26.609375 -68.953125 C 24.503906 -70.003906 22.054688 -70.171875 19.265625 -69.453125 C 16.921875 -68.835938 14.925781 -67.5 13.28125 -65.4375 C 11.644531 -63.382812 10.507812 -61.070312 9.875 -58.5 C 9.238281 -55.925781 9.203125 -53.550781 9.765625 -51.375 L 19.078125 -15.1875 C 20.316406 -10.394531 23.070312 -8.5 27.34375 -9.5 L 27.9375 -7.203125 L 1.09375 -0.28125 L 0.5 -2.578125 C 4.8125 -3.785156 6.347656 -6.785156 5.109375 -11.578125 L -4.203125 -47.765625 C -5.421875 -52.460938 -8.226562 -54.394531 -12.625 -53.5625 Z M -13.265625 -56.015625 "/></g></g></g></svg>