<svg xmlns="http://www.w3.org/2000/svg" xmlns:xlink="http://www.w3.org/1999/xlink" width="816" zoomAndPan="magnify" viewBox="0 0 612 395.999985" height="528" preserveAspectRatio="xMidYMid meet" version="1.0"><defs><g/></defs><rect x="-61.2" width="734.4" fill="#ffffff" y="-39.599999" height="475.199982" fill-opacity="1"/><rect x="-61.2" width="734.4" fill="#fbfbfb" y="-39.599999" height="475.199982" fill-opacity="1"/><path fill="#2b2b2b" d="M 48.546875 161.351562 L 322.976562 161.351562 L 322.976562 164.320312 L 48.546875 164.320312 Z M 48.546875 161.351562 " fill-opacity="1" fill-rule="nonzero"/><g fill="#2b2b2b" fill-opacity="1"><g transform="translate(48.545511, 158.380809)"><g><path d="M 3.359375 1.234375 L -0.203125 1.234375 L 10.1875 -29.796875 L 13.734375 -29.796875 Z M 3.359375 1.234375 "/></g></g></g><g fill="#2b2b2b" fill-opacity="1"><g transform="translate(63.817303, 158.380809)"><g><path d="M 24.296875 -4.515625 L 24.296875 0 L 3.6875 0 L 3.6875 -28.5625 L 23.875 -28.5625 L 23.875 -24.09375 L 9.390625 -24.09375 L 9.390625 -16.5625 L 22.84375 -16.5625 L 22.84375 -12.046875 L 9.390625 -12.046875 L 9.390625 -4.515625 Z M 24.296875 -4.515625 "/></g></g></g><g fill="#2b2b2b" fill-opacity="1"><g transform="translate(91.049315, 158.380809)"><g><path d="M 17.171875 -28.390625 C 20.703125 -27.972656 23.546875 -26.617188 25.703125 -24.328125 C 27.859375 -22.046875 28.9375 -18.820312 28.9375 -14.65625 C 28.9375 -10.457031 27.832031 -7.09375 25.625 -4.5625 C 23.414062 -2.039062 20.570312 -0.578125 17.09375 -0.171875 C 16.125 -0.0546875 14.910156 0 13.453125 0 L 3.6875 0 L 3.6875 -28.5625 L 13.53125 -28.5625 C 15 -28.5625 16.210938 -28.503906 17.171875 -28.390625 Z M 15.8125 -4.640625 C 17.988281 -4.910156 19.710938 -5.914062 20.984375 -7.65625 C 22.253906 -9.394531 22.890625 -11.695312 22.890625 -14.5625 C 22.890625 -17.320312 22.265625 -19.503906 21.015625 -21.109375 C 19.773438 -22.710938 18.082031 -23.648438 15.9375 -23.921875 C 15.082031 -24.035156 14.0625 -24.09375 12.875 -24.09375 L 9.390625 -24.09375 L 9.390625 -4.515625 L 12.796875 -4.515625 C 14.203125 -4.515625 15.207031 -4.554688 15.8125 -4.640625 Z M 15.8125 -4.640625 "/></g></g></g><g fill="#2b2b2b" fill-opacity="1"><g transform="translate(123.040605, 158.380809)"><g><path d="M 26.859375 -28.5625 L 26.859375 -11.625 C 26.859375 -10.28125 26.832031 -9.164062 26.78125 -8.28125 C 26.582031 -5.6875 25.523438 -3.5625 23.609375 -1.90625 C 21.691406 -0.25 18.859375 0.578125 15.109375 0.578125 C 11.328125 0.578125 8.476562 -0.25 6.5625 -1.90625 C 4.644531 -3.5625 3.585938 -5.6875 3.390625 -8.28125 C 3.335938 -9.164062 3.3125 -10.28125 3.3125 -11.625 L 3.3125 -28.5625 L 8.984375 -28.5625 L 8.984375 -11.046875 C 8.984375 -10.085938 9.007812 -9.398438 9.0625 -8.984375 C 9.195312 -7.296875 9.769531 -5.988281 10.78125 -5.0625 C 11.789062 -4.144531 13.234375 -3.6875 15.109375 -3.6875 C 16.953125 -3.6875 18.378906 -4.144531 19.390625 -5.0625 C 20.398438 -5.988281 20.972656 -7.296875 21.109375 -8.984375 C 21.160156 -9.398438 21.1875 -10.085938 21.1875 -11.046875 L 21.1875 -28.5625 Z M 26.859375 -28.5625 "/></g></g></g><g fill="#2b2b2b" fill-opacity="1"><g transform="translate(153.831723, 158.380809)"><g><path d="M 15.9375 -29.140625 C 19.65625 -29.140625 22.5625 -28.234375 24.65625 -26.421875 C 26.757812 -24.617188 27.960938 -22.238281 28.265625 -19.28125 L 28.3125 -18.875 L 22.59375 -18.875 L 22.515625 -19.28125 C 21.773438 -23.007812 19.554688 -24.875 15.859375 -24.875 C 13.535156 -24.875 11.671875 -23.941406 10.265625 -22.078125 C 8.859375 -20.210938 8.15625 -17.671875 8.15625 -14.453125 C 8.15625 -10.992188 8.859375 -8.332031 10.265625 -6.46875 C 11.671875 -4.613281 13.503906 -3.6875 15.765625 -3.6875 C 17.585938 -3.6875 19.050781 -4.195312 20.15625 -5.21875 C 21.257812 -6.238281 22.003906 -7.660156 22.390625 -9.484375 L 22.46875 -9.890625 L 28.140625 -9.890625 L 28.109375 -9.484375 C 27.804688 -6.390625 26.535156 -3.9375 24.296875 -2.125 C 22.054688 -0.320312 19.128906 0.578125 15.515625 0.578125 C 11.492188 0.578125 8.253906 -0.742188 5.796875 -3.390625 C 3.335938 -6.046875 2.109375 -9.617188 2.109375 -14.109375 C 2.109375 -18.691406 3.40625 -22.34375 6 -25.0625 C 8.59375 -27.78125 11.90625 -29.140625 15.9375 -29.140625 Z M 15.9375 -29.140625 "/></g></g></g><g fill="#2b2b2b" fill-opacity="1"><g transform="translate(185.285016, 158.380809)"><g><path d="M 19.15625 -8.609375 L 9.5625 -8.609375 L 6.703125 0 L 0.625 0 L 10.921875 -28.5625 L 18.09375 -28.5625 L 28.1875 0 L 21.984375 0 Z M 14.40625 -23.671875 L 11.015625 -13.125 L 17.71875 -13.125 Z M 14.40625 -23.671875 "/></g></g></g><g fill="#2b2b2b" fill-opacity="1"><g transform="translate(215.000146, 158.380809)"><g><path d="M 26.03125 -24.09375 L 16.34375 -24.09375 L 16.34375 0 L 10.640625 0 L 10.640625 -24.09375 L 0.953125 -24.09375 L 0.953125 -28.5625 L 26.03125 -28.5625 Z M 26.03125 -24.09375 "/></g></g></g><g fill="#2b2b2b" fill-opacity="1"><g transform="translate(242.521854, 158.380809)"><g><path d="M 9.390625 0 L 3.6875 0 L 3.6875 -28.5625 L 9.390625 -28.5625 Z M 9.390625 0 "/></g></g></g><g fill="#2b2b2b" fill-opacity="1"><g transform="translate(256.345177, 158.380809)"><g><path d="M 16.21875 -29.140625 C 20.582031 -29.140625 24.023438 -27.789062 26.546875 -25.09375 C 29.078125 -22.40625 30.34375 -18.800781 30.34375 -14.28125 C 30.34375 -9.78125 29.078125 -6.175781 26.546875 -3.46875 C 24.023438 -0.769531 20.582031 0.578125 16.21875 0.578125 C 11.863281 0.578125 8.421875 -0.769531 5.890625 -3.46875 C 3.367188 -6.175781 2.109375 -9.78125 2.109375 -14.28125 C 2.109375 -18.800781 3.363281 -22.40625 5.875 -25.09375 C 8.382812 -27.789062 11.832031 -29.140625 16.21875 -29.140625 Z M 10.25 -6.46875 C 11.695312 -4.613281 13.6875 -3.6875 16.21875 -3.6875 C 18.757812 -3.6875 20.75 -4.625 22.1875 -6.5 C 23.625 -8.375 24.34375 -10.96875 24.34375 -14.28125 C 24.34375 -17.613281 23.625 -20.210938 22.1875 -22.078125 C 20.75 -23.941406 18.757812 -24.875 16.21875 -24.875 C 13.65625 -24.875 11.65625 -23.941406 10.21875 -22.078125 C 8.789062 -20.210938 8.078125 -17.609375 8.078125 -14.265625 C 8.078125 -10.929688 8.800781 -8.332031 10.25 -6.46875 Z M 10.25 -6.46875 "/></g></g></g><g fill="#2b2b2b" fill-opacity="1"><g transform="translate(289.743557, 158.380809)"><g><path d="M 28.765625 0 L 20.9375 0 L 9.1875 -21.6875 C 9.320312 -19.09375 9.390625 -16.164062 9.390625 -12.90625 L 9.390625 0 L 3.6875 0 L 3.6875 -28.5625 L 11.265625 -28.5625 L 23.265625 -6.453125 C 23.117188 -9.023438 23.046875 -12.019531 23.046875 -15.4375 L 23.046875 -28.5625 L 28.71875 -28.5625 Z M 28.765625 0 "/></g></g></g><g fill="#2b2b2b" fill-opacity="1"><g transform="translate(48.545511, 201.707735)"><g><path d="M 14.265625 -10.78125 C 16.828125 -10.125 18.109375 -8.519531 18.109375 -5.96875 C 18.109375 -4.25 17.570312 -2.894531 16.5 -1.90625 C 15.425781 -0.925781 14.140625 -0.328125 12.640625 -0.109375 C 11.960938 -0.0351562 11.035156 0 9.859375 0 L 2.578125 0 L 2.578125 -20 L 9.734375 -20 C 10.796875 -20 11.65625 -19.960938 12.3125 -19.890625 C 13.914062 -19.691406 15.15625 -19.144531 16.03125 -18.25 C 16.914062 -17.363281 17.359375 -16.242188 17.359375 -14.890625 C 17.359375 -12.867188 16.328125 -11.5 14.265625 -10.78125 Z M 6.578125 -16.875 L 6.578125 -11.796875 L 9.59375 -11.796875 C 10.070312 -11.796875 10.546875 -11.828125 11.015625 -11.890625 C 12.460938 -12.117188 13.1875 -12.945312 13.1875 -14.375 C 13.1875 -15.78125 12.429688 -16.582031 10.921875 -16.78125 C 10.460938 -16.84375 9.984375 -16.875 9.484375 -16.875 Z M 11.390625 -3.1875 C 12.128906 -3.25 12.734375 -3.519531 13.203125 -4 C 13.671875 -4.476562 13.90625 -5.125 13.90625 -5.9375 C 13.90625 -7.625 13.046875 -8.550781 11.328125 -8.71875 C 10.847656 -8.78125 10.375 -8.8125 9.90625 -8.8125 L 6.578125 -8.8125 L 6.578125 -3.15625 L 10.0625 -3.15625 C 10.695312 -3.15625 11.140625 -3.164062 11.390625 -3.1875 Z M 11.390625 -3.1875 "/></g></g></g><g fill="#2b2b2b" fill-opacity="1"><g transform="translate(68.803984, 201.707735)"><g><path d="M 1.796875 -3.78125 C 2.242188 -4.238281 2.820312 -4.46875 3.53125 -4.46875 C 4.25 -4.46875 4.832031 -4.238281 5.28125 -3.78125 C 5.738281 -3.320312 5.96875 -2.734375 5.96875 -2.015625 C 5.96875 -1.304688 5.738281 -0.722656 5.28125 -0.265625 C 4.832031 0.179688 4.25 0.40625 3.53125 0.40625 C 2.820312 0.40625 2.242188 0.179688 1.796875 -0.265625 C 1.347656 -0.722656 1.125 -1.304688 1.125 -2.015625 C 1.125 -2.734375 1.347656 -3.320312 1.796875 -3.78125 Z M 1.796875 -3.78125 "/></g></g></g><g fill="#2b2b2b" fill-opacity="1"><g transform="translate(77.121835, 201.707735)"><g><path d="M 9.21875 -20.40625 C 11.5 -20.40625 13.242188 -19.832031 14.453125 -18.6875 C 15.660156 -17.550781 16.378906 -16.023438 16.609375 -14.109375 L 12.515625 -14.109375 C 12.398438 -15.160156 12.050781 -15.972656 11.46875 -16.546875 C 10.894531 -17.128906 10.097656 -17.421875 9.078125 -17.421875 C 8.242188 -17.421875 7.566406 -17.21875 7.046875 -16.8125 C 6.523438 -16.40625 6.265625 -15.816406 6.265625 -15.046875 C 6.265625 -14.191406 6.578125 -13.519531 7.203125 -13.03125 C 7.828125 -12.550781 8.929688 -12.128906 10.515625 -11.765625 C 12.703125 -11.265625 14.3125 -10.5 15.34375 -9.46875 C 16.375 -8.445312 16.890625 -7.125 16.890625 -5.5 C 16.890625 -3.6875 16.175781 -2.25 14.75 -1.1875 C 13.320312 -0.125 11.570312 0.40625 9.5 0.40625 C 7.070312 0.40625 5.128906 -0.128906 3.671875 -1.203125 C 2.222656 -2.273438 1.40625 -3.84375 1.21875 -5.90625 L 5.296875 -5.90625 C 5.515625 -4.84375 6 -4.019531 6.75 -3.4375 C 7.507812 -2.863281 8.410156 -2.578125 9.453125 -2.578125 C 10.378906 -2.578125 11.15625 -2.804688 11.78125 -3.265625 C 12.40625 -3.734375 12.71875 -4.34375 12.71875 -5.09375 C 12.71875 -5.945312 12.410156 -6.632812 11.796875 -7.15625 C 11.191406 -7.675781 10.164062 -8.113281 8.71875 -8.46875 C 6.476562 -9.007812 4.804688 -9.726562 3.703125 -10.625 C 2.609375 -11.519531 2.0625 -12.828125 2.0625 -14.546875 C 2.0625 -16.328125 2.753906 -17.75 4.140625 -18.8125 C 5.535156 -19.875 7.226562 -20.40625 9.21875 -20.40625 Z M 9.21875 -20.40625 "/></g></g></g><g fill="#2b2b2b" fill-opacity="1"><g transform="translate(95.9602, 201.707735)"><g/></g></g><g fill="#2b2b2b" fill-opacity="1"><g transform="translate(102.799974, 201.707735)"><g><path d="M 2.234375 -20.5625 C 2.640625 -20.957031 3.171875 -21.15625 3.828125 -21.15625 C 4.484375 -21.15625 5.015625 -20.957031 5.421875 -20.5625 C 5.828125 -20.164062 6.03125 -19.660156 6.03125 -19.046875 C 6.03125 -18.410156 5.828125 -17.894531 5.421875 -17.5 C 5.015625 -17.113281 4.484375 -16.921875 3.828125 -16.921875 C 3.171875 -16.921875 2.640625 -17.113281 2.234375 -17.5 C 1.828125 -17.894531 1.625 -18.410156 1.625 -19.046875 C 1.625 -19.660156 1.828125 -20.164062 2.234375 -20.5625 Z M 5.828125 0 L 1.828125 0 L 1.828125 -15.421875 L 5.828125 -15.421875 Z M 5.828125 0 "/></g></g></g><g fill="#2b2b2b" fill-opacity="1"><g transform="translate(111.726443, 201.707735)"><g><path d="M 16.203125 -11.5 C 16.273438 -10.8125 16.3125 -9.875 16.3125 -8.6875 L 16.3125 0 L 12.3125 0 L 12.3125 -8.140625 C 12.3125 -9.046875 12.296875 -9.765625 12.265625 -10.296875 C 12.128906 -12.109375 11.140625 -13.015625 9.296875 -13.015625 C 8.253906 -13.015625 7.414062 -12.523438 6.78125 -11.546875 C 6.144531 -10.578125 5.828125 -9.078125 5.828125 -7.046875 L 5.828125 0 L 1.828125 0 L 1.828125 -15.421875 L 5.828125 -15.421875 L 5.828125 -12.921875 L 7.015625 -14.75 C 8.015625 -15.46875 9.25 -15.828125 10.71875 -15.828125 C 12.34375 -15.828125 13.625 -15.445312 14.5625 -14.6875 C 15.5 -13.9375 16.046875 -12.875 16.203125 -11.5 Z M 16.203125 -11.5 "/></g></g></g><g fill="#2b2b2b" fill-opacity="1"><g transform="translate(130.941587, 201.707735)"><g/></g></g><g fill="#2b2b2b" fill-opacity="1"><g transform="translate(137.781366, 201.707735)"><g><path d="M 9.21875 -20.40625 C 11.5 -20.40625 13.242188 -19.832031 14.453125 -18.6875 C 15.660156 -17.550781 16.378906 -16.023438 16.609375 -14.109375 L 12.515625 -14.109375 C 12.398438 -15.160156 12.050781 -15.972656 11.46875 -16.546875 C 10.894531 -17.128906 10.097656 -17.421875 9.078125 -17.421875 C 8.242188 -17.421875 7.566406 -17.21875 7.046875 -16.8125 C 6.523438 -16.40625 6.265625 -15.816406 6.265625 -15.046875 C 6.265625 -14.191406 6.578125 -13.519531 7.203125 -13.03125 C 7.828125 -12.550781 8.929688 -12.128906 10.515625 -11.765625 C 12.703125 -11.265625 14.3125 -10.5 15.34375 -9.46875 C 16.375 -8.445312 16.890625 -7.125 16.890625 -5.5 C 16.890625 -3.6875 16.175781 -2.25 14.75 -1.1875 C 13.320312 -0.125 11.570312 0.40625 9.5 0.40625 C 7.070312 0.40625 5.128906 -0.128906 3.671875 -1.203125 C 2.222656 -2.273438 1.40625 -3.84375 1.21875 -5.90625 L 5.296875 -5.90625 C 5.515625 -4.84375 6 -4.019531 6.75 -3.4375 C 7.507812 -2.863281 8.410156 -2.578125 9.453125 -2.578125 C 10.378906 -2.578125 11.15625 -2.804688 11.78125 -3.265625 C 12.40625 -3.734375 12.71875 -4.34375 12.71875 -5.09375 C 12.71875 -5.945312 12.410156 -6.632812 11.796875 -7.15625 C 11.191406 -7.675781 10.164062 -8.113281 8.71875 -8.46875 C 6.476562 -9.007812 4.804688 -9.726562 3.703125 -10.625 C 2.609375 -11.519531 2.0625 -12.828125 2.0625 -14.546875 C 2.0625 -16.328125 2.753906 -17.75 4.140625 -18.8125 C 5.535156 -19.875 7.226562 -20.40625 9.21875 -20.40625 Z M 9.21875 -20.40625 "/></g></g></g><g fill="#2b2b2b" fill-opacity="1"><g transform="translate(156.619736, 201.707735)"><g><path d="M 2.890625 -13.578125 C 4.304688 -15.078125 6.269531 -15.828125 8.78125 -15.828125 C 11.289062 -15.828125 13.25 -15.078125 14.65625 -13.578125 C 16.070312 -12.078125 16.78125 -10.117188 16.78125 -7.703125 C 16.78125 -5.304688 16.070312 -3.351562 14.65625 -1.84375 C 13.25 -0.34375 11.289062 0.40625 8.78125 0.40625 C 6.269531 0.40625 4.304688 -0.34375 2.890625 -1.84375 C 1.484375 -3.351562 0.78125 -5.304688 0.78125 -7.703125 C 0.78125 -10.117188 1.484375 -12.078125 2.890625 -13.578125 Z M 5.953125 -3.8125 C 6.640625 -2.875 7.582031 -2.40625 8.78125 -2.40625 C 9.976562 -2.40625 10.921875 -2.875 11.609375 -3.8125 C 12.296875 -4.75 12.640625 -6.046875 12.640625 -7.703125 C 12.640625 -9.367188 12.296875 -10.671875 11.609375 -11.609375 C 10.921875 -12.546875 9.976562 -13.015625 8.78125 -13.015625 C 7.582031 -13.015625 6.640625 -12.546875 5.953125 -11.609375 C 5.265625 -10.671875 4.921875 -9.367188 4.921875 -7.703125 C 4.921875 -6.046875 5.265625 -4.75 5.953125 -3.8125 Z M 5.953125 -3.8125 "/></g></g></g><g fill="#2b2b2b" fill-opacity="1"><g transform="translate(175.400137, 201.707735)"><g><path d="M 6.296875 -17.390625 C 6.253906 -17.117188 6.234375 -16.675781 6.234375 -16.0625 L 6.234375 -15.296875 L 9.390625 -15.296875 L 9.390625 -12.671875 L 6.234375 -12.671875 L 6.234375 0 L 2.234375 0 L 2.234375 -12.671875 L 0.578125 -12.671875 L 0.578125 -15.296875 L 2.234375 -15.296875 L 2.234375 -15.9375 C 2.234375 -16.769531 2.253906 -17.359375 2.296875 -17.703125 C 2.546875 -20.472656 4.410156 -21.859375 7.890625 -21.859375 C 8.460938 -21.859375 9.050781 -21.789062 9.65625 -21.65625 L 9.65625 -18.875 C 8.707031 -19.039062 7.925781 -18.992188 7.3125 -18.734375 C 6.707031 -18.472656 6.367188 -18.023438 6.296875 -17.390625 Z M 6.296875 -17.390625 "/></g></g></g><g fill="#2b2b2b" fill-opacity="1"><g transform="translate(186.413341, 201.707735)"><g><path d="M 6.609375 -12.671875 L 6.609375 -5.53125 C 6.609375 -4.894531 6.617188 -4.441406 6.640625 -4.171875 C 6.691406 -3.421875 6.910156 -2.929688 7.296875 -2.703125 C 7.691406 -2.484375 8.4375 -2.414062 9.53125 -2.5 L 9.53125 0.109375 C 8.707031 0.242188 7.828125 0.3125 6.890625 0.3125 C 5.429688 0.3125 4.382812 0.0664062 3.75 -0.421875 C 3.125 -0.910156 2.765625 -1.71875 2.671875 -2.84375 C 2.628906 -3.300781 2.609375 -4.046875 2.609375 -5.078125 L 2.609375 -12.671875 L 0.34375 -12.671875 L 0.34375 -15.296875 L 2.609375 -15.296875 L 2.609375 -19.09375 L 6.609375 -19.09375 L 6.609375 -15.296875 L 9.796875 -15.296875 L 9.796875 -12.671875 Z M 6.609375 -12.671875 "/></g></g></g><g fill="#2b2b2b" fill-opacity="1"><g transform="translate(198.093131, 201.707735)"><g><path d="M 24.109375 -15.421875 L 19.21875 0 L 14.6875 0 L 12.09375 -11.734375 L 9.453125 0 L 4.890625 0 L 0 -15.421875 L 4.46875 -15.421875 L 7.1875 -3.328125 L 9.703125 -15.359375 L 14.515625 -15.359375 L 17.125 -3.359375 L 19.828125 -15.421875 Z M 24.109375 -15.421875 "/></g></g></g><g fill="#2b2b2b" fill-opacity="1"><g transform="translate(223.394519, 201.707735)"><g><path d="M 10.78125 0 L 10.5 -2.265625 L 9.734375 -0.609375 C 8.734375 0.0664062 7.457031 0.40625 5.90625 0.40625 C 4.5 0.40625 3.320312 0.0078125 2.375 -0.78125 C 1.425781 -1.570312 0.953125 -2.675781 0.953125 -4.09375 C 0.953125 -5.789062 1.671875 -7.097656 3.109375 -8.015625 C 4.554688 -8.929688 6.671875 -9.390625 9.453125 -9.390625 L 10.4375 -9.390625 L 10.4375 -9.703125 C 10.4375 -10.328125 10.414062 -10.8125 10.375 -11.15625 C 10.238281 -12.394531 9.445312 -13.015625 8 -13.015625 C 6.394531 -13.015625 5.535156 -12.144531 5.421875 -10.40625 L 1.53125 -10.375 C 1.59375 -12.070312 2.234375 -13.40625 3.453125 -14.375 C 4.679688 -15.34375 6.242188 -15.828125 8.140625 -15.828125 C 11.984375 -15.828125 14.039062 -14.3125 14.3125 -11.28125 C 14.375 -10.539062 14.40625 -9.742188 14.40625 -8.890625 L 14.40625 -3.90625 C 14.40625 -2.726562 14.5 -1.425781 14.6875 0 Z M 7.453125 -2.40625 C 8.296875 -2.40625 9.003906 -2.691406 9.578125 -3.265625 C 10.148438 -3.847656 10.4375 -4.65625 10.4375 -5.6875 L 10.4375 -6.921875 C 6.875 -7.171875 5.09375 -6.332031 5.09375 -4.40625 C 5.09375 -3.070312 5.878906 -2.40625 7.453125 -2.40625 Z M 7.453125 -2.40625 "/></g></g></g><g fill="#2b2b2b" fill-opacity="1"><g transform="translate(240.899707, 201.707735)"><g><path d="M 9.6875 -15.796875 C 10.125 -15.796875 10.5 -15.757812 10.8125 -15.6875 L 10.8125 -12.46875 C 9.113281 -12.582031 7.859375 -12.21875 7.046875 -11.375 C 6.234375 -10.53125 5.828125 -9.097656 5.828125 -7.078125 L 5.828125 0 L 1.828125 0 L 1.828125 -15.421875 L 5.828125 -15.421875 L 5.828125 -12.609375 L 7.046875 -14.75 C 7.796875 -15.445312 8.675781 -15.796875 9.6875 -15.796875 Z M 9.6875 -15.796875 "/></g></g></g><g fill="#2b2b2b" fill-opacity="1"><g transform="translate(253.130137, 201.707735)"><g><path d="M 15.828125 -8.03125 C 15.828125 -7.46875 15.804688 -7.015625 15.765625 -6.671875 L 4.8125 -6.671875 C 5.039062 -3.828125 6.226562 -2.40625 8.375 -2.40625 C 9.25 -2.40625 9.96875 -2.632812 10.53125 -3.09375 C 11.101562 -3.5625 11.457031 -4.203125 11.59375 -5.015625 L 15.59375 -5.015625 C 15.207031 -3.253906 14.359375 -1.910156 13.046875 -0.984375 C 11.742188 -0.0546875 10.160156 0.40625 8.296875 0.40625 C 6.066406 0.40625 4.253906 -0.28125 2.859375 -1.65625 C 1.472656 -3.039062 0.78125 -5.039062 0.78125 -7.65625 C 0.78125 -10.050781 1.5 -12.007812 2.9375 -13.53125 C 4.375 -15.0625 6.265625 -15.828125 8.609375 -15.828125 C 10.867188 -15.828125 12.632812 -15.082031 13.90625 -13.59375 C 15.1875 -12.101562 15.828125 -10.25 15.828125 -8.03125 Z M 8.4375 -13.015625 C 6.445312 -13.015625 5.273438 -11.769531 4.921875 -9.28125 L 11.703125 -9.28125 C 11.429688 -11.769531 10.34375 -13.015625 8.4375 -13.015625 Z M 8.4375 -13.015625 "/></g></g></g><g fill="#2b2b2b" fill-opacity="1"><g transform="translate(271.099039, 201.707735)"><g/></g></g><g fill="#2b2b2b" fill-opacity="1"><g transform="translate(277.938808, 201.707735)"><g><path d="M 17.015625 -3.15625 L 17.015625 0 L 2.578125 0 L 2.578125 -20 L 16.71875 -20 L 16.71875 -16.875 L 6.578125 -16.875 L 6.578125 -11.59375 L 16 -11.59375 L 16 -8.4375 L 6.578125 -8.4375 L 6.578125 -3.15625 Z M 17.015625 -3.15625 "/></g></g></g><g fill="#2b2b2b" fill-opacity="1"><g transform="translate(297.009045, 201.707735)"><g><path d="M 16.203125 -11.5 C 16.273438 -10.8125 16.3125 -9.875 16.3125 -8.6875 L 16.3125 0 L 12.3125 0 L 12.3125 -8.140625 C 12.3125 -9.046875 12.296875 -9.765625 12.265625 -10.296875 C 12.128906 -12.109375 11.140625 -13.015625 9.296875 -13.015625 C 8.253906 -13.015625 7.414062 -12.523438 6.78125 -11.546875 C 6.144531 -10.578125 5.828125 -9.078125 5.828125 -7.046875 L 5.828125 0 L 1.828125 0 L 1.828125 -15.421875 L 5.828125 -15.421875 L 5.828125 -12.921875 L 7.015625 -14.75 C 8.015625 -15.46875 9.25 -15.828125 10.71875 -15.828125 C 12.34375 -15.828125 13.625 -15.445312 14.5625 -14.6875 C 15.5 -13.9375 16.046875 -12.875 16.203125 -11.5 Z M 16.203125 -11.5 "/></g></g></g><g fill="#2b2b2b" fill-opacity="1"><g transform="translate(316.224184, 201.707735)"><g><path d="M 16.8125 -15.421875 L 16.8125 -3.859375 C 16.8125 -2.421875 16.800781 -1.425781 16.78125 -0.875 C 16.707031 1.488281 15.945312 3.269531 14.5 4.46875 C 13.0625 5.664062 11.097656 6.265625 8.609375 6.265625 C 6.367188 6.265625 4.617188 5.804688 3.359375 4.890625 C 2.109375 3.984375 1.394531 2.679688 1.21875 0.984375 L 1.1875 0.703125 L 5.078125 0.703125 L 5.09375 0.953125 C 5.195312 1.671875 5.5625 2.238281 6.1875 2.65625 C 6.8125 3.070312 7.640625 3.28125 8.671875 3.28125 C 9.921875 3.28125 10.898438 2.960938 11.609375 2.328125 C 12.316406 1.703125 12.707031 0.78125 12.78125 -0.4375 C 12.800781 -0.820312 12.8125 -1.445312 12.8125 -2.3125 L 12.8125 -2.703125 L 11.65625 -0.984375 C 10.726562 -0.265625 9.453125 0.09375 7.828125 0.09375 C 5.679688 0.09375 3.96875 -0.601562 2.6875 -2 C 1.414062 -3.40625 0.78125 -5.25 0.78125 -7.53125 C 0.78125 -10.195312 1.484375 -12.242188 2.890625 -13.671875 C 4.304688 -15.109375 6.066406 -15.828125 8.171875 -15.828125 C 9.753906 -15.828125 10.960938 -15.535156 11.796875 -14.953125 L 12.8125 -13.359375 L 12.8125 -15.421875 Z M 5.96875 -4.109375 C 6.664062 -3.179688 7.613281 -2.71875 8.8125 -2.71875 C 10.007812 -2.71875 10.972656 -3.128906 11.703125 -3.953125 C 12.441406 -4.773438 12.8125 -6.078125 12.8125 -7.859375 L 12.8125 -8.296875 C 12.8125 -9.890625 12.429688 -11.070312 11.671875 -11.84375 C 10.921875 -12.625 10.015625 -13.015625 8.953125 -13.015625 C 7.734375 -13.015625 6.753906 -12.582031 6.015625 -11.71875 C 5.285156 -10.863281 4.921875 -9.585938 4.921875 -7.890625 C 4.921875 -6.296875 5.269531 -5.035156 5.96875 -4.109375 Z M 5.96875 -4.109375 "/></g></g></g><g fill="#2b2b2b" fill-opacity="1"><g transform="translate(336.134876, 201.707735)"><g><path d="M 2.234375 -20.5625 C 2.640625 -20.957031 3.171875 -21.15625 3.828125 -21.15625 C 4.484375 -21.15625 5.015625 -20.957031 5.421875 -20.5625 C 5.828125 -20.164062 6.03125 -19.660156 6.03125 -19.046875 C 6.03125 -18.410156 5.828125 -17.894531 5.421875 -17.5 C 5.015625 -17.113281 4.484375 -16.921875 3.828125 -16.921875 C 3.171875 -16.921875 2.640625 -17.113281 2.234375 -17.5 C 1.828125 -17.894531 1.625 -18.410156 1.625 -19.046875 C 1.625 -19.660156 1.828125 -20.164062 2.234375 -20.5625 Z M 5.828125 0 L 1.828125 0 L 1.828125 -15.421875 L 5.828125 -15.421875 Z M 5.828125 0 "/></g></g></g><g fill="#2b2b2b" fill-opacity="1"><g transform="translate(345.06134, 201.707735)"><g><path d="M 16.203125 -11.5 C 16.273438 -10.8125 16.3125 -9.875 16.3125 -8.6875 L 16.3125 0 L 12.3125 0 L 12.3125 -8.140625 C 12.3125 -9.046875 12.296875 -9.765625 12.265625 -10.296875 C 12.128906 -12.109375 11.140625 -13.015625 9.296875 -13.015625 C 8.253906 -13.015625 7.414062 -12.523438 6.78125 -11.546875 C 6.144531 -10.578125 5.828125 -9.078125 5.828125 -7.046875 L 5.828125 0 L 1.828125 0 L 1.828125 -15.421875 L 5.828125 -15.421875 L 5.828125 -12.921875 L 7.015625 -14.75 C 8.015625 -15.46875 9.25 -15.828125 10.71875 -15.828125 C 12.34375 -15.828125 13.625 -15.445312 14.5625 -14.6875 C 15.5 -13.9375 16.046875 -12.875 16.203125 -11.5 Z M 16.203125 -11.5 "/></g></g></g><g fill="#2b2b2b" fill-opacity="1"><g transform="translate(364.27648, 201.707735)"><g><path d="M 15.828125 -8.03125 C 15.828125 -7.46875 15.804688 -7.015625 15.765625 -6.671875 L 4.8125 -6.671875 C 5.039062 -3.828125 6.226562 -2.40625 8.375 -2.40625 C 9.25 -2.40625 9.96875 -2.632812 10.53125 -3.09375 C 11.101562 -3.5625 11.457031 -4.203125 11.59375 -5.015625 L 15.59375 -5.015625 C 15.207031 -3.253906 14.359375 -1.910156 13.046875 -0.984375 C 11.742188 -0.0546875 10.160156 0.40625 8.296875 0.40625 C 6.066406 0.40625 4.253906 -0.28125 2.859375 -1.65625 C 1.472656 -3.039062 0.78125 -5.039062 0.78125 -7.65625 C 0.78125 -10.050781 1.5 -12.007812 2.9375 -13.53125 C 4.375 -15.0625 6.265625 -15.828125 8.609375 -15.828125 C 10.867188 -15.828125 12.632812 -15.082031 13.90625 -13.59375 C 15.1875 -12.101562 15.828125 -10.25 15.828125 -8.03125 Z M 8.4375 -13.015625 C 6.445312 -13.015625 5.273438 -11.769531 4.921875 -9.28125 L 11.703125 -9.28125 C 11.429688 -11.769531 10.34375 -13.015625 8.4375 -13.015625 Z M 8.4375 -13.015625 "/></g></g></g><g fill="#2b2b2b" fill-opacity="1"><g transform="translate(382.245382, 201.707735)"><g><path d="M 15.828125 -8.03125 C 15.828125 -7.46875 15.804688 -7.015625 15.765625 -6.671875 L 4.8125 -6.671875 C 5.039062 -3.828125 6.226562 -2.40625 8.375 -2.40625 C 9.25 -2.40625 9.96875 -2.632812 10.53125 -3.09375 C 11.101562 -3.5625 11.457031 -4.203125 11.59375 -5.015625 L 15.59375 -5.015625 C 15.207031 -3.253906 14.359375 -1.910156 13.046875 -0.984375 C 11.742188 -0.0546875 10.160156 0.40625 8.296875 0.40625 C 6.066406 0.40625 4.253906 -0.28125 2.859375 -1.65625 C 1.472656 -3.039062 0.78125 -5.039062 0.78125 -7.65625 C 0.78125 -10.050781 1.5 -12.007812 2.9375 -13.53125 C 4.375 -15.0625 6.265625 -15.828125 8.609375 -15.828125 C 10.867188 -15.828125 12.632812 -15.082031 13.90625 -13.59375 C 15.1875 -12.101562 15.828125 -10.25 15.828125 -8.03125 Z M 8.4375 -13.015625 C 6.445312 -13.015625 5.273438 -11.769531 4.921875 -9.28125 L 11.703125 -9.28125 C 11.429688 -11.769531 10.34375 -13.015625 8.4375 -13.015625 Z M 8.4375 -13.015625 "/></g></g></g><g fill="#2b2b2b" fill-opacity="1"><g transform="translate(400.214284, 201.707735)"><g><path d="M 9.6875 -15.796875 C 10.125 -15.796875 10.5 -15.757812 10.8125 -15.6875 L 10.8125 -12.46875 C 9.113281 -12.582031 7.859375 -12.21875 7.046875 -11.375 C 6.234375 -10.53125 5.828125 -9.097656 5.828125 -7.078125 L 5.828125 0 L 1.828125 0 L 1.828125 -15.421875 L 5.828125 -15.421875 L 5.828125 -12.609375 L 7.046875 -14.75 C 7.796875 -15.445312 8.675781 -15.796875 9.6875 -15.796875 Z M 9.6875 -15.796875 "/></g></g></g><g fill="#2b2b2b" fill-opacity="1"><g transform="translate(412.444713, 201.707735)"><g><path d="M 2.234375 -20.5625 C 2.640625 -20.957031 3.171875 -21.15625 3.828125 -21.15625 C 4.484375 -21.15625 5.015625 -20.957031 5.421875 -20.5625 C 5.828125 -20.164062 6.03125 -19.660156 6.03125 -19.046875 C 6.03125 -18.410156 5.828125 -17.894531 5.421875 -17.5 C 5.015625 -17.113281 4.484375 -16.921875 3.828125 -16.921875 C 3.171875 -16.921875 2.640625 -17.113281 2.234375 -17.5 C 1.828125 -17.894531 1.625 -18.410156 1.625 -19.046875 C 1.625 -19.660156 1.828125 -20.164062 2.234375 -20.5625 Z M 5.828125 0 L 1.828125 0 L 1.828125 -15.421875 L 5.828125 -15.421875 Z M 5.828125 0 "/></g></g></g><g fill="#2b2b2b" fill-opacity="1"><g transform="translate(421.371177, 201.707735)"><g><path d="M 16.203125 -11.5 C 16.273438 -10.8125 16.3125 -9.875 16.3125 -8.6875 L 16.3125 0 L 12.3125 0 L 12.3125 -8.140625 C 12.3125 -9.046875 12.296875 -9.765625 12.265625 -10.296875 C 12.128906 -12.109375 11.140625 -13.015625 9.296875 -13.015625 C 8.253906 -13.015625 7.414062 -12.523438 6.78125 -11.546875 C 6.144531 -10.578125 5.828125 -9.078125 5.828125 -7.046875 L 5.828125 0 L 1.828125 0 L 1.828125 -15.421875 L 5.828125 -15.421875 L 5.828125 -12.921875 L 7.015625 -14.75 C 8.015625 -15.46875 9.25 -15.828125 10.71875 -15.828125 C 12.34375 -15.828125 13.625 -15.445312 14.5625 -14.6875 C 15.5 -13.9375 16.046875 -12.875 16.203125 -11.5 Z M 16.203125 -11.5 "/></g></g></g><g fill="#2b2b2b" fill-opacity="1"><g transform="translate(440.586317, 201.707735)"><g><path d="M 16.8125 -15.421875 L 16.8125 -3.859375 C 16.8125 -2.421875 16.800781 -1.425781 16.78125 -0.875 C 16.707031 1.488281 15.945312 3.269531 14.5 4.46875 C 13.0625 5.664062 11.097656 6.265625 8.609375 6.265625 C 6.367188 6.265625 4.617188 5.804688 3.359375 4.890625 C 2.109375 3.984375 1.394531 2.679688 1.21875 0.984375 L 1.1875 0.703125 L 5.078125 0.703125 L 5.09375 0.953125 C 5.195312 1.671875 5.5625 2.238281 6.1875 2.65625 C 6.8125 3.070312 7.640625 3.28125 8.671875 3.28125 C 9.921875 3.28125 10.898438 2.960938 11.609375 2.328125 C 12.316406 1.703125 12.707031 0.78125 12.78125 -0.4375 C 12.800781 -0.820312 12.8125 -1.445312 12.8125 -2.3125 L 12.8125 -2.703125 L 11.65625 -0.984375 C 10.726562 -0.265625 9.453125 0.09375 7.828125 0.09375 C 5.679688 0.09375 3.96875 -0.601562 2.6875 -2 C 1.414062 -3.40625 0.78125 -5.25 0.78125 -7.53125 C 0.78125 -10.195312 1.484375 -12.242188 2.890625 -13.671875 C 4.304688 -15.109375 6.066406 -15.828125 8.171875 -15.828125 C 9.753906 -15.828125 10.960938 -15.535156 11.796875 -14.953125 L 12.8125 -13.359375 L 12.8125 -15.421875 Z M 5.96875 -4.109375 C 6.664062 -3.179688 7.613281 -2.71875 8.8125 -2.71875 C 10.007812 -2.71875 10.972656 -3.128906 11.703125 -3.953125 C 12.441406 -4.773438 12.8125 -6.078125 12.8125 -7.859375 L 12.8125 -8.296875 C 12.8125 -9.890625 12.429688 -11.070312 11.671875 -11.84375 C 10.921875 -12.625 10.015625 -13.015625 8.953125 -13.015625 C 7.734375 -13.015625 6.753906 -12.582031 6.015625 -11.71875 C 5.285156 -10.863281 4.921875 -9.585938 4.921875 -7.890625 C 4.921875 -6.296875 5.269531 -5.035156 5.96875 -4.109375 Z M 5.96875 -4.109375 "/></g></g></g><g fill="#2b2b2b" fill-opacity="1"><g transform="translate(48.545511, 235.519965)"><g><path d="M 14.265625 -10.78125 C 16.828125 -10.125 18.109375 -8.519531 18.109375 -5.96875 C 18.109375 -4.25 17.570312 -2.894531 16.5 -1.90625 C 15.425781 -0.925781 14.140625 -0.328125 12.640625 -0.109375 C 11.960938 -0.0351562 11.035156 0 9.859375 0 L 2.578125 0 L 2.578125 -20 L 9.734375 -20 C 10.796875 -20 11.65625 -19.960938 12.3125 -19.890625 C 13.914062 -19.691406 15.15625 -19.144531 16.03125 -18.25 C 16.914062 -17.363281 17.359375 -16.242188 17.359375 -14.890625 C 17.359375 -12.867188 16.328125 -11.5 14.265625 -10.78125 Z M 6.578125 -16.875 L 6.578125 -11.796875 L 9.59375 -11.796875 C 10.070312 -11.796875 10.546875 -11.828125 11.015625 -11.890625 C 12.460938 -12.117188 13.1875 -12.945312 13.1875 -14.375 C 13.1875 -15.78125 12.429688 -16.582031 10.921875 -16.78125 C 10.460938 -16.84375 9.984375 -16.875 9.484375 -16.875 Z M 11.390625 -3.1875 C 12.128906 -3.25 12.734375 -3.519531 13.203125 -4 C 13.671875 -4.476562 13.90625 -5.125 13.90625 -5.9375 C 13.90625 -7.625 13.046875 -8.550781 11.328125 -8.71875 C 10.847656 -8.78125 10.375 -8.8125 9.90625 -8.8125 L 6.578125 -8.8125 L 6.578125 -3.15625 L 10.0625 -3.15625 C 10.695312 -3.15625 11.140625 -3.164062 11.390625 -3.1875 Z M 11.390625 -3.1875 "/></g></g></g><g fill="#2b2b2b" fill-opacity="1"><g transform="translate(68.803984, 235.519965)"><g><path d="M 1.796875 -3.78125 C 2.242188 -4.238281 2.820312 -4.46875 3.53125 -4.46875 C 4.25 -4.46875 4.832031 -4.238281 5.28125 -3.78125 C 5.738281 -3.320312 5.96875 -2.734375 5.96875 -2.015625 C 5.96875 -1.304688 5.738281 -0.722656 5.28125 -0.265625 C 4.832031 0.179688 4.25 0.40625 3.53125 0.40625 C 2.820312 0.40625 2.242188 0.179688 1.796875 -0.265625 C 1.347656 -0.722656 1.125 -1.304688 1.125 -2.015625 C 1.125 -2.734375 1.347656 -3.320312 1.796875 -3.78125 Z M 1.796875 -3.78125 "/></g></g></g><g fill="#2b2b2b" fill-opacity="1"><g transform="translate(77.121835, 235.519965)"><g><path d="M 13.421875 -6.03125 L 6.703125 -6.03125 L 4.703125 0 L 0.4375 0 L 7.65625 -20 L 12.671875 -20 L 19.734375 0 L 15.390625 0 Z M 10.09375 -16.578125 L 7.703125 -9.1875 L 12.40625 -9.1875 Z M 10.09375 -16.578125 "/></g></g></g><g fill="#2b2b2b" fill-opacity="1"><g transform="translate(97.930993, 235.519965)"><g/></g></g><g fill="#2b2b2b" fill-opacity="1"><g transform="translate(104.770768, 235.519965)"><g><path d="M 2.234375 -20.5625 C 2.640625 -20.957031 3.171875 -21.15625 3.828125 -21.15625 C 4.484375 -21.15625 5.015625 -20.957031 5.421875 -20.5625 C 5.828125 -20.164062 6.03125 -19.660156 6.03125 -19.046875 C 6.03125 -18.410156 5.828125 -17.894531 5.421875 -17.5 C 5.015625 -17.113281 4.484375 -16.921875 3.828125 -16.921875 C 3.171875 -16.921875 2.640625 -17.113281 2.234375 -17.5 C 1.828125 -17.894531 1.625 -18.410156 1.625 -19.046875 C 1.625 -19.660156 1.828125 -20.164062 2.234375 -20.5625 Z M 5.828125 0 L 1.828125 0 L 1.828125 -15.421875 L 5.828125 -15.421875 Z M 5.828125 0 "/></g></g></g><g fill="#2b2b2b" fill-opacity="1"><g transform="translate(113.697236, 235.519965)"><g><path d="M 16.203125 -11.5 C 16.273438 -10.8125 16.3125 -9.875 16.3125 -8.6875 L 16.3125 0 L 12.3125 0 L 12.3125 -8.140625 C 12.3125 -9.046875 12.296875 -9.765625 12.265625 -10.296875 C 12.128906 -12.109375 11.140625 -13.015625 9.296875 -13.015625 C 8.253906 -13.015625 7.414062 -12.523438 6.78125 -11.546875 C 6.144531 -10.578125 5.828125 -9.078125 5.828125 -7.046875 L 5.828125 0 L 1.828125 0 L 1.828125 -15.421875 L 5.828125 -15.421875 L 5.828125 -12.921875 L 7.015625 -14.75 C 8.015625 -15.46875 9.25 -15.828125 10.71875 -15.828125 C 12.34375 -15.828125 13.625 -15.445312 14.5625 -14.6875 C 15.5 -13.9375 16.046875 -12.875 16.203125 -11.5 Z M 16.203125 -11.5 "/></g></g></g><g fill="#2b2b2b" fill-opacity="1"><g transform="translate(132.91238, 235.519965)"><g/></g></g><g fill="#2b2b2b" fill-opacity="1"><g transform="translate(139.752159, 235.519965)"><g><path d="M 13.421875 -6.03125 L 6.703125 -6.03125 L 4.703125 0 L 0.4375 0 L 7.65625 -20 L 12.671875 -20 L 19.734375 0 L 15.390625 0 Z M 10.09375 -16.578125 L 7.703125 -9.1875 L 12.40625 -9.1875 Z M 10.09375 -16.578125 "/></g></g></g><g fill="#2b2b2b" fill-opacity="1"><g transform="translate(160.561313, 235.519965)"><g><path d="M 9.6875 -15.796875 C 10.125 -15.796875 10.5 -15.757812 10.8125 -15.6875 L 10.8125 -12.46875 C 9.113281 -12.582031 7.859375 -12.21875 7.046875 -11.375 C 6.234375 -10.53125 5.828125 -9.097656 5.828125 -7.078125 L 5.828125 0 L 1.828125 0 L 1.828125 -15.421875 L 5.828125 -15.421875 L 5.828125 -12.609375 L 7.046875 -14.75 C 7.796875 -15.445312 8.675781 -15.796875 9.6875 -15.796875 Z M 9.6875 -15.796875 "/></g></g></g><g fill="#2b2b2b" fill-opacity="1"><g transform="translate(172.791752, 235.519965)"><g><path d="M 6.609375 -12.671875 L 6.609375 -5.53125 C 6.609375 -4.894531 6.617188 -4.441406 6.640625 -4.171875 C 6.691406 -3.421875 6.910156 -2.929688 7.296875 -2.703125 C 7.691406 -2.484375 8.4375 -2.414062 9.53125 -2.5 L 9.53125 0.109375 C 8.707031 0.242188 7.828125 0.3125 6.890625 0.3125 C 5.429688 0.3125 4.382812 0.0664062 3.75 -0.421875 C 3.125 -0.910156 2.765625 -1.71875 2.671875 -2.84375 C 2.628906 -3.300781 2.609375 -4.046875 2.609375 -5.078125 L 2.609375 -12.671875 L 0.34375 -12.671875 L 0.34375 -15.296875 L 2.609375 -15.296875 L 2.609375 -19.09375 L 6.609375 -19.09375 L 6.609375 -15.296875 L 9.796875 -15.296875 L 9.796875 -12.671875 Z M 6.609375 -12.671875 "/></g></g></g><g fill="#2b2b2b" fill-opacity="1"><g transform="translate(184.471542, 235.519965)"><g><path d="M 5.359375 -3.765625 L 2.4375 3.53125 L -0.8125 3.53125 L 1.484375 -4.0625 L 5.359375 -4.0625 Z M 5.359375 -3.765625 "/></g></g></g><g fill="#2b2b2b" fill-opacity="1"><g transform="translate(192.789397, 235.519965)"><g/></g></g><g fill="#2b2b2b" fill-opacity="1"><g transform="translate(199.629176, 235.519965)"><g><path d="M 9.21875 -20.40625 C 11.5 -20.40625 13.242188 -19.832031 14.453125 -18.6875 C 15.660156 -17.550781 16.378906 -16.023438 16.609375 -14.109375 L 12.515625 -14.109375 C 12.398438 -15.160156 12.050781 -15.972656 11.46875 -16.546875 C 10.894531 -17.128906 10.097656 -17.421875 9.078125 -17.421875 C 8.242188 -17.421875 7.566406 -17.21875 7.046875 -16.8125 C 6.523438 -16.40625 6.265625 -15.816406 6.265625 -15.046875 C 6.265625 -14.191406 6.578125 -13.519531 7.203125 -13.03125 C 7.828125 -12.550781 8.929688 -12.128906 10.515625 -11.765625 C 12.703125 -11.265625 14.3125 -10.5 15.34375 -9.46875 C 16.375 -8.445312 16.890625 -7.125 16.890625 -5.5 C 16.890625 -3.6875 16.175781 -2.25 14.75 -1.1875 C 13.320312 -0.125 11.570312 0.40625 9.5 0.40625 C 7.070312 0.40625 5.128906 -0.128906 3.671875 -1.203125 C 2.222656 -2.273438 1.40625 -3.84375 1.21875 -5.90625 L 5.296875 -5.90625 C 5.515625 -4.84375 6 -4.019531 6.75 -3.4375 C 7.507812 -2.863281 8.410156 -2.578125 9.453125 -2.578125 C 10.378906 -2.578125 11.15625 -2.804688 11.78125 -3.265625 C 12.40625 -3.734375 12.71875 -4.34375 12.71875 -5.09375 C 12.71875 -5.945312 12.410156 -6.632812 11.796875 -7.15625 C 11.191406 -7.675781 10.164062 -8.113281 8.71875 -8.46875 C 6.476562 -9.007812 4.804688 -9.726562 3.703125 -10.625 C 2.609375 -11.519531 2.0625 -12.828125 2.0625 -14.546875 C 2.0625 -16.328125 2.753906 -17.75 4.140625 -18.8125 C 5.535156 -19.875 7.226562 -20.40625 9.21875 -20.40625 Z M 9.21875 -20.40625 "/></g></g></g><g fill="#2b2b2b" fill-opacity="1"><g transform="translate(218.467537, 235.519965)"><g><path d="M 8.5 -15.828125 C 10.519531 -15.828125 12.15625 -15.269531 13.40625 -14.15625 C 14.664062 -13.050781 15.375 -11.617188 15.53125 -9.859375 L 11.59375 -9.859375 C 11.25 -11.960938 10.1875 -13.015625 8.40625 -13.015625 C 7.34375 -13.015625 6.492188 -12.578125 5.859375 -11.703125 C 5.234375 -10.835938 4.921875 -9.554688 4.921875 -7.859375 C 4.921875 -6.015625 5.226562 -4.644531 5.84375 -3.75 C 6.46875 -2.851562 7.3125 -2.40625 8.375 -2.40625 C 9.164062 -2.40625 9.835938 -2.65625 10.390625 -3.15625 C 10.941406 -3.65625 11.3125 -4.378906 11.5 -5.328125 L 15.5 -5.328125 C 15.175781 -3.472656 14.359375 -2.050781 13.046875 -1.0625 C 11.742188 -0.0820312 10.109375 0.40625 8.140625 0.40625 C 5.960938 0.40625 4.191406 -0.28125 2.828125 -1.65625 C 1.460938 -3.039062 0.78125 -5.019531 0.78125 -7.59375 C 0.78125 -10.144531 1.515625 -12.15625 2.984375 -13.625 C 4.453125 -15.09375 6.289062 -15.828125 8.5 -15.828125 Z M 8.5 -15.828125 "/></g></g></g><g fill="#2b2b2b" fill-opacity="1"><g transform="translate(235.943722, 235.519965)"><g><path d="M 2.234375 -20.5625 C 2.640625 -20.957031 3.171875 -21.15625 3.828125 -21.15625 C 4.484375 -21.15625 5.015625 -20.957031 5.421875 -20.5625 C 5.828125 -20.164062 6.03125 -19.660156 6.03125 -19.046875 C 6.03125 -18.410156 5.828125 -17.894531 5.421875 -17.5 C 5.015625 -17.113281 4.484375 -16.921875 3.828125 -16.921875 C 3.171875 -16.921875 2.640625 -17.113281 2.234375 -17.5 C 1.828125 -17.894531 1.625 -18.410156 1.625 -19.046875 C 1.625 -19.660156 1.828125 -20.164062 2.234375 -20.5625 Z M 5.828125 0 L 1.828125 0 L 1.828125 -15.421875 L 5.828125 -15.421875 Z M 5.828125 0 "/></g></g></g><g fill="#2b2b2b" fill-opacity="1"><g transform="translate(244.870186, 235.519965)"><g><path d="M 15.828125 -8.03125 C 15.828125 -7.46875 15.804688 -7.015625 15.765625 -6.671875 L 4.8125 -6.671875 C 5.039062 -3.828125 6.226562 -2.40625 8.375 -2.40625 C 9.25 -2.40625 9.96875 -2.632812 10.53125 -3.09375 C 11.101562 -3.5625 11.457031 -4.203125 11.59375 -5.015625 L 15.59375 -5.015625 C 15.207031 -3.253906 14.359375 -1.910156 13.046875 -0.984375 C 11.742188 -0.0546875 10.160156 0.40625 8.296875 0.40625 C 6.066406 0.40625 4.253906 -0.28125 2.859375 -1.65625 C 1.472656 -3.039062 0.78125 -5.039062 0.78125 -7.65625 C 0.78125 -10.050781 1.5 -12.007812 2.9375 -13.53125 C 4.375 -15.0625 6.265625 -15.828125 8.609375 -15.828125 C 10.867188 -15.828125 12.632812 -15.082031 13.90625 -13.59375 C 15.1875 -12.101562 15.828125 -10.25 15.828125 -8.03125 Z M 8.4375 -13.015625 C 6.445312 -13.015625 5.273438 -11.769531 4.921875 -9.28125 L 11.703125 -9.28125 C 11.429688 -11.769531 10.34375 -13.015625 8.4375 -13.015625 Z M 8.4375 -13.015625 "/></g></g></g><g fill="#2b2b2b" fill-opacity="1"><g transform="translate(262.839087, 235.519965)"><g><path d="M 16.203125 -11.5 C 16.273438 -10.8125 16.3125 -9.875 16.3125 -8.6875 L 16.3125 0 L 12.3125 0 L 12.3125 -8.140625 C 12.3125 -9.046875 12.296875 -9.765625 12.265625 -10.296875 C 12.128906 -12.109375 11.140625 -13.015625 9.296875 -13.015625 C 8.253906 -13.015625 7.414062 -12.523438 6.78125 -11.546875 C 6.144531 -10.578125 5.828125 -9.078125 5.828125 -7.046875 L 5.828125 0 L 1.828125 0 L 1.828125 -15.421875 L 5.828125 -15.421875 L 5.828125 -12.921875 L 7.015625 -14.75 C 8.015625 -15.46875 9.25 -15.828125 10.71875 -15.828125 C 12.34375 -15.828125 13.625 -15.445312 14.5625 -14.6875 C 15.5 -13.9375 16.046875 -12.875 16.203125 -11.5 Z M 16.203125 -11.5 "/></g></g></g><g fill="#2b2b2b" fill-opacity="1"><g transform="translate(282.054227, 235.519965)"><g><path d="M 8.5 -15.828125 C 10.519531 -15.828125 12.15625 -15.269531 13.40625 -14.15625 C 14.664062 -13.050781 15.375 -11.617188 15.53125 -9.859375 L 11.59375 -9.859375 C 11.25 -11.960938 10.1875 -13.015625 8.40625 -13.015625 C 7.34375 -13.015625 6.492188 -12.578125 5.859375 -11.703125 C 5.234375 -10.835938 4.921875 -9.554688 4.921875 -7.859375 C 4.921875 -6.015625 5.226562 -4.644531 5.84375 -3.75 C 6.46875 -2.851562 7.3125 -2.40625 8.375 -2.40625 C 9.164062 -2.40625 9.835938 -2.65625 10.390625 -3.15625 C 10.941406 -3.65625 11.3125 -4.378906 11.5 -5.328125 L 15.5 -5.328125 C 15.175781 -3.472656 14.359375 -2.050781 13.046875 -1.0625 C 11.742188 -0.0820312 10.109375 0.40625 8.140625 0.40625 C 5.960938 0.40625 4.191406 -0.28125 2.828125 -1.65625 C 1.460938 -3.039062 0.78125 -5.019531 0.78125 -7.59375 C 0.78125 -10.144531 1.515625 -12.15625 2.984375 -13.625 C 4.453125 -15.09375 6.289062 -15.828125 8.5 -15.828125 Z M 8.5 -15.828125 "/></g></g></g><g fill="#2b2b2b" fill-opacity="1"><g transform="translate(299.530412, 235.519965)"><g><path d="M 15.828125 -8.03125 C 15.828125 -7.46875 15.804688 -7.015625 15.765625 -6.671875 L 4.8125 -6.671875 C 5.039062 -3.828125 6.226562 -2.40625 8.375 -2.40625 C 9.25 -2.40625 9.96875 -2.632812 10.53125 -3.09375 C 11.101562 -3.5625 11.457031 -4.203125 11.59375 -5.015625 L 15.59375 -5.015625 C 15.207031 -3.253906 14.359375 -1.910156 13.046875 -0.984375 C 11.742188 -0.0546875 10.160156 0.40625 8.296875 0.40625 C 6.066406 0.40625 4.253906 -0.28125 2.859375 -1.65625 C 1.472656 -3.039062 0.78125 -5.039062 0.78125 -7.65625 C 0.78125 -10.050781 1.5 -12.007812 2.9375 -13.53125 C 4.375 -15.0625 6.265625 -15.828125 8.609375 -15.828125 C 10.867188 -15.828125 12.632812 -15.082031 13.90625 -13.59375 C 15.1875 -12.101562 15.828125 -10.25 15.828125 -8.03125 Z M 8.4375 -13.015625 C 6.445312 -13.015625 5.273438 -11.769531 4.921875 -9.28125 L 11.703125 -9.28125 C 11.429688 -11.769531 10.34375 -13.015625 8.4375 -13.015625 Z M 8.4375 -13.015625 "/></g></g></g><g fill="#2b2b2b" fill-opacity="1"><g transform="translate(317.499314, 235.519965)"><g><path d="M 5.359375 -3.765625 L 2.4375 3.53125 L -0.8125 3.53125 L 1.484375 -4.0625 L 5.359375 -4.0625 Z M 5.359375 -3.765625 "/></g></g></g><g fill="#2b2b2b" fill-opacity="1"><g transform="translate(325.81716, 235.519965)"><g/></g></g><g fill="#2b2b2b" fill-opacity="1"><g transform="translate(332.65693, 235.519965)"><g><path d="M 10.78125 0 L 10.5 -2.265625 L 9.734375 -0.609375 C 8.734375 0.0664062 7.457031 0.40625 5.90625 0.40625 C 4.5 0.40625 3.320312 0.0078125 2.375 -0.78125 C 1.425781 -1.570312 0.953125 -2.675781 0.953125 -4.09375 C 0.953125 -5.789062 1.671875 -7.097656 3.109375 -8.015625 C 4.554688 -8.929688 6.671875 -9.390625 9.453125 -9.390625 L 10.4375 -9.390625 L 10.4375 -9.703125 C 10.4375 -10.328125 10.414062 -10.8125 10.375 -11.15625 C 10.238281 -12.394531 9.445312 -13.015625 8 -13.015625 C 6.394531 -13.015625 5.535156 -12.144531 5.421875 -10.40625 L 1.53125 -10.375 C 1.59375 -12.070312 2.234375 -13.40625 3.453125 -14.375 C 4.679688 -15.34375 6.242188 -15.828125 8.140625 -15.828125 C 11.984375 -15.828125 14.039062 -14.3125 14.3125 -11.28125 C 14.375 -10.539062 14.40625 -9.742188 14.40625 -8.890625 L 14.40625 -3.90625 C 14.40625 -2.726562 14.5 -1.425781 14.6875 0 Z M 7.453125 -2.40625 C 8.296875 -2.40625 9.003906 -2.691406 9.578125 -3.265625 C 10.148438 -3.847656 10.4375 -4.65625 10.4375 -5.6875 L 10.4375 -6.921875 C 6.875 -7.171875 5.09375 -6.332031 5.09375 -4.40625 C 5.09375 -3.070312 5.878906 -2.40625 7.453125 -2.40625 Z M 7.453125 -2.40625 "/></g></g></g><g fill="#2b2b2b" fill-opacity="1"><g transform="translate(350.162118, 235.519965)"><g><path d="M 16.203125 -11.5 C 16.273438 -10.8125 16.3125 -9.875 16.3125 -8.6875 L 16.3125 0 L 12.3125 0 L 12.3125 -8.140625 C 12.3125 -9.046875 12.296875 -9.765625 12.265625 -10.296875 C 12.128906 -12.109375 11.140625 -13.015625 9.296875 -13.015625 C 8.253906 -13.015625 7.414062 -12.523438 6.78125 -11.546875 C 6.144531 -10.578125 5.828125 -9.078125 5.828125 -7.046875 L 5.828125 0 L 1.828125 0 L 1.828125 -15.421875 L 5.828125 -15.421875 L 5.828125 -12.921875 L 7.015625 -14.75 C 8.015625 -15.46875 9.25 -15.828125 10.71875 -15.828125 C 12.34375 -15.828125 13.625 -15.445312 14.5625 -14.6875 C 15.5 -13.9375 16.046875 -12.875 16.203125 -11.5 Z M 16.203125 -11.5 "/></g></g></g><g fill="#2b2b2b" fill-opacity="1"><g transform="translate(369.377258, 235.519965)"><g><path d="M 16.8125 -21.296875 L 16.8125 0 L 12.8125 0 L 12.8125 -2.375 L 11.65625 -0.671875 C 10.726562 0.046875 9.394531 0.40625 7.65625 0.40625 C 5.53125 0.40625 3.851562 -0.316406 2.625 -1.765625 C 1.394531 -3.210938 0.78125 -5.097656 0.78125 -7.421875 C 0.78125 -10.085938 1.484375 -12.15625 2.890625 -13.625 C 4.304688 -15.09375 6.066406 -15.828125 8.171875 -15.828125 C 9.753906 -15.828125 10.960938 -15.535156 11.796875 -14.953125 L 12.8125 -13.359375 L 12.8125 -21.296875 Z M 8.8125 -2.40625 C 10.007812 -2.40625 10.972656 -2.816406 11.703125 -3.640625 C 12.441406 -4.460938 12.8125 -5.757812 12.8125 -7.53125 L 12.8125 -8.296875 C 12.8125 -9.890625 12.429688 -11.070312 11.671875 -11.84375 C 10.921875 -12.625 10.015625 -13.015625 8.953125 -13.015625 C 7.753906 -13.015625 6.78125 -12.554688 6.03125 -11.640625 C 5.289062 -10.722656 4.921875 -9.40625 4.921875 -7.6875 C 4.921875 -6.09375 5.273438 -4.8125 5.984375 -3.84375 C 6.691406 -2.882812 7.632812 -2.40625 8.8125 -2.40625 Z M 8.8125 -2.40625 "/></g></g></g><g fill="#2b2b2b" fill-opacity="1"><g transform="translate(389.28795, 235.519965)"><g/></g></g><g fill="#2b2b2b" fill-opacity="1"><g transform="translate(396.12772, 235.519965)"><g><path d="M 6.578125 0 L 2.578125 0 L 2.578125 -20 L 6.578125 -20 Z M 6.578125 0 "/></g></g></g><g fill="#2b2b2b" fill-opacity="1"><g transform="translate(405.807742, 235.519965)"><g><path d="M 16.203125 -11.5 C 16.273438 -10.8125 16.3125 -9.875 16.3125 -8.6875 L 16.3125 0 L 12.3125 0 L 12.3125 -8.140625 C 12.3125 -9.046875 12.296875 -9.765625 12.265625 -10.296875 C 12.128906 -12.109375 11.140625 -13.015625 9.296875 -13.015625 C 8.253906 -13.015625 7.414062 -12.523438 6.78125 -11.546875 C 6.144531 -10.578125 5.828125 -9.078125 5.828125 -7.046875 L 5.828125 0 L 1.828125 0 L 1.828125 -15.421875 L 5.828125 -15.421875 L 5.828125 -12.921875 L 7.015625 -14.75 C 8.015625 -15.46875 9.25 -15.828125 10.71875 -15.828125 C 12.34375 -15.828125 13.625 -15.445312 14.5625 -14.6875 C 15.5 -13.9375 16.046875 -12.875 16.203125 -11.5 Z M 16.203125 -11.5 "/></g></g></g><g fill="#2b2b2b" fill-opacity="1"><g transform="translate(425.022882, 235.519965)"><g><path d="M 16.203125 -11.5 C 16.273438 -10.8125 16.3125 -9.875 16.3125 -8.6875 L 16.3125 0 L 12.3125 0 L 12.3125 -8.140625 C 12.3125 -9.046875 12.296875 -9.765625 12.265625 -10.296875 C 12.128906 -12.109375 11.140625 -13.015625 9.296875 -13.015625 C 8.253906 -13.015625 7.414062 -12.523438 6.78125 -11.546875 C 6.144531 -10.578125 5.828125 -9.078125 5.828125 -7.046875 L 5.828125 0 L 1.828125 0 L 1.828125 -15.421875 L 5.828125 -15.421875 L 5.828125 -12.921875 L 7.015625 -14.75 C 8.015625 -15.46875 9.25 -15.828125 10.71875 -15.828125 C 12.34375 -15.828125 13.625 -15.445312 14.5625 -14.6875 C 15.5 -13.9375 16.046875 -12.875 16.203125 -11.5 Z M 16.203125 -11.5 "/></g></g></g><g fill="#2b2b2b" fill-opacity="1"><g transform="translate(444.238022, 235.519965)"><g><path d="M 2.890625 -13.578125 C 4.304688 -15.078125 6.269531 -15.828125 8.78125 -15.828125 C 11.289062 -15.828125 13.25 -15.078125 14.65625 -13.578125 C 16.070312 -12.078125 16.78125 -10.117188 16.78125 -7.703125 C 16.78125 -5.304688 16.070312 -3.351562 14.65625 -1.84375 C 13.25 -0.34375 11.289062 0.40625 8.78125 0.40625 C 6.269531 0.40625 4.304688 -0.34375 2.890625 -1.84375 C 1.484375 -3.351562 0.78125 -5.304688 0.78125 -7.703125 C 0.78125 -10.117188 1.484375 -12.078125 2.890625 -13.578125 Z M 5.953125 -3.8125 C 6.640625 -2.875 7.582031 -2.40625 8.78125 -2.40625 C 9.976562 -2.40625 10.921875 -2.875 11.609375 -3.8125 C 12.296875 -4.75 12.640625 -6.046875 12.640625 -7.703125 C 12.640625 -9.367188 12.296875 -10.671875 11.609375 -11.609375 C 10.921875 -12.546875 9.976562 -13.015625 8.78125 -13.015625 C 7.582031 -13.015625 6.640625 -12.546875 5.953125 -11.609375 C 5.265625 -10.671875 4.921875 -9.367188 4.921875 -7.703125 C 4.921875 -6.046875 5.265625 -4.75 5.953125 -3.8125 Z M 5.953125 -3.8125 "/></g></g></g><g fill="#2b2b2b" fill-opacity="1"><g transform="translate(463.018414, 235.519965)"><g><path d="M 16.4375 -15.421875 L 10.46875 0 L 6 0 L 0 -15.421875 L 4.4375 -15.421875 L 8.3125 -3.015625 L 12.109375 -15.421875 Z M 16.4375 -15.421875 "/></g></g></g><g fill="#2b2b2b" fill-opacity="1"><g transform="translate(480.639539, 235.519965)"><g><path d="M 10.78125 0 L 10.5 -2.265625 L 9.734375 -0.609375 C 8.734375 0.0664062 7.457031 0.40625 5.90625 0.40625 C 4.5 0.40625 3.320312 0.0078125 2.375 -0.78125 C 1.425781 -1.570312 0.953125 -2.675781 0.953125 -4.09375 C 0.953125 -5.789062 1.671875 -7.097656 3.109375 -8.015625 C 4.554688 -8.929688 6.671875 -9.390625 9.453125 -9.390625 L 10.4375 -9.390625 L 10.4375 -9.703125 C 10.4375 -10.328125 10.414062 -10.8125 10.375 -11.15625 C 10.238281 -12.394531 9.445312 -13.015625 8 -13.015625 C 6.394531 -13.015625 5.535156 -12.144531 5.421875 -10.40625 L 1.53125 -10.375 C 1.59375 -12.070312 2.234375 -13.40625 3.453125 -14.375 C 4.679688 -15.34375 6.242188 -15.828125 8.140625 -15.828125 C 11.984375 -15.828125 14.039062 -14.3125 14.3125 -11.28125 C 14.375 -10.539062 14.40625 -9.742188 14.40625 -8.890625 L 14.40625 -3.90625 C 14.40625 -2.726562 14.5 -1.425781 14.6875 0 Z M 7.453125 -2.40625 C 8.296875 -2.40625 9.003906 -2.691406 9.578125 -3.265625 C 10.148438 -3.847656 10.4375 -4.65625 10.4375 -5.6875 L 10.4375 -6.921875 C 6.875 -7.171875 5.09375 -6.332031 5.09375 -4.40625 C 5.09375 -3.070312 5.878906 -2.40625 7.453125 -2.40625 Z M 7.453125 -2.40625 "/></g></g></g><g fill="#2b2b2b" fill-opacity="1"><g transform="translate(498.144727, 235.519965)"><g><path d="M 6.609375 -12.671875 L 6.609375 -5.53125 C 6.609375 -4.894531 6.617188 -4.441406 6.640625 -4.171875 C 6.691406 -3.421875 6.910156 -2.929688 7.296875 -2.703125 C 7.691406 -2.484375 8.4375 -2.414062 9.53125 -2.5 L 9.53125 0.109375 C 8.707031 0.242188 7.828125 0.3125 6.890625 0.3125 C 5.429688 0.3125 4.382812 0.0664062 3.75 -0.421875 C 3.125 -0.910156 2.765625 -1.71875 2.671875 -2.84375 C 2.628906 -3.300781 2.609375 -4.046875 2.609375 -5.078125 L 2.609375 -12.671875 L 0.34375 -12.671875 L 0.34375 -15.296875 L 2.609375 -15.296875 L 2.609375 -19.09375 L 6.609375 -19.09375 L 6.609375 -15.296875 L 9.796875 -15.296875 L 9.796875 -12.671875 Z M 6.609375 -12.671875 "/></g></g></g><g fill="#2b2b2b" fill-opacity="1"><g transform="translate(509.824508, 235.519965)"><g><path d="M 2.234375 -20.5625 C 2.640625 -20.957031 3.171875 -21.15625 3.828125 -21.15625 C 4.484375 -21.15625 5.015625 -20.957031 5.421875 -20.5625 C 5.828125 -20.164062 6.03125 -19.660156 6.03125 -19.046875 C 6.03125 -18.410156 5.828125 -17.894531 5.421875 -17.5 C 5.015625 -17.113281 4.484375 -16.921875 3.828125 -16.921875 C 3.171875 -16.921875 2.640625 -17.113281 2.234375 -17.5 C 1.828125 -17.894531 1.625 -18.410156 1.625 -19.046875 C 1.625 -19.660156 1.828125 -20.164062 2.234375 -20.5625 Z M 5.828125 0 L 1.828125 0 L 1.828125 -15.421875 L 5.828125 -15.421875 Z M 5.828125 0 "/></g></g></g><g fill="#2b2b2b" fill-opacity="1"><g transform="translate(518.750972, 235.519965)"><g><path d="M 2.890625 -13.578125 C 4.304688 -15.078125 6.269531 -15.828125 8.78125 -15.828125 C 11.289062 -15.828125 13.25 -15.078125 14.65625 -13.578125 C 16.070312 -12.078125 16.78125 -10.117188 16.78125 -7.703125 C 16.78125 -5.304688 16.070312 -3.351562 14.65625 -1.84375 C 13.25 -0.34375 11.289062 0.40625 8.78125 0.40625 C 6.269531 0.40625 4.304688 -0.34375 2.890625 -1.84375 C 1.484375 -3.351562 0.78125 -5.304688 0.78125 -7.703125 C 0.78125 -10.117188 1.484375 -12.078125 2.890625 -13.578125 Z M 5.953125 -3.8125 C 6.640625 -2.875 7.582031 -2.40625 8.78125 -2.40625 C 9.976562 -2.40625 10.921875 -2.875 11.609375 -3.8125 C 12.296875 -4.75 12.640625 -6.046875 12.640625 -7.703125 C 12.640625 -9.367188 12.296875 -10.671875 11.609375 -11.609375 C 10.921875 -12.546875 9.976562 -13.015625 8.78125 -13.015625 C 7.582031 -13.015625 6.640625 -12.546875 5.953125 -11.609375 C 5.265625 -10.671875 4.921875 -9.367188 4.921875 -7.703125 C 4.921875 -6.046875 5.265625 -4.75 5.953125 -3.8125 Z M 5.953125 -3.8125 "/></g></g></g><g fill="#2b2b2b" fill-opacity="1"><g transform="translate(537.531364, 235.519965)"><g><path d="M 16.203125 -11.5 C 16.273438 -10.8125 16.3125 -9.875 16.3125 -8.6875 L 16.3125 0 L 12.3125 0 L 12.3125 -8.140625 C 12.3125 -9.046875 12.296875 -9.765625 12.265625 -10.296875 C 12.128906 -12.109375 11.140625 -13.015625 9.296875 -13.015625 C 8.253906 -13.015625 7.414062 -12.523438 6.78125 -11.546875 C 6.144531 -10.578125 5.828125 -9.078125 5.828125 -7.046875 L 5.828125 0 L 1.828125 0 L 1.828125 -15.421875 L 5.828125 -15.421875 L 5.828125 -12.921875 L 7.015625 -14.75 C 8.015625 -15.46875 9.25 -15.828125 10.71875 -15.828125 C 12.34375 -15.828125 13.625 -15.445312 14.5625 -14.6875 C 15.5 -13.9375 16.046875 -12.875 16.203125 -11.5 Z M 16.203125 -11.5 "/></g></g></g><g fill="#2b2b2b" fill-opacity="1"><g transform="translate(48.545511, 269.92908)"><g><path d="M 10.015625 -5.359375 L 4.4375 -5.359375 L 2.65625 0 L 0.640625 0 L 6.078125 -15.15625 L 8.640625 -15.15625 L 13.859375 0 L 11.8125 0 Z M 4.96875 -6.890625 L 9.515625 -6.890625 L 7.3125 -13.671875 Z M 4.96875 -6.890625 "/></g></g></g><g fill="#2b2b2b" fill-opacity="1"><g transform="translate(63.50928, 269.92908)"><g><path d="M 3.421875 -16.140625 L 3.421875 -3.34375 C 3.421875 -3.164062 3.421875 -2.984375 3.421875 -2.796875 C 3.421875 -2.617188 3.429688 -2.429688 3.453125 -2.234375 C 3.484375 -1.867188 3.597656 -1.617188 3.796875 -1.484375 C 4.003906 -1.347656 4.363281 -1.304688 4.875 -1.359375 L 4.875 0 C 4.664062 0.03125 4.441406 0.0507812 4.203125 0.0625 C 3.972656 0.0820312 3.75 0.09375 3.53125 0.09375 C 2.988281 0.09375 2.53125 -0.0234375 2.15625 -0.265625 C 1.789062 -0.515625 1.59375 -1.003906 1.5625 -1.734375 C 1.539062 -1.941406 1.53125 -2.171875 1.53125 -2.421875 C 1.53125 -2.671875 1.53125 -2.953125 1.53125 -3.265625 L 1.53125 -16.140625 Z M 3.421875 -16.140625 "/></g></g></g><g fill="#2b2b2b" fill-opacity="1"><g transform="translate(69.859769, 269.92908)"><g><path d="M 3.421875 -16.140625 L 3.421875 -3.34375 C 3.421875 -3.164062 3.421875 -2.984375 3.421875 -2.796875 C 3.421875 -2.617188 3.429688 -2.429688 3.453125 -2.234375 C 3.484375 -1.867188 3.597656 -1.617188 3.796875 -1.484375 C 4.003906 -1.347656 4.363281 -1.304688 4.875 -1.359375 L 4.875 0 C 4.664062 0.03125 4.441406 0.0507812 4.203125 0.0625 C 3.972656 0.0820312 3.75 0.09375 3.53125 0.09375 C 2.988281 0.09375 2.53125 -0.0234375 2.15625 -0.265625 C 1.789062 -0.515625 1.59375 -1.003906 1.5625 -1.734375 C 1.539062 -1.941406 1.53125 -2.171875 1.53125 -2.421875 C 1.53125 -2.671875 1.53125 -2.953125 1.53125 -3.265625 L 1.53125 -16.140625 Z M 3.421875 -16.140625 "/></g></g></g><g fill="#2b2b2b" fill-opacity="1"><g transform="translate(76.210258, 269.92908)"><g><path d="M 11.1875 -6.15625 C 11.1875 -6.0625 11.1875 -5.9375 11.1875 -5.78125 C 11.1875 -5.632812 11.171875 -5.457031 11.140625 -5.25 L 2.703125 -5.25 C 2.765625 -4.226562 2.953125 -3.414062 3.265625 -2.8125 C 3.578125 -2.207031 3.972656 -1.773438 4.453125 -1.515625 C 4.941406 -1.265625 5.472656 -1.140625 6.046875 -1.140625 C 6.804688 -1.140625 7.460938 -1.363281 8.015625 -1.8125 C 8.578125 -2.269531 8.921875 -2.914062 9.046875 -3.75 L 11.03125 -3.75 C 10.882812 -2.8125 10.554688 -2.039062 10.046875 -1.4375 C 9.546875 -0.84375 8.9375 -0.398438 8.21875 -0.109375 C 7.507812 0.171875 6.753906 0.3125 5.953125 0.3125 C 4.941406 0.3125 4.035156 0.0859375 3.234375 -0.359375 C 2.441406 -0.804688 1.8125 -1.476562 1.34375 -2.375 C 0.882812 -3.28125 0.65625 -4.414062 0.65625 -5.78125 C 0.65625 -7.039062 0.894531 -8.128906 1.375 -9.046875 C 1.863281 -9.972656 2.523438 -10.6875 3.359375 -11.1875 C 4.191406 -11.695312 5.132812 -11.953125 6.1875 -11.953125 C 7.257812 -11.953125 8.164062 -11.707031 8.90625 -11.21875 C 9.644531 -10.726562 10.207031 -10.046875 10.59375 -9.171875 C 10.988281 -8.296875 11.1875 -7.289062 11.1875 -6.15625 Z M 6.15625 -10.5 C 5.226562 -10.5 4.453125 -10.175781 3.828125 -9.53125 C 3.210938 -8.882812 2.84375 -7.941406 2.71875 -6.703125 L 9.265625 -6.703125 C 9.179688 -7.921875 8.878906 -8.859375 8.359375 -9.515625 C 7.835938 -10.171875 7.101562 -10.5 6.15625 -10.5 Z M 6.15625 -10.5 "/></g></g></g><g fill="#2b2b2b" fill-opacity="1"><g transform="translate(89.196489, 269.92908)"><g><path d="M 11.796875 -11.640625 L 11.796875 -2.859375 C 11.796875 -2.492188 11.796875 -2.101562 11.796875 -1.6875 C 11.796875 -1.28125 11.789062 -0.914062 11.78125 -0.59375 C 11.71875 1.101562 11.195312 2.394531 10.21875 3.28125 C 9.25 4.164062 7.921875 4.609375 6.234375 4.609375 C 4.578125 4.609375 3.320312 4.273438 2.46875 3.609375 C 1.625 2.941406 1.144531 1.992188 1.03125 0.765625 L 1.015625 0.546875 L 2.921875 0.546875 L 2.9375 0.75 C 3.007812 1.46875 3.328125 2.046875 3.890625 2.484375 C 4.460938 2.929688 5.242188 3.15625 6.234375 3.15625 C 7.390625 3.15625 8.273438 2.84375 8.890625 2.21875 C 9.503906 1.59375 9.835938 0.722656 9.890625 -0.390625 C 9.898438 -0.671875 9.90625 -0.910156 9.90625 -1.109375 C 9.90625 -1.304688 9.90625 -1.492188 9.90625 -1.671875 L 9.90625 -1.875 L 9.03125 -0.609375 C 8.707031 -0.335938 8.265625 -0.117188 7.703125 0.046875 C 7.140625 0.222656 6.554688 0.3125 5.953125 0.3125 C 4.828125 0.3125 3.867188 0.0507812 3.078125 -0.46875 C 2.285156 -0.988281 1.679688 -1.695312 1.265625 -2.59375 C 0.859375 -3.5 0.65625 -4.515625 0.65625 -5.640625 C 0.65625 -7.078125 0.914062 -8.257812 1.4375 -9.1875 C 1.96875 -10.125 2.671875 -10.816406 3.546875 -11.265625 C 4.421875 -11.722656 5.351562 -11.953125 6.34375 -11.953125 C 6.832031 -11.953125 7.347656 -11.882812 7.890625 -11.75 C 8.429688 -11.625 8.847656 -11.4375 9.140625 -11.1875 L 9.90625 -10.046875 L 9.90625 -11.640625 Z M 6.234375 -1.140625 C 6.878906 -1.140625 7.476562 -1.289062 8.03125 -1.59375 C 8.59375 -1.894531 9.046875 -2.378906 9.390625 -3.046875 C 9.734375 -3.710938 9.90625 -4.601562 9.90625 -5.71875 L 9.90625 -6.34375 C 9.90625 -7.351562 9.722656 -8.160156 9.359375 -8.765625 C 9.003906 -9.378906 8.550781 -9.820312 8 -10.09375 C 7.457031 -10.363281 6.90625 -10.5 6.34375 -10.5 C 5.320312 -10.5 4.460938 -10.109375 3.765625 -9.328125 C 3.066406 -8.546875 2.71875 -7.390625 2.71875 -5.859375 C 2.71875 -4.984375 2.847656 -4.191406 3.109375 -3.484375 C 3.378906 -2.773438 3.773438 -2.207031 4.296875 -1.78125 C 4.816406 -1.351562 5.460938 -1.140625 6.234375 -1.140625 Z M 6.234375 -1.140625 "/></g></g></g><g fill="#2b2b2b" fill-opacity="1"><g transform="translate(103.632913, 269.92908)"><g><path d="M 11.421875 -8.546875 C 11.453125 -8.253906 11.46875 -7.960938 11.46875 -7.671875 C 11.46875 -7.390625 11.46875 -7.015625 11.46875 -6.546875 L 11.46875 0 L 9.578125 0 L 9.578125 -6.421875 C 9.578125 -6.710938 9.578125 -6.988281 9.578125 -7.25 C 9.578125 -7.507812 9.5625 -7.785156 9.53125 -8.078125 C 9.476562 -8.765625 9.25 -9.335938 8.84375 -9.796875 C 8.4375 -10.265625 7.78125 -10.484375 6.875 -10.453125 C 6.269531 -10.441406 5.710938 -10.265625 5.203125 -9.921875 C 4.691406 -9.585938 4.28125 -9.035156 3.96875 -8.265625 C 3.664062 -7.503906 3.515625 -6.457031 3.515625 -5.125 L 3.515625 0 L 1.625 0 L 1.625 -16.25 L 3.515625 -16.25 L 3.515625 -9.640625 L 4.234375 -10.984375 C 4.734375 -11.367188 5.21875 -11.625 5.6875 -11.75 C 6.15625 -11.882812 6.679688 -11.953125 7.265625 -11.953125 C 8.546875 -11.953125 9.535156 -11.640625 10.234375 -11.015625 C 10.941406 -10.390625 11.335938 -9.566406 11.421875 -8.546875 Z M 11.421875 -8.546875 "/></g></g></g><g fill="#2b2b2b" fill-opacity="1"><g transform="translate(117.585937, 269.92908)"><g><path d="M 11.1875 -6.15625 C 11.1875 -6.0625 11.1875 -5.9375 11.1875 -5.78125 C 11.1875 -5.632812 11.171875 -5.457031 11.140625 -5.25 L 2.703125 -5.25 C 2.765625 -4.226562 2.953125 -3.414062 3.265625 -2.8125 C 3.578125 -2.207031 3.972656 -1.773438 4.453125 -1.515625 C 4.941406 -1.265625 5.472656 -1.140625 6.046875 -1.140625 C 6.804688 -1.140625 7.460938 -1.363281 8.015625 -1.8125 C 8.578125 -2.269531 8.921875 -2.914062 9.046875 -3.75 L 11.03125 -3.75 C 10.882812 -2.8125 10.554688 -2.039062 10.046875 -1.4375 C 9.546875 -0.84375 8.9375 -0.398438 8.21875 -0.109375 C 7.507812 0.171875 6.753906 0.3125 5.953125 0.3125 C 4.941406 0.3125 4.035156 0.0859375 3.234375 -0.359375 C 2.441406 -0.804688 1.8125 -1.476562 1.34375 -2.375 C 0.882812 -3.28125 0.65625 -4.414062 0.65625 -5.78125 C 0.65625 -7.039062 0.894531 -8.128906 1.375 -9.046875 C 1.863281 -9.972656 2.523438 -10.6875 3.359375 -11.1875 C 4.191406 -11.695312 5.132812 -11.953125 6.1875 -11.953125 C 7.257812 -11.953125 8.164062 -11.707031 8.90625 -11.21875 C 9.644531 -10.726562 10.207031 -10.046875 10.59375 -9.171875 C 10.988281 -8.296875 11.1875 -7.289062 11.1875 -6.15625 Z M 6.15625 -10.5 C 5.226562 -10.5 4.453125 -10.175781 3.828125 -9.53125 C 3.210938 -8.882812 2.84375 -7.941406 2.71875 -6.703125 L 9.265625 -6.703125 C 9.179688 -7.921875 8.878906 -8.859375 8.359375 -9.515625 C 7.835938 -10.171875 7.101562 -10.5 6.15625 -10.5 Z M 6.15625 -10.5 "/></g></g></g><g fill="#2b2b2b" fill-opacity="1"><g transform="translate(130.572165, 269.92908)"><g><path d="M 11.421875 -8.546875 C 11.453125 -8.253906 11.46875 -7.960938 11.46875 -7.671875 C 11.46875 -7.390625 11.46875 -7.015625 11.46875 -6.546875 L 11.46875 0 L 9.578125 0 L 9.578125 -6.421875 C 9.578125 -6.710938 9.578125 -6.988281 9.578125 -7.25 C 9.578125 -7.507812 9.5625 -7.785156 9.53125 -8.078125 C 9.476562 -8.765625 9.25 -9.332031 8.84375 -9.78125 C 8.4375 -10.226562 7.78125 -10.453125 6.875 -10.453125 C 6.269531 -10.453125 5.710938 -10.285156 5.203125 -9.953125 C 4.691406 -9.617188 4.28125 -9.0625 3.96875 -8.28125 C 3.664062 -7.507812 3.515625 -6.457031 3.515625 -5.125 L 3.515625 0 L 1.625 0 L 1.625 -11.640625 L 3.515625 -11.640625 L 3.515625 -9.640625 L 4.234375 -10.984375 C 4.734375 -11.367188 5.21875 -11.625 5.6875 -11.75 C 6.15625 -11.882812 6.679688 -11.953125 7.265625 -11.953125 C 8.546875 -11.953125 9.535156 -11.640625 10.234375 -11.015625 C 10.941406 -10.390625 11.335938 -9.566406 11.421875 -8.546875 Z M 11.421875 -8.546875 "/></g></g></g><g fill="#2b2b2b" fill-opacity="1"><g transform="translate(144.52519, 269.92908)"><g><path d="M 11.140625 -11.640625 L 6.34375 0.984375 C 5.875 2.210938 5.3125 3.125 4.65625 3.71875 C 4.007812 4.3125 3.210938 4.609375 2.265625 4.609375 C 2.054688 4.609375 1.878906 4.601562 1.734375 4.59375 C 1.585938 4.59375 1.441406 4.582031 1.296875 4.5625 L 1.296875 3.03125 C 1.441406 3.039062 1.566406 3.046875 1.671875 3.046875 C 1.773438 3.046875 1.878906 3.046875 1.984375 3.046875 C 2.566406 3.046875 3.054688 2.894531 3.453125 2.59375 C 3.859375 2.300781 4.207031 1.773438 4.5 1.015625 L 4.65625 0.59375 L 0.015625 -11.640625 L 2.15625 -11.640625 L 5.625 -1.40625 L 9.078125 -11.640625 Z M 11.140625 -11.640625 "/></g></g></g><g fill="#2b2b2b" fill-opacity="1"><g transform="translate(156.720402, 269.92908)"><g/></g></g><g fill="#2b2b2b" fill-opacity="1"><g transform="translate(162.389736, 269.92908)"><g><path d="M 8.1875 -15.46875 C 9.476562 -15.46875 10.5625 -15.242188 11.4375 -14.796875 C 12.320312 -14.347656 13.003906 -13.738281 13.484375 -12.96875 C 13.972656 -12.195312 14.269531 -11.316406 14.375 -10.328125 L 14.390625 -10.109375 L 12.5 -10.109375 L 12.453125 -10.328125 C 12.234375 -11.410156 11.773438 -12.285156 11.078125 -12.953125 C 10.390625 -13.628906 9.414062 -13.96875 8.15625 -13.96875 C 7.125 -13.96875 6.226562 -13.691406 5.46875 -13.140625 C 4.71875 -12.597656 4.140625 -11.847656 3.734375 -10.890625 C 3.335938 -9.929688 3.140625 -8.832031 3.140625 -7.59375 C 3.140625 -6.351562 3.335938 -5.25 3.734375 -4.28125 C 4.128906 -3.3125 4.691406 -2.550781 5.421875 -2 C 6.160156 -1.457031 7.023438 -1.1875 8.015625 -1.1875 C 9.273438 -1.1875 10.253906 -1.519531 10.953125 -2.1875 C 11.648438 -2.863281 12.109375 -3.742188 12.328125 -4.828125 L 12.375 -5.046875 L 14.25 -5.046875 L 14.234375 -4.828125 C 14.148438 -3.921875 13.859375 -3.078125 13.359375 -2.296875 C 12.859375 -1.515625 12.15625 -0.882812 11.25 -0.40625 C 10.351562 0.0703125 9.238281 0.3125 7.90625 0.3125 C 6.445312 0.3125 5.203125 -0.03125 4.171875 -0.71875 C 3.148438 -1.40625 2.367188 -2.335938 1.828125 -3.515625 C 1.296875 -4.703125 1.03125 -6.035156 1.03125 -7.515625 C 1.03125 -9.046875 1.328125 -10.410156 1.921875 -11.609375 C 2.515625 -12.816406 3.347656 -13.757812 4.421875 -14.4375 C 5.503906 -15.125 6.757812 -15.46875 8.1875 -15.46875 Z M 8.1875 -15.46875 "/></g></g></g><g fill="#2b2b2b" fill-opacity="1"><g transform="translate(178.671862, 269.92908)"><g><path d="M 6.4375 -11.953125 C 7.757812 -11.953125 8.847656 -11.671875 9.703125 -11.109375 C 10.554688 -10.546875 11.1875 -9.796875 11.59375 -8.859375 C 12.007812 -7.929688 12.21875 -6.921875 12.21875 -5.828125 C 12.21875 -4.742188 12.007812 -3.734375 11.59375 -2.796875 C 11.1875 -1.859375 10.554688 -1.101562 9.703125 -0.53125 C 8.847656 0.03125 7.757812 0.3125 6.4375 0.3125 C 5.113281 0.3125 4.023438 0.03125 3.171875 -0.53125 C 2.328125 -1.101562 1.695312 -1.859375 1.28125 -2.796875 C 0.863281 -3.734375 0.65625 -4.742188 0.65625 -5.828125 C 0.65625 -6.921875 0.863281 -7.929688 1.28125 -8.859375 C 1.695312 -9.796875 2.328125 -10.546875 3.171875 -11.109375 C 4.023438 -11.671875 5.113281 -11.953125 6.4375 -11.953125 Z M 6.4375 -1.140625 C 7.226562 -1.140625 7.894531 -1.335938 8.4375 -1.734375 C 8.988281 -2.140625 9.410156 -2.691406 9.703125 -3.390625 C 10.003906 -4.097656 10.15625 -4.910156 10.15625 -5.828125 C 10.15625 -7.203125 9.828125 -8.320312 9.171875 -9.1875 C 8.515625 -10.0625 7.601562 -10.5 6.4375 -10.5 C 5.257812 -10.5 4.34375 -10.0625 3.6875 -9.1875 C 3.039062 -8.320312 2.71875 -7.203125 2.71875 -5.828125 C 2.71875 -4.910156 2.863281 -4.097656 3.15625 -3.390625 C 3.457031 -2.691406 3.878906 -2.140625 4.421875 -1.734375 C 4.972656 -1.335938 5.644531 -1.140625 6.4375 -1.140625 Z M 6.4375 -1.140625 "/></g></g></g><g fill="#2b2b2b" fill-opacity="1"><g transform="translate(192.471078, 269.92908)"><g><path d="M 3.421875 -16.140625 L 3.421875 -3.34375 C 3.421875 -3.164062 3.421875 -2.984375 3.421875 -2.796875 C 3.421875 -2.617188 3.429688 -2.429688 3.453125 -2.234375 C 3.484375 -1.867188 3.597656 -1.617188 3.796875 -1.484375 C 4.003906 -1.347656 4.363281 -1.304688 4.875 -1.359375 L 4.875 0 C 4.664062 0.03125 4.441406 0.0507812 4.203125 0.0625 C 3.972656 0.0820312 3.75 0.09375 3.53125 0.09375 C 2.988281 0.09375 2.53125 -0.0234375 2.15625 -0.265625 C 1.789062 -0.515625 1.59375 -1.003906 1.5625 -1.734375 C 1.539062 -1.941406 1.53125 -2.171875 1.53125 -2.421875 C 1.53125 -2.671875 1.53125 -2.953125 1.53125 -3.265625 L 1.53125 -16.140625 Z M 3.421875 -16.140625 "/></g></g></g><g fill="#2b2b2b" fill-opacity="1"><g transform="translate(198.821564, 269.92908)"><g><path d="M 3.421875 -16.140625 L 3.421875 -3.34375 C 3.421875 -3.164062 3.421875 -2.984375 3.421875 -2.796875 C 3.421875 -2.617188 3.429688 -2.429688 3.453125 -2.234375 C 3.484375 -1.867188 3.597656 -1.617188 3.796875 -1.484375 C 4.003906 -1.347656 4.363281 -1.304688 4.875 -1.359375 L 4.875 0 C 4.664062 0.03125 4.441406 0.0507812 4.203125 0.0625 C 3.972656 0.0820312 3.75 0.09375 3.53125 0.09375 C 2.988281 0.09375 2.53125 -0.0234375 2.15625 -0.265625 C 1.789062 -0.515625 1.59375 -1.003906 1.5625 -1.734375 C 1.539062 -1.941406 1.53125 -2.171875 1.53125 -2.421875 C 1.53125 -2.671875 1.53125 -2.953125 1.53125 -3.265625 L 1.53125 -16.140625 Z M 3.421875 -16.140625 "/></g></g></g><g fill="#2b2b2b" fill-opacity="1"><g transform="translate(205.17205, 269.92908)"><g><path d="M 11.1875 -6.15625 C 11.1875 -6.0625 11.1875 -5.9375 11.1875 -5.78125 C 11.1875 -5.632812 11.171875 -5.457031 11.140625 -5.25 L 2.703125 -5.25 C 2.765625 -4.226562 2.953125 -3.414062 3.265625 -2.8125 C 3.578125 -2.207031 3.972656 -1.773438 4.453125 -1.515625 C 4.941406 -1.265625 5.472656 -1.140625 6.046875 -1.140625 C 6.804688 -1.140625 7.460938 -1.363281 8.015625 -1.8125 C 8.578125 -2.269531 8.921875 -2.914062 9.046875 -3.75 L 11.03125 -3.75 C 10.882812 -2.8125 10.554688 -2.039062 10.046875 -1.4375 C 9.546875 -0.84375 8.9375 -0.398438 8.21875 -0.109375 C 7.507812 0.171875 6.753906 0.3125 5.953125 0.3125 C 4.941406 0.3125 4.035156 0.0859375 3.234375 -0.359375 C 2.441406 -0.804688 1.8125 -1.476562 1.34375 -2.375 C 0.882812 -3.28125 0.65625 -4.414062 0.65625 -5.78125 C 0.65625 -7.039062 0.894531 -8.128906 1.375 -9.046875 C 1.863281 -9.972656 2.523438 -10.6875 3.359375 -11.1875 C 4.191406 -11.695312 5.132812 -11.953125 6.1875 -11.953125 C 7.257812 -11.953125 8.164062 -11.707031 8.90625 -11.21875 C 9.644531 -10.726562 10.207031 -10.046875 10.59375 -9.171875 C 10.988281 -8.296875 11.1875 -7.289062 11.1875 -6.15625 Z M 6.15625 -10.5 C 5.226562 -10.5 4.453125 -10.175781 3.828125 -9.53125 C 3.210938 -8.882812 2.84375 -7.941406 2.71875 -6.703125 L 9.265625 -6.703125 C 9.179688 -7.921875 8.878906 -8.859375 8.359375 -9.515625 C 7.835938 -10.171875 7.101562 -10.5 6.15625 -10.5 Z M 6.15625 -10.5 "/></g></g></g><g fill="#2b2b2b" fill-opacity="1"><g transform="translate(218.158278, 269.92908)"><g><path d="M 11.796875 -11.640625 L 11.796875 -2.859375 C 11.796875 -2.492188 11.796875 -2.101562 11.796875 -1.6875 C 11.796875 -1.28125 11.789062 -0.914062 11.78125 -0.59375 C 11.71875 1.101562 11.195312 2.394531 10.21875 3.28125 C 9.25 4.164062 7.921875 4.609375 6.234375 4.609375 C 4.578125 4.609375 3.320312 4.273438 2.46875 3.609375 C 1.625 2.941406 1.144531 1.992188 1.03125 0.765625 L 1.015625 0.546875 L 2.921875 0.546875 L 2.9375 0.75 C 3.007812 1.46875 3.328125 2.046875 3.890625 2.484375 C 4.460938 2.929688 5.242188 3.15625 6.234375 3.15625 C 7.390625 3.15625 8.273438 2.84375 8.890625 2.21875 C 9.503906 1.59375 9.835938 0.722656 9.890625 -0.390625 C 9.898438 -0.671875 9.90625 -0.910156 9.90625 -1.109375 C 9.90625 -1.304688 9.90625 -1.492188 9.90625 -1.671875 L 9.90625 -1.875 L 9.03125 -0.609375 C 8.707031 -0.335938 8.265625 -0.117188 7.703125 0.046875 C 7.140625 0.222656 6.554688 0.3125 5.953125 0.3125 C 4.828125 0.3125 3.867188 0.0507812 3.078125 -0.46875 C 2.285156 -0.988281 1.679688 -1.695312 1.265625 -2.59375 C 0.859375 -3.5 0.65625 -4.515625 0.65625 -5.640625 C 0.65625 -7.078125 0.914062 -8.257812 1.4375 -9.1875 C 1.96875 -10.125 2.671875 -10.816406 3.546875 -11.265625 C 4.421875 -11.722656 5.351562 -11.953125 6.34375 -11.953125 C 6.832031 -11.953125 7.347656 -11.882812 7.890625 -11.75 C 8.429688 -11.625 8.847656 -11.4375 9.140625 -11.1875 L 9.90625 -10.046875 L 9.90625 -11.640625 Z M 6.234375 -1.140625 C 6.878906 -1.140625 7.476562 -1.289062 8.03125 -1.59375 C 8.59375 -1.894531 9.046875 -2.378906 9.390625 -3.046875 C 9.734375 -3.710938 9.90625 -4.601562 9.90625 -5.71875 L 9.90625 -6.34375 C 9.90625 -7.351562 9.722656 -8.160156 9.359375 -8.765625 C 9.003906 -9.378906 8.550781 -9.820312 8 -10.09375 C 7.457031 -10.363281 6.90625 -10.5 6.34375 -10.5 C 5.320312 -10.5 4.460938 -10.109375 3.765625 -9.328125 C 3.066406 -8.546875 2.71875 -7.390625 2.71875 -5.859375 C 2.71875 -4.984375 2.847656 -4.191406 3.109375 -3.484375 C 3.378906 -2.773438 3.773438 -2.207031 4.296875 -1.78125 C 4.816406 -1.351562 5.460938 -1.140625 6.234375 -1.140625 Z M 6.234375 -1.140625 "/></g></g></g><g fill="#2b2b2b" fill-opacity="1"><g transform="translate(232.594702, 269.92908)"><g><path d="M 11.1875 -6.15625 C 11.1875 -6.0625 11.1875 -5.9375 11.1875 -5.78125 C 11.1875 -5.632812 11.171875 -5.457031 11.140625 -5.25 L 2.703125 -5.25 C 2.765625 -4.226562 2.953125 -3.414062 3.265625 -2.8125 C 3.578125 -2.207031 3.972656 -1.773438 4.453125 -1.515625 C 4.941406 -1.265625 5.472656 -1.140625 6.046875 -1.140625 C 6.804688 -1.140625 7.460938 -1.363281 8.015625 -1.8125 C 8.578125 -2.269531 8.921875 -2.914062 9.046875 -3.75 L 11.03125 -3.75 C 10.882812 -2.8125 10.554688 -2.039062 10.046875 -1.4375 C 9.546875 -0.84375 8.9375 -0.398438 8.21875 -0.109375 C 7.507812 0.171875 6.753906 0.3125 5.953125 0.3125 C 4.941406 0.3125 4.035156 0.0859375 3.234375 -0.359375 C 2.441406 -0.804688 1.8125 -1.476562 1.34375 -2.375 C 0.882812 -3.28125 0.65625 -4.414062 0.65625 -5.78125 C 0.65625 -7.039062 0.894531 -8.128906 1.375 -9.046875 C 1.863281 -9.972656 2.523438 -10.6875 3.359375 -11.1875 C 4.191406 -11.695312 5.132812 -11.953125 6.1875 -11.953125 C 7.257812 -11.953125 8.164062 -11.707031 8.90625 -11.21875 C 9.644531 -10.726562 10.207031 -10.046875 10.59375 -9.171875 C 10.988281 -8.296875 11.1875 -7.289062 11.1875 -6.15625 Z M 6.15625 -10.5 C 5.226562 -10.5 4.453125 -10.175781 3.828125 -9.53125 C 3.210938 -8.882812 2.84375 -7.941406 2.71875 -6.703125 L 9.265625 -6.703125 C 9.179688 -7.921875 8.878906 -8.859375 8.359375 -9.515625 C 7.835938 -10.171875 7.101562 -10.5 6.15625 -10.5 Z M 6.15625 -10.5 "/></g></g></g></svg>